<?xml version="1.0" encoding="utf-8"?>
<!-- Generator: Adobe Illustrator 16.0.0, SVG Export Plug-In . SVG Version: 6.00 Build 0)  -->
<!DOCTYPE svg PUBLIC "-//W3C//DTD SVG 1.1//EN" "http://www.w3.org/Graphics/SVG/1.1/DTD/svg11.dtd">
<svg version="1.1" id="Layer_1" xmlns="http://www.w3.org/2000/svg" xmlns:xlink="http://www.w3.org/1999/xlink" x="0px" y="0px"
	 width="1393.645px" height="405.262px" viewBox="0 0 1393.645 405.262" enable-background="new 0 0 1393.645 405.262"
	 xml:space="preserve">
<g>
	<g>
		<g enable-background="new    ">
			<path fill="#464747" d="M55.173,398.028c0-1.016,0.104-1.833,0.313-2.452c0.208-0.619,0.519-1.097,0.931-1.433
				s0.931-0.504,1.556-0.504c0.46,0,0.865,0.093,1.212,0.278s0.635,0.453,0.861,0.803s0.404,0.775,0.533,1.277
				s0.193,1.179,0.193,2.03c0,1.008-0.104,1.821-0.311,2.44c-0.207,0.619-0.517,1.098-0.929,1.436s-0.933,0.507-1.561,0.507
				c-0.828,0-1.479-0.297-1.951-0.891C55.456,400.805,55.173,399.641,55.173,398.028z M56.256,398.028
				c0,1.41,0.165,2.349,0.495,2.815s0.737,0.7,1.222,0.7c0.484,0,0.891-0.234,1.221-0.703s0.495-1.406,0.495-2.813
				c0-1.414-0.165-2.354-0.495-2.818s-0.741-0.697-1.233-0.697c-0.484,0-0.871,0.205-1.16,0.615
				C56.438,395.651,56.256,396.618,56.256,398.028z"/>
		</g>
	</g>
	<g>
		<g enable-background="new    ">
			<path fill="#464747" d="M498.341,402.264h-1.055v-6.721c-0.254,0.242-0.587,0.484-0.998,0.727
				c-0.412,0.242-0.782,0.424-1.11,0.545v-1.02c0.59-0.277,1.104-0.613,1.546-1.008s0.754-0.777,0.938-1.148h0.68V402.264z"/>
			<path fill="#464747" d="M501.042,398.028c0-1.016,0.104-1.833,0.313-2.452s0.52-1.097,0.932-1.433s0.93-0.504,1.555-0.504
				c0.461,0,0.865,0.093,1.213,0.278s0.635,0.453,0.861,0.803s0.404,0.775,0.533,1.277s0.193,1.179,0.193,2.03
				c0,1.008-0.104,1.821-0.311,2.44s-0.517,1.098-0.929,1.436s-0.933,0.507-1.562,0.507c-0.828,0-1.478-0.297-1.95-0.891
				C501.325,400.805,501.042,399.641,501.042,398.028z M502.126,398.028c0,1.41,0.165,2.349,0.495,2.815
				c0.329,0.467,0.736,0.7,1.221,0.7s0.892-0.234,1.222-0.703s0.495-1.406,0.495-2.813c0-1.414-0.165-2.354-0.495-2.818
				s-0.741-0.697-1.233-0.697c-0.484,0-0.871,0.205-1.159,0.615C502.308,395.651,502.126,396.618,502.126,398.028z"/>
		</g>
	</g>
	<g>
		<g enable-background="new    ">
			<path fill="#464747" d="M719.786,402.264h-1.055v-6.721c-0.254,0.242-0.587,0.484-0.998,0.727
				c-0.412,0.242-0.782,0.424-1.11,0.545v-1.02c0.59-0.277,1.104-0.613,1.546-1.008s0.754-0.777,0.938-1.148h0.68V402.264z"/>
			<path fill="#464747" d="M722.488,400.014l1.107-0.094c0.082,0.539,0.272,0.944,0.571,1.216c0.298,0.271,0.658,0.407,1.08,0.407
				c0.508,0,0.938-0.191,1.289-0.574s0.527-0.891,0.527-1.523c0-0.602-0.169-1.076-0.507-1.424s-0.78-0.521-1.327-0.521
				c-0.34,0-0.646,0.077-0.919,0.231c-0.273,0.154-0.488,0.354-0.645,0.601l-0.99-0.129l0.832-4.412h4.271v1.008h-3.427
				l-0.463,2.309c0.516-0.359,1.056-0.539,1.622-0.539c0.75,0,1.383,0.26,1.898,0.779s0.773,1.188,0.773,2.004
				c0,0.777-0.227,1.449-0.68,2.016c-0.551,0.695-1.303,1.043-2.256,1.043c-0.781,0-1.418-0.219-1.912-0.656
				S722.558,400.737,722.488,400.014z"/>
		</g>
	</g>
	<g>
		<g enable-background="new    ">
			<path fill="#464747" d="M1164.249,401.25v1.014h-5.677c-0.008-0.254,0.033-0.498,0.123-0.732
				c0.145-0.387,0.376-0.768,0.694-1.143s0.778-0.809,1.379-1.301c0.934-0.766,1.564-1.372,1.893-1.819s0.492-0.87,0.492-1.269
				c0-0.418-0.149-0.771-0.448-1.058s-0.688-0.431-1.169-0.431c-0.508,0-0.913,0.152-1.218,0.457s-0.459,0.727-0.463,1.266
				l-1.084-0.111c0.074-0.809,0.354-1.425,0.838-1.849s1.134-0.636,1.95-0.636c0.824,0,1.477,0.229,1.957,0.686
				s0.721,1.023,0.721,1.699c0,0.344-0.07,0.682-0.211,1.014s-0.374,0.682-0.7,1.049s-0.868,0.871-1.626,1.512
				c-0.633,0.531-1.039,0.892-1.218,1.081c-0.18,0.189-0.328,0.38-0.445,0.571H1164.249z"/>
			<path fill="#464747" d="M1165.38,400.014l1.107-0.094c0.082,0.539,0.272,0.944,0.571,1.216c0.298,0.271,0.658,0.407,1.08,0.407
				c0.508,0,0.938-0.191,1.289-0.574s0.527-0.891,0.527-1.523c0-0.602-0.169-1.076-0.507-1.424s-0.78-0.521-1.327-0.521
				c-0.34,0-0.646,0.077-0.919,0.231c-0.273,0.154-0.488,0.354-0.645,0.601l-0.99-0.129l0.832-4.412h4.271v1.008h-3.427
				l-0.463,2.309c0.516-0.359,1.056-0.539,1.622-0.539c0.75,0,1.383,0.26,1.898,0.779s0.773,1.188,0.773,2.004
				c0,0.777-0.227,1.449-0.68,2.016c-0.551,0.695-1.303,1.043-2.256,1.043c-0.781,0-1.418-0.219-1.912-0.656
				S1165.45,400.737,1165.38,400.014z"/>
		</g>
	</g>
	<g>
		<g enable-background="new    ">
			<path fill="#464747" d="M272.925,398.028c0-1.016,0.104-1.833,0.313-2.452c0.208-0.619,0.519-1.097,0.931-1.433
				s0.931-0.504,1.556-0.504c0.46,0,0.865,0.093,1.212,0.278s0.635,0.453,0.861,0.803s0.404,0.775,0.533,1.277
				s0.193,1.179,0.193,2.03c0,1.008-0.104,1.821-0.311,2.44c-0.207,0.619-0.517,1.098-0.929,1.436s-0.933,0.507-1.561,0.507
				c-0.828,0-1.479-0.297-1.951-0.891C273.208,400.805,272.925,399.641,272.925,398.028z M274.008,398.028
				c0,1.41,0.165,2.349,0.495,2.815s0.737,0.7,1.222,0.7c0.484,0,0.891-0.234,1.221-0.703s0.495-1.406,0.495-2.813
				c0-1.414-0.165-2.354-0.495-2.818s-0.741-0.697-1.233-0.697c-0.484,0-0.871,0.205-1.16,0.615
				C274.19,395.651,274.008,396.618,274.008,398.028z"/>
			<path fill="#464747" d="M279.597,400.014l1.107-0.094c0.082,0.539,0.272,0.944,0.571,1.216s0.659,0.407,1.081,0.407
				c0.507,0,0.937-0.191,1.289-0.574s0.527-0.891,0.527-1.523c0-0.602-0.169-1.076-0.507-1.424s-0.78-0.521-1.327-0.521
				c-0.34,0-0.646,0.077-0.92,0.231s-0.488,0.354-0.645,0.601l-0.99-0.129l0.832-4.412h4.271v1.008h-3.427l-0.463,2.309
				c0.516-0.359,1.057-0.539,1.623-0.539c0.75,0,1.382,0.26,1.898,0.779s0.773,1.188,0.773,2.004c0,0.777-0.227,1.449-0.679,2.016
				c-0.551,0.695-1.303,1.043-2.255,1.043c-0.781,0-1.419-0.219-1.913-0.656C279.949,401.317,279.667,400.737,279.597,400.014z"/>
		</g>
	</g>
	<g>
		<g enable-background="new    ">
			<path fill="#464747" d="M942.804,401.25v1.014h-5.677c-0.008-0.254,0.033-0.498,0.123-0.732c0.145-0.387,0.376-0.768,0.694-1.143
				s0.778-0.809,1.379-1.301c0.934-0.766,1.564-1.372,1.893-1.819s0.492-0.87,0.492-1.269c0-0.418-0.149-0.771-0.448-1.058
				s-0.688-0.431-1.169-0.431c-0.508,0-0.913,0.152-1.218,0.457s-0.459,0.727-0.463,1.266l-1.084-0.111
				c0.074-0.809,0.354-1.425,0.838-1.849s1.134-0.636,1.95-0.636c0.824,0,1.477,0.229,1.957,0.686s0.721,1.023,0.721,1.699
				c0,0.344-0.07,0.682-0.211,1.014s-0.374,0.682-0.7,1.049s-0.868,0.871-1.626,1.512c-0.633,0.531-1.039,0.892-1.218,1.081
				c-0.18,0.189-0.328,0.38-0.445,0.571H942.804z"/>
			<path fill="#464747" d="M943.935,398.028c0-1.016,0.104-1.833,0.313-2.452s0.52-1.097,0.932-1.433s0.93-0.504,1.555-0.504
				c0.461,0,0.865,0.093,1.213,0.278s0.635,0.453,0.861,0.803s0.404,0.775,0.533,1.277s0.193,1.179,0.193,2.03
				c0,1.008-0.104,1.821-0.311,2.44s-0.517,1.098-0.929,1.436s-0.933,0.507-1.562,0.507c-0.828,0-1.478-0.297-1.95-0.891
				C944.218,400.805,943.935,399.641,943.935,398.028z M945.019,398.028c0,1.41,0.165,2.349,0.495,2.815
				c0.329,0.467,0.736,0.7,1.221,0.7s0.892-0.234,1.222-0.703s0.495-1.406,0.495-2.813c0-1.414-0.165-2.354-0.495-2.818
				s-0.741-0.697-1.233-0.697c-0.484,0-0.871,0.205-1.159,0.615C945.2,395.651,945.019,396.618,945.019,398.028z"/>
		</g>
	</g>
	<g>
		<g enable-background="new    ">
			<path fill="#464747" d="M1380.158,399.997l1.055-0.141c0.121,0.598,0.327,1.028,0.618,1.292c0.29,0.264,0.645,0.396,1.063,0.396
				c0.496,0,0.915-0.172,1.257-0.516s0.513-0.77,0.513-1.277c0-0.484-0.158-0.884-0.475-1.198s-0.719-0.472-1.207-0.472
				c-0.199,0-0.447,0.039-0.744,0.117l0.117-0.926c0.07,0.008,0.127,0.012,0.17,0.012c0.449,0,0.854-0.117,1.213-0.352
				s0.539-0.596,0.539-1.084c0-0.387-0.131-0.707-0.393-0.961s-0.6-0.381-1.014-0.381c-0.41,0-0.752,0.129-1.024,0.387
				c-0.273,0.258-0.449,0.645-0.527,1.16l-1.055-0.188c0.129-0.707,0.422-1.255,0.879-1.644s1.024-0.583,1.704-0.583
				c0.469,0,0.9,0.101,1.295,0.302s0.696,0.476,0.905,0.823s0.313,0.717,0.313,1.107c0,0.371-0.1,0.709-0.299,1.014
				s-0.494,0.547-0.885,0.727c0.508,0.117,0.902,0.36,1.184,0.729s0.422,0.831,0.422,1.386c0,0.75-0.273,1.386-0.82,1.907
				s-1.238,0.782-2.074,0.782c-0.754,0-1.379-0.225-1.877-0.674S1380.229,400.711,1380.158,399.997z"/>
			<path fill="#464747" d="M1386.825,398.028c0-1.016,0.104-1.833,0.313-2.452s0.52-1.097,0.932-1.433s0.93-0.504,1.555-0.504
				c0.461,0,0.865,0.093,1.213,0.278s0.635,0.453,0.861,0.803s0.404,0.775,0.533,1.277s0.193,1.179,0.193,2.03
				c0,1.008-0.104,1.821-0.311,2.44s-0.517,1.098-0.929,1.436s-0.933,0.507-1.562,0.507c-0.828,0-1.478-0.297-1.95-0.891
				C1387.109,400.805,1386.825,399.641,1386.825,398.028z M1387.909,398.028c0,1.41,0.165,2.349,0.495,2.815
				c0.329,0.467,0.736,0.7,1.221,0.7s0.892-0.234,1.222-0.703s0.495-1.406,0.495-2.813c0-1.414-0.165-2.354-0.495-2.818
				s-0.741-0.697-1.233-0.697c-0.484,0-0.871,0.205-1.159,0.615C1388.091,395.651,1387.909,396.618,1387.909,398.028z"/>
		</g>
	</g>
	<g>
		<g>
			
				<line fill="none" stroke="#AAAAAD" stroke-width="0.5" stroke-miterlimit="10" x1="56.541" y1="380.142" x2="56.541" y2="379.142"/>
			
				<line fill="none" stroke="#AAAAAD" stroke-width="0.5" stroke-miterlimit="10" stroke-dasharray="1.9798,1.9798,1.9798,1.9798" x1="56.541" y1="377.163" x2="56.541" y2="370.232"/>
			
				<line fill="none" stroke="#AAAAAD" stroke-width="0.5" stroke-miterlimit="10" stroke-dasharray="1.9798,1.9798,1.9798,1.9798,1.9798,1.9798" x1="56.541" y1="369.243" x2="56.541" y2="1.99"/>
			<line fill="none" stroke="#AAAAAD" stroke-width="0.5" stroke-miterlimit="10" x1="56.541" y1="1" x2="56.541" y2="0"/>
		</g>
	</g>
	<g>
		<g>
			
				<line fill="none" stroke="#AAAAAD" stroke-width="0.5" stroke-miterlimit="10" x1="277.678" y1="380.142" x2="277.678" y2="379.142"/>
			
				<line fill="none" stroke="#AAAAAD" stroke-width="0.5" stroke-miterlimit="10" stroke-dasharray="1.9798,1.9798,1.9798,1.9798" x1="277.678" y1="377.163" x2="277.678" y2="370.232"/>
			
				<line fill="none" stroke="#AAAAAD" stroke-width="0.5" stroke-miterlimit="10" stroke-dasharray="1.9798,1.9798,1.9798,1.9798,1.9798,1.9798" x1="277.678" y1="369.243" x2="277.678" y2="1.99"/>
			<line fill="none" stroke="#AAAAAD" stroke-width="0.5" stroke-miterlimit="10" x1="277.678" y1="1" x2="277.678" y2="0"/>
		</g>
	</g>
	<g>
		<g>
			
				<line fill="none" stroke="#AAAAAD" stroke-width="0.5" stroke-miterlimit="10" x1="498.814" y1="380.142" x2="498.814" y2="379.142"/>
			
				<line fill="none" stroke="#AAAAAD" stroke-width="0.5" stroke-miterlimit="10" stroke-dasharray="1.9798,1.9798,1.9798,1.9798" x1="498.814" y1="377.163" x2="498.814" y2="370.232"/>
			
				<line fill="none" stroke="#AAAAAD" stroke-width="0.5" stroke-miterlimit="10" stroke-dasharray="1.9798,1.9798,1.9798,1.9798,1.9798,1.9798" x1="498.814" y1="369.243" x2="498.814" y2="1.99"/>
			<line fill="none" stroke="#AAAAAD" stroke-width="0.5" stroke-miterlimit="10" x1="498.814" y1="1" x2="498.814" y2="0"/>
		</g>
	</g>
	<g>
		<g>
			
				<line fill="none" stroke="#AAAAAD" stroke-width="0.5" stroke-miterlimit="10" x1="719.95" y1="380.142" x2="719.95" y2="379.142"/>
			
				<line fill="none" stroke="#AAAAAD" stroke-width="0.5" stroke-miterlimit="10" stroke-dasharray="1.9798,1.9798,1.9798,1.9798" x1="719.95" y1="377.163" x2="719.95" y2="370.232"/>
			
				<line fill="none" stroke="#AAAAAD" stroke-width="0.5" stroke-miterlimit="10" stroke-dasharray="1.9798,1.9798,1.9798,1.9798,1.9798,1.9798" x1="719.95" y1="369.243" x2="719.95" y2="1.99"/>
			<line fill="none" stroke="#AAAAAD" stroke-width="0.5" stroke-miterlimit="10" x1="719.95" y1="1" x2="719.95" y2="0"/>
		</g>
	</g>
	<g>
		<g>
			
				<line fill="none" stroke="#AAAAAD" stroke-width="0.5" stroke-miterlimit="10" x1="941.088" y1="380.142" x2="941.088" y2="379.142"/>
			
				<line fill="none" stroke="#AAAAAD" stroke-width="0.5" stroke-miterlimit="10" stroke-dasharray="1.9798,1.9798,1.9798,1.9798" x1="941.088" y1="377.163" x2="941.088" y2="370.232"/>
			
				<line fill="none" stroke="#AAAAAD" stroke-width="0.5" stroke-miterlimit="10" stroke-dasharray="1.9798,1.9798,1.9798,1.9798,1.9798,1.9798" x1="941.088" y1="369.243" x2="941.088" y2="1.99"/>
			<line fill="none" stroke="#AAAAAD" stroke-width="0.5" stroke-miterlimit="10" x1="941.088" y1="1" x2="941.088" y2="0"/>
		</g>
	</g>
	<g>
		<g>
			
				<line fill="none" stroke="#AAAAAD" stroke-width="0.5" stroke-miterlimit="10" x1="1162.226" y1="380.142" x2="1162.226" y2="379.142"/>
			
				<line fill="none" stroke="#AAAAAD" stroke-width="0.5" stroke-miterlimit="10" stroke-dasharray="1.9798,1.9798,1.9798,1.9798" x1="1162.226" y1="377.163" x2="1162.226" y2="370.232"/>
			
				<line fill="none" stroke="#AAAAAD" stroke-width="0.5" stroke-miterlimit="10" stroke-dasharray="1.9798,1.9798,1.9798,1.9798,1.9798,1.9798" x1="1162.226" y1="369.243" x2="1162.226" y2="1.99"/>
			<line fill="none" stroke="#AAAAAD" stroke-width="0.5" stroke-miterlimit="10" x1="1162.226" y1="1" x2="1162.226" y2="0"/>
		</g>
	</g>
	<g>
		<g>
			
				<line fill="none" stroke="#AAAAAD" stroke-width="0.5" stroke-miterlimit="10" x1="1383.363" y1="380.142" x2="1383.363" y2="379.142"/>
			
				<line fill="none" stroke="#AAAAAD" stroke-width="0.5" stroke-miterlimit="10" stroke-dasharray="1.9798,1.9798,1.9798,1.9798" x1="1383.363" y1="377.163" x2="1383.363" y2="370.232"/>
			
				<line fill="none" stroke="#AAAAAD" stroke-width="0.5" stroke-miterlimit="10" stroke-dasharray="1.9798,1.9798,1.9798,1.9798,1.9798,1.9798" x1="1383.363" y1="369.243" x2="1383.363" y2="1.99"/>
			<line fill="none" stroke="#AAAAAD" stroke-width="0.5" stroke-miterlimit="10" x1="1383.363" y1="1" x2="1383.363" y2="0"/>
		</g>
	</g>
	<rect x="55.152" y="42.854" fill="#EE2A7B" width="867.937" height="55.391"/>
	<g>
		<g enable-background="new    ">
			<path fill="#464747" d="M941.332,74.997h-1.757V63.795c-0.424,0.404-0.979,0.807-1.665,1.211s-1.304,0.707-1.85,0.908v-1.699
				c0.982-0.462,1.842-1.022,2.577-1.68s1.256-1.295,1.563-1.914h1.132V74.997z"/>
			<path fill="#464747" d="M947.098,71.686l1.688-0.156c0.144,0.794,0.417,1.371,0.82,1.729s0.921,0.537,1.553,0.537
				c0.54,0,1.014-0.124,1.421-0.371c0.406-0.248,0.74-0.578,1-0.991c0.261-0.414,0.479-0.972,0.654-1.675s0.264-1.419,0.264-2.148
				c0-0.078-0.003-0.195-0.01-0.352c-0.352,0.56-0.831,1.014-1.439,1.362c-0.609,0.348-1.269,0.522-1.978,0.522
				c-1.185,0-2.188-0.43-3.007-1.289c-0.82-0.859-1.23-1.992-1.23-3.398c0-1.452,0.428-2.621,1.284-3.506
				c0.855-0.885,1.928-1.328,3.217-1.328c0.931,0,1.782,0.25,2.553,0.752c0.771,0.501,1.357,1.216,1.758,2.144
				s0.601,2.271,0.601,4.028c0,1.83-0.198,3.286-0.596,4.37s-0.987,1.909-1.772,2.476c-0.784,0.566-1.703,0.85-2.758,0.85
				c-1.12,0-2.034-0.311-2.743-0.933C947.667,73.687,947.24,72.813,947.098,71.686z M954.293,65.368c0-1.009-0.269-1.81-0.806-2.402
				c-0.536-0.592-1.183-0.889-1.938-0.889c-0.781,0-1.462,0.319-2.041,0.957s-0.869,1.465-0.869,2.48
				c0,0.912,0.275,1.652,0.825,2.222s1.229,0.854,2.036,0.854c0.813,0,1.482-0.285,2.006-0.854
				C954.031,67.166,954.293,66.377,954.293,65.368z"/>
			<path fill="#464747" d="M959.941,74.997v-2.002h2.001v2.002H959.941z"/>
			<path fill="#464747" d="M965.774,71.686l1.688-0.156c0.144,0.794,0.417,1.371,0.82,1.729s0.921,0.537,1.553,0.537
				c0.54,0,1.014-0.124,1.421-0.371c0.406-0.248,0.74-0.578,1-0.991c0.261-0.414,0.479-0.972,0.654-1.675s0.264-1.419,0.264-2.148
				c0-0.078-0.003-0.195-0.01-0.352c-0.352,0.56-0.831,1.014-1.439,1.362c-0.609,0.348-1.269,0.522-1.978,0.522
				c-1.185,0-2.188-0.43-3.007-1.289c-0.82-0.859-1.23-1.992-1.23-3.398c0-1.452,0.428-2.621,1.284-3.506
				c0.855-0.885,1.928-1.328,3.217-1.328c0.931,0,1.782,0.25,2.553,0.752c0.771,0.501,1.357,1.216,1.758,2.144
				s0.601,2.271,0.601,4.028c0,1.83-0.198,3.286-0.596,4.37s-0.987,1.909-1.772,2.476c-0.784,0.566-1.703,0.85-2.758,0.85
				c-1.12,0-2.034-0.311-2.743-0.933C966.343,73.687,965.916,72.813,965.774,71.686z M972.969,65.368
				c0-1.009-0.269-1.81-0.806-2.402c-0.536-0.592-1.183-0.889-1.938-0.889c-0.781,0-1.462,0.319-2.041,0.957
				s-0.869,1.465-0.869,2.48c0,0.912,0.275,1.652,0.825,2.222s1.229,0.854,2.036,0.854c0.813,0,1.482-0.285,2.006-0.854
				C972.707,67.166,972.969,66.377,972.969,65.368z"/>
		</g>
		<g enable-background="new    ">
			<path fill="#464747" d="M975.09,68.469c0-0.613,0.154-1.135,0.463-1.564s0.756-0.645,1.341-0.645
				c0.539,0,0.985,0.192,1.339,0.577s0.53,0.95,0.53,1.696c0,0.727-0.179,1.286-0.536,1.679s-0.798,0.589-1.321,0.589
				c-0.519,0-0.951-0.193-1.297-0.58S975.09,69.25,975.09,68.469z M976.923,66.987c-0.261,0-0.479,0.113-0.652,0.34
				s-0.261,0.643-0.261,1.248c0,0.551,0.088,0.938,0.264,1.163s0.393,0.337,0.649,0.337c0.266,0,0.485-0.113,0.659-0.34
				s0.261-0.641,0.261-1.242c0-0.555-0.088-0.944-0.264-1.169S977.185,66.987,976.923,66.987z M976.929,75.313l4.699-9.053h0.854
				l-4.681,9.053H976.929z M980.644,72.981c0-0.617,0.154-1.14,0.463-1.567c0.308-0.428,0.757-0.642,1.347-0.642
				c0.539,0,0.985,0.192,1.339,0.577s0.53,0.95,0.53,1.696c0,0.727-0.179,1.286-0.536,1.679s-0.8,0.589-1.327,0.589
				c-0.52,0-0.951-0.194-1.297-0.583S980.644,73.758,980.644,72.981z M982.483,71.499c-0.266,0-0.485,0.113-0.659,0.34
				s-0.26,0.643-0.26,1.248c0,0.547,0.088,0.934,0.263,1.16c0.176,0.227,0.393,0.34,0.65,0.34c0.27,0,0.491-0.113,0.665-0.34
				s0.261-0.641,0.261-1.242c0-0.555-0.088-0.944-0.264-1.169S982.744,71.499,982.483,71.499z"/>
		</g>
	</g>
	<g>
		<g enable-background="new    ">
			<path fill="#464747" d="M6.04,72.204v1.014H0.363c-0.008-0.254,0.033-0.498,0.123-0.732c0.145-0.387,0.376-0.768,0.694-1.143
				c0.318-0.375,0.778-0.809,1.379-1.301c0.934-0.766,1.564-1.372,1.892-1.819s0.492-0.87,0.492-1.269
				c0-0.418-0.149-0.771-0.448-1.058s-0.688-0.431-1.168-0.431c-0.508,0-0.914,0.152-1.219,0.457s-0.459,0.727-0.463,1.266
				l-1.083-0.111c0.074-0.809,0.354-1.425,0.837-1.849c0.484-0.424,1.135-0.636,1.951-0.636c0.824,0,1.476,0.229,1.957,0.686
				s0.721,1.023,0.721,1.699c0,0.344-0.07,0.682-0.211,1.014s-0.374,0.682-0.7,1.049s-0.868,0.871-1.625,1.512
				c-0.633,0.531-1.039,0.892-1.219,1.081s-0.328,0.38-0.445,0.571H6.04z"/>
			<path fill="#464747" d="M7.17,68.981c0-1.016,0.104-1.833,0.313-2.452c0.208-0.619,0.519-1.097,0.931-1.433
				s0.931-0.504,1.556-0.504c0.46,0,0.865,0.093,1.212,0.278s0.635,0.453,0.861,0.803s0.404,0.775,0.533,1.277
				s0.193,1.179,0.193,2.03c0,1.008-0.104,1.821-0.311,2.44c-0.207,0.619-0.517,1.098-0.929,1.436s-0.933,0.507-1.561,0.507
				c-0.828,0-1.479-0.297-1.951-0.891C7.453,71.758,7.17,70.594,7.17,68.981z M8.254,68.981c0,1.41,0.165,2.349,0.495,2.815
				s0.737,0.7,1.222,0.7c0.484,0,0.891-0.234,1.221-0.703s0.495-1.406,0.495-2.813c0-1.414-0.165-2.354-0.495-2.818
				s-0.741-0.697-1.233-0.697c-0.484,0-0.871,0.205-1.16,0.615C8.435,66.604,8.254,67.571,8.254,68.981z"/>
			<path fill="#464747" d="M17.815,73.217H16.76v-6.721c-0.254,0.242-0.587,0.484-0.999,0.727s-0.782,0.424-1.11,0.545v-1.02
				c0.59-0.277,1.105-0.613,1.547-1.008s0.753-0.777,0.937-1.148h0.68V73.217z"/>
			<path fill="#464747" d="M22.138,68.559c-0.438-0.16-0.762-0.389-0.972-0.686c-0.211-0.297-0.316-0.652-0.316-1.066
				c0-0.625,0.225-1.15,0.673-1.576c0.449-0.426,1.047-0.639,1.793-0.639c0.75,0,1.353,0.218,1.81,0.653s0.686,0.966,0.686,1.591
				c0,0.398-0.104,0.745-0.313,1.04s-0.526,0.522-0.952,0.683c0.527,0.172,0.929,0.449,1.204,0.832s0.413,0.84,0.413,1.371
				c0,0.734-0.26,1.352-0.779,1.852c-0.52,0.5-1.203,0.75-2.05,0.75c-0.848,0-1.531-0.251-2.051-0.753
				c-0.519-0.502-0.779-1.128-0.779-1.878c0-0.559,0.142-1.026,0.425-1.403C21.211,68.953,21.615,68.696,22.138,68.559z
				 M21.587,70.739c0,0.301,0.071,0.592,0.214,0.873s0.354,0.499,0.636,0.653s0.584,0.231,0.908,0.231
				c0.503,0,0.919-0.162,1.248-0.486s0.492-0.736,0.492-1.236c0-0.508-0.169-0.928-0.507-1.26s-0.761-0.498-1.268-0.498
				c-0.496,0-0.907,0.164-1.233,0.492S21.587,70.247,21.587,70.739z M21.927,66.772c0,0.406,0.131,0.738,0.393,0.996
				s0.602,0.387,1.02,0.387c0.406,0,0.739-0.128,0.999-0.384s0.39-0.569,0.39-0.94c0-0.387-0.134-0.712-0.401-0.976
				s-0.601-0.396-0.999-0.396c-0.402,0-0.736,0.129-1.002,0.387S21.927,66.413,21.927,66.772z"/>
		</g>
	</g>
	<rect x="55.152" y="151.854" fill="#EE2A7B" width="1016.937" height="55.391"/>
	<g>
		<g enable-background="new    ">
			<path fill="#464747" d="M1092.949,182.307v1.689h-9.461c-0.014-0.423,0.055-0.83,0.205-1.221c0.24-0.645,0.626-1.279,1.157-1.904
				c0.53-0.625,1.297-1.348,2.299-2.168c1.556-1.276,2.607-2.287,3.153-3.032c0.547-0.746,0.82-1.45,0.82-2.114
				c0-0.697-0.249-1.284-0.747-1.763c-0.497-0.479-1.146-0.718-1.947-0.718c-0.847,0-1.523,0.254-2.031,0.762
				s-0.765,1.211-0.771,2.109l-1.806-0.186c0.123-1.348,0.589-2.375,1.396-3.081c0.807-0.707,1.891-1.06,3.251-1.06
				c1.373,0,2.46,0.381,3.261,1.143s1.201,1.706,1.201,2.832c0,0.573-0.117,1.136-0.352,1.689s-0.623,1.136-1.167,1.748
				c-0.543,0.612-1.446,1.452-2.709,2.52c-1.055,0.885-1.731,1.486-2.031,1.802c-0.299,0.316-0.547,0.633-0.742,0.952H1092.949z"/>
			<path fill="#464747" d="M1095.844,180.217l1.757-0.234c0.202,0.996,0.546,1.714,1.03,2.153c0.485,0.439,1.076,0.659,1.772,0.659
				c0.826,0,1.524-0.287,2.094-0.859c0.57-0.573,0.854-1.283,0.854-2.129c0-0.807-0.264-1.473-0.791-1.997
				c-0.526-0.524-1.197-0.786-2.011-0.786c-0.332,0-0.745,0.065-1.24,0.195l0.195-1.543c0.117,0.013,0.212,0.02,0.283,0.02
				c0.748,0,1.422-0.195,2.021-0.586c0.599-0.391,0.897-0.993,0.897-1.807c0-0.645-0.218-1.178-0.653-1.602
				c-0.437-0.423-1-0.635-1.689-0.635c-0.684,0-1.253,0.215-1.709,0.645c-0.455,0.43-0.748,1.074-0.879,1.934l-1.757-0.313
				c0.215-1.178,0.703-2.091,1.464-2.739c0.762-0.648,1.709-0.972,2.842-0.972c0.781,0,1.5,0.167,2.157,0.503
				c0.658,0.335,1.161,0.792,1.509,1.372c0.349,0.58,0.522,1.195,0.522,1.846c0,0.619-0.166,1.182-0.498,1.689
				s-0.823,0.912-1.475,1.211c0.847,0.195,1.504,0.601,1.973,1.216s0.703,1.385,0.703,2.31c0,1.25-0.456,2.31-1.367,3.179
				s-2.063,1.304-3.456,1.304c-1.257,0-2.3-0.375-3.129-1.123C1096.435,182.379,1095.961,181.409,1095.844,180.217z"/>
			<path fill="#464747" d="M1108.941,183.997v-2.002h2.001v2.002H1108.941z"/>
			<path fill="#464747" d="M1114.52,180.217l1.757-0.234c0.202,0.996,0.546,1.714,1.03,2.153c0.485,0.439,1.076,0.659,1.772,0.659
				c0.826,0,1.524-0.287,2.094-0.859c0.57-0.573,0.854-1.283,0.854-2.129c0-0.807-0.264-1.473-0.791-1.997
				c-0.526-0.524-1.197-0.786-2.011-0.786c-0.332,0-0.745,0.065-1.24,0.195l0.195-1.543c0.117,0.013,0.212,0.02,0.283,0.02
				c0.748,0,1.422-0.195,2.021-0.586c0.599-0.391,0.897-0.993,0.897-1.807c0-0.645-0.218-1.178-0.653-1.602
				c-0.437-0.423-1-0.635-1.689-0.635c-0.684,0-1.253,0.215-1.709,0.645c-0.455,0.43-0.748,1.074-0.879,1.934l-1.757-0.313
				c0.215-1.178,0.703-2.091,1.464-2.739c0.762-0.648,1.709-0.972,2.842-0.972c0.781,0,1.5,0.167,2.157,0.503
				c0.658,0.335,1.161,0.792,1.509,1.372c0.349,0.58,0.522,1.195,0.522,1.846c0,0.619-0.166,1.182-0.498,1.689
				s-0.823,0.912-1.475,1.211c0.847,0.195,1.504,0.601,1.973,1.216s0.703,1.385,0.703,2.31c0,1.25-0.456,2.31-1.367,3.179
				s-2.063,1.304-3.456,1.304c-1.257,0-2.3-0.375-3.129-1.123C1115.111,182.379,1114.637,181.409,1114.52,180.217z"/>
		</g>
		<g enable-background="new    ">
			<path fill="#464747" d="M1124.09,177.469c0-0.613,0.154-1.135,0.463-1.564s0.756-0.645,1.341-0.645
				c0.539,0,0.985,0.192,1.339,0.577s0.53,0.95,0.53,1.696c0,0.727-0.179,1.286-0.536,1.679s-0.798,0.589-1.321,0.589
				c-0.519,0-0.951-0.193-1.297-0.58S1124.09,178.25,1124.09,177.469z M1125.923,175.987c-0.261,0-0.479,0.113-0.652,0.34
				s-0.261,0.643-0.261,1.248c0,0.551,0.088,0.938,0.264,1.163s0.393,0.337,0.649,0.337c0.266,0,0.485-0.113,0.659-0.34
				s0.261-0.641,0.261-1.242c0-0.555-0.088-0.944-0.264-1.169S1126.185,175.987,1125.923,175.987z M1125.929,184.313l4.699-9.053
				h0.854l-4.681,9.053H1125.929z M1129.644,181.981c0-0.617,0.154-1.14,0.463-1.567c0.308-0.428,0.757-0.642,1.347-0.642
				c0.539,0,0.985,0.192,1.339,0.577s0.53,0.95,0.53,1.696c0,0.727-0.179,1.286-0.536,1.679s-0.8,0.589-1.327,0.589
				c-0.52,0-0.951-0.194-1.297-0.583S1129.644,182.758,1129.644,181.981z M1131.483,180.499c-0.266,0-0.485,0.113-0.659,0.34
				s-0.26,0.643-0.26,1.248c0,0.547,0.088,0.934,0.263,1.16c0.176,0.227,0.393,0.34,0.65,0.34c0.27,0,0.491-0.113,0.665-0.34
				s0.261-0.641,0.261-1.242c0-0.555-0.088-0.944-0.264-1.169S1131.744,180.499,1131.483,180.499z"/>
		</g>
	</g>
	<g>
		<g enable-background="new    ">
			<path fill="#464747" d="M6.04,181.204v1.014H0.363c-0.008-0.254,0.033-0.498,0.123-0.732c0.145-0.387,0.376-0.768,0.694-1.143
				c0.318-0.375,0.778-0.809,1.379-1.301c0.934-0.766,1.564-1.372,1.892-1.819s0.492-0.87,0.492-1.269
				c0-0.418-0.149-0.771-0.448-1.058s-0.688-0.431-1.168-0.431c-0.508,0-0.914,0.152-1.219,0.457s-0.459,0.727-0.463,1.266
				l-1.083-0.111c0.074-0.809,0.354-1.425,0.837-1.849c0.484-0.424,1.135-0.636,1.951-0.636c0.824,0,1.476,0.229,1.957,0.686
				s0.721,1.023,0.721,1.699c0,0.344-0.07,0.682-0.211,1.014s-0.374,0.682-0.7,1.049s-0.868,0.871-1.625,1.512
				c-0.633,0.531-1.039,0.892-1.219,1.081s-0.328,0.38-0.445,0.571H6.04z"/>
			<path fill="#464747" d="M7.17,177.981c0-1.016,0.104-1.833,0.313-2.452c0.208-0.619,0.519-1.097,0.931-1.433
				s0.931-0.504,1.556-0.504c0.46,0,0.865,0.093,1.212,0.278s0.635,0.453,0.861,0.803s0.404,0.775,0.533,1.277
				s0.193,1.179,0.193,2.03c0,1.008-0.104,1.821-0.311,2.44c-0.207,0.619-0.517,1.098-0.929,1.436s-0.933,0.507-1.561,0.507
				c-0.828,0-1.479-0.297-1.951-0.891C7.453,180.758,7.17,179.594,7.17,177.981z M8.254,177.981c0,1.41,0.165,2.349,0.495,2.815
				s0.737,0.7,1.222,0.7c0.484,0,0.891-0.234,1.221-0.703s0.495-1.406,0.495-2.813c0-1.414-0.165-2.354-0.495-2.818
				s-0.741-0.697-1.233-0.697c-0.484,0-0.871,0.205-1.16,0.615C8.435,175.604,8.254,176.571,8.254,177.981z"/>
			<path fill="#464747" d="M17.815,182.217H16.76v-6.721c-0.254,0.242-0.587,0.484-0.999,0.727s-0.782,0.424-1.11,0.545v-1.02
				c0.59-0.277,1.105-0.613,1.547-1.008s0.753-0.777,0.937-1.148h0.68V182.217z"/>
			<path fill="#464747" d="M20.586,174.752v-1.014h5.559v0.82c-0.546,0.582-1.088,1.355-1.625,2.32s-0.952,1.957-1.245,2.977
				c-0.211,0.719-0.346,1.506-0.404,2.361h-1.084c0.012-0.676,0.145-1.492,0.398-2.449s0.618-1.88,1.093-2.769
				c0.474-0.889,0.979-1.638,1.514-2.247H20.586z"/>
		</g>
	</g>
	<rect x="55.152" y="261.854" fill="#EE2A7B" width="1159.521" height="55.391"/>
	<g>
		<g enable-background="new    ">
			<path fill="#464747" d="M1235.533,292.307v1.689h-9.461c-0.014-0.424,0.055-0.83,0.205-1.221c0.24-0.645,0.626-1.279,1.157-1.904
				c0.53-0.625,1.297-1.348,2.299-2.168c1.556-1.275,2.607-2.287,3.153-3.032c0.547-0.745,0.82-1.45,0.82-2.114
				c0-0.697-0.249-1.284-0.747-1.763c-0.497-0.479-1.146-0.718-1.947-0.718c-0.847,0-1.523,0.254-2.031,0.762
				s-0.765,1.211-0.771,2.109l-1.806-0.186c0.123-1.348,0.589-2.375,1.396-3.081c0.807-0.706,1.891-1.06,3.251-1.06
				c1.373,0,2.46,0.381,3.261,1.143s1.201,1.705,1.201,2.832c0,0.572-0.117,1.137-0.352,1.689s-0.623,1.137-1.167,1.748
				c-0.543,0.611-1.446,1.451-2.709,2.52c-1.055,0.885-1.731,1.486-2.031,1.802c-0.299,0.315-0.547,0.634-0.742,0.952H1235.533z"/>
			<path fill="#464747" d="M1247.537,283.186l-1.748,0.137c-0.156-0.689-0.377-1.191-0.664-1.504
				c-0.475-0.502-1.061-0.752-1.757-0.752c-0.561,0-1.052,0.156-1.475,0.469c-0.553,0.404-0.989,0.992-1.309,1.768
				c-0.318,0.775-0.484,1.879-0.498,3.311c0.424-0.645,0.941-1.123,1.553-1.436c0.612-0.313,1.253-0.469,1.924-0.469
				c1.172,0,2.169,0.432,2.992,1.294s1.235,1.978,1.235,3.345c0,0.898-0.193,1.733-0.581,2.505s-0.92,1.362-1.597,1.772
				s-1.444,0.615-2.304,0.615c-1.465,0-2.659-0.539-3.583-1.616c-0.925-1.077-1.387-2.853-1.387-5.327
				c0-2.768,0.511-4.779,1.533-6.035c0.892-1.094,2.092-1.641,3.603-1.641c1.126,0,2.049,0.316,2.768,0.947
				C1246.963,281.2,1247.394,282.073,1247.537,283.186z M1240.361,289.358c0,0.605,0.129,1.186,0.386,1.738
				c0.258,0.553,0.617,0.975,1.079,1.265s0.947,0.435,1.455,0.435c0.742,0,1.38-0.299,1.913-0.898
				c0.534-0.6,0.801-1.412,0.801-2.441c0-0.99-0.264-1.77-0.791-2.339c-0.526-0.569-1.19-0.854-1.991-0.854
				c-0.794,0-1.468,0.285-2.021,0.854C1240.638,287.686,1240.361,288.434,1240.361,289.358z"/>
			<path fill="#464747" d="M1251.525,293.997v-2.002h2.001v2.002H1251.525z"/>
			<path fill="#464747" d="M1266.33,292.307v1.689h-9.461c-0.014-0.424,0.055-0.83,0.205-1.221c0.24-0.645,0.626-1.279,1.157-1.904
				c0.53-0.625,1.297-1.348,2.299-2.168c1.556-1.275,2.607-2.287,3.153-3.032c0.547-0.745,0.82-1.45,0.82-2.114
				c0-0.697-0.249-1.284-0.747-1.763c-0.497-0.479-1.146-0.718-1.947-0.718c-0.847,0-1.523,0.254-2.031,0.762
				s-0.765,1.211-0.771,2.109l-1.806-0.186c0.123-1.348,0.589-2.375,1.396-3.081c0.807-0.706,1.891-1.06,3.251-1.06
				c1.373,0,2.46,0.381,3.261,1.143s1.201,1.705,1.201,2.832c0,0.572-0.117,1.137-0.352,1.689s-0.623,1.137-1.167,1.748
				c-0.543,0.611-1.446,1.451-2.709,2.52c-1.055,0.885-1.731,1.486-2.031,1.802c-0.299,0.315-0.547,0.634-0.742,0.952H1266.33z"/>
		</g>
		<g enable-background="new    ">
			<path fill="#464747" d="M1266.674,287.469c0-0.613,0.154-1.135,0.463-1.564s0.756-0.645,1.341-0.645
				c0.539,0,0.985,0.192,1.339,0.577s0.53,0.95,0.53,1.696c0,0.727-0.179,1.286-0.536,1.679s-0.798,0.589-1.321,0.589
				c-0.519,0-0.951-0.193-1.297-0.58S1266.674,288.25,1266.674,287.469z M1268.507,285.987c-0.261,0-0.479,0.113-0.652,0.34
				s-0.261,0.643-0.261,1.248c0,0.551,0.088,0.938,0.264,1.163s0.393,0.337,0.649,0.337c0.266,0,0.485-0.113,0.659-0.34
				s0.261-0.641,0.261-1.242c0-0.555-0.088-0.944-0.264-1.169S1268.769,285.987,1268.507,285.987z M1268.513,294.313l4.699-9.053
				h0.854l-4.681,9.053H1268.513z M1272.228,291.981c0-0.617,0.154-1.14,0.463-1.567c0.308-0.428,0.757-0.642,1.347-0.642
				c0.539,0,0.985,0.192,1.339,0.577s0.53,0.95,0.53,1.696c0,0.727-0.179,1.286-0.536,1.679s-0.8,0.589-1.327,0.589
				c-0.52,0-0.951-0.194-1.297-0.583S1272.228,292.758,1272.228,291.981z M1274.067,290.499c-0.266,0-0.485,0.113-0.659,0.34
				s-0.26,0.643-0.26,1.248c0,0.547,0.088,0.934,0.263,1.16c0.176,0.227,0.393,0.34,0.65,0.34c0.27,0,0.491-0.113,0.665-0.34
				s0.261-0.641,0.261-1.242c0-0.555-0.088-0.944-0.264-1.169S1274.328,290.499,1274.067,290.499z"/>
		</g>
	</g>
	<g>
		<g enable-background="new    ">
			<path fill="#464747" d="M6.04,291.204v1.014H0.363c-0.008-0.254,0.033-0.498,0.123-0.732c0.145-0.387,0.376-0.768,0.694-1.143
				c0.318-0.375,0.778-0.809,1.379-1.301c0.934-0.766,1.564-1.372,1.892-1.819s0.492-0.87,0.492-1.269
				c0-0.418-0.149-0.771-0.448-1.058s-0.688-0.431-1.168-0.431c-0.508,0-0.914,0.152-1.219,0.457s-0.459,0.727-0.463,1.266
				l-1.083-0.111c0.074-0.809,0.354-1.425,0.837-1.849c0.484-0.424,1.135-0.636,1.951-0.636c0.824,0,1.476,0.229,1.957,0.686
				s0.721,1.023,0.721,1.699c0,0.344-0.07,0.682-0.211,1.014s-0.374,0.682-0.7,1.049s-0.868,0.871-1.625,1.512
				c-0.633,0.531-1.039,0.892-1.219,1.081s-0.328,0.38-0.445,0.571H6.04z"/>
			<path fill="#464747" d="M7.17,287.981c0-1.016,0.104-1.833,0.313-2.452c0.208-0.619,0.519-1.097,0.931-1.433
				s0.931-0.504,1.556-0.504c0.46,0,0.865,0.093,1.212,0.278s0.635,0.453,0.861,0.803s0.404,0.775,0.533,1.277
				s0.193,1.179,0.193,2.03c0,1.008-0.104,1.821-0.311,2.44c-0.207,0.619-0.517,1.098-0.929,1.436s-0.933,0.507-1.561,0.507
				c-0.828,0-1.479-0.297-1.951-0.891C7.453,290.758,7.17,289.594,7.17,287.981z M8.254,287.981c0,1.41,0.165,2.349,0.495,2.815
				s0.737,0.7,1.222,0.7c0.484,0,0.891-0.234,1.221-0.703s0.495-1.406,0.495-2.813c0-1.414-0.165-2.354-0.495-2.818
				s-0.741-0.697-1.233-0.697c-0.484,0-0.871,0.205-1.16,0.615C8.435,285.604,8.254,286.571,8.254,287.981z"/>
			<path fill="#464747" d="M17.815,292.217H16.76v-6.721c-0.254,0.242-0.587,0.484-0.999,0.727s-0.782,0.424-1.11,0.545v-1.02
				c0.59-0.277,1.105-0.613,1.547-1.008s0.753-0.777,0.937-1.148h0.68V292.217z"/>
			<path fill="#464747" d="M25.987,285.731l-1.049,0.082c-0.094-0.414-0.227-0.715-0.398-0.902
				c-0.285-0.301-0.637-0.451-1.054-0.451c-0.336,0-0.631,0.094-0.885,0.281c-0.332,0.242-0.594,0.596-0.785,1.061
				s-0.291,1.127-0.299,1.986c0.254-0.387,0.564-0.674,0.932-0.861s0.752-0.281,1.154-0.281c0.703,0,1.301,0.259,1.795,0.776
				s0.741,1.187,0.741,2.007c0,0.539-0.116,1.04-0.348,1.503c-0.232,0.463-0.552,0.817-0.958,1.063s-0.867,0.369-1.382,0.369
				c-0.879,0-1.596-0.323-2.15-0.97c-0.554-0.646-0.832-1.712-0.832-3.196c0-1.66,0.307-2.867,0.919-3.621
				c0.535-0.656,1.256-0.984,2.162-0.984c0.675,0,1.229,0.189,1.661,0.568S25.901,285.063,25.987,285.731z M21.681,289.434
				c0,0.363,0.077,0.711,0.231,1.043s0.37,0.585,0.647,0.759s0.568,0.261,0.873,0.261c0.445,0,0.828-0.18,1.148-0.539
				s0.48-0.848,0.48-1.465c0-0.594-0.158-1.062-0.475-1.403s-0.715-0.513-1.195-0.513c-0.477,0-0.881,0.171-1.213,0.513
				S21.681,288.879,21.681,289.434z"/>
		</g>
	</g>
</g>
<g id="Layer_2">
</g>
</svg>
