<?xml version="1.0" encoding="utf-8"?>
<!-- Generator: Adobe Illustrator 16.0.0, SVG Export Plug-In . SVG Version: 6.00 Build 0)  -->
<!DOCTYPE svg PUBLIC "-//W3C//DTD SVG 1.1//EN" "http://www.w3.org/Graphics/SVG/1.1/DTD/svg11.dtd">
<svg version="1.1" xmlns="http://www.w3.org/2000/svg" xmlns:xlink="http://www.w3.org/1999/xlink" x="0px" y="0px"
	 width="582.231px" height="402.395px" viewBox="0 0 582.231 402.395" enable-background="new 0 0 582.231 402.395"
	 xml:space="preserve">
<g id="Layer_1">
	<g id="jam_admbnda_adm1_1_">
		<path fill="#FF88C9" stroke="#3B4042" stroke-miterlimit="10" d="M372.275-480.418l0.323-0.626l0.215-0.537l1.54-3.634
			l17.383-41.085l-11.654-10.778l6.444-12.315l24.849-23.021l0.071-0.02l68.1-22.234l0.126-0.053l83.459,10.152l0.054-0.037
			l2.113,53.188l0.161,1.396l1.808,6.946l19.818,69.765l0.823,4.51l13.839,81.83h-0.215v-0.159h-1.164v0.159h-0.823v-0.159h-0.161
			v0.159h-0.179v-0.159h-0.484v0.159h-0.663v-0.159h-0.501v0.159h-0.985v0.162h-0.178v0.162h-1.647v-0.162h-0.662v0.162h-0.161
			v0.178h-0.501v0.162h-0.161v-0.162h-0.18v0.162h-0.322v0.161h-0.663v0.162h-0.984v0.16h-0.501v0.179h-0.34v0.161h-0.984v0.162
			h-0.323v0.179h-0.34v0.16h-0.34v0.163h-0.823v0.16h-1.486v0.161h-1.325v0.179h-0.662v0.162h-0.322v0.16h-0.34v0.161h-1.147v0.18
			h-0.34v0.161h-0.501v0.161h-0.483v0.161h-0.824v0.18h-0.34v2.148h-0.502v-0.341h-0.321v-0.662h-0.163v-0.663h-0.179v-0.161h-0.161
			v-0.16h-0.161v-0.161h0.161v-0.502h-0.161v-0.161h-0.501v-0.18h-0.663v-0.161h-0.483v-0.16h-1.002v-0.162h-0.502v0.162h-0.161
			v-0.162h-0.16v0.162h-0.163v-0.162h-0.178v-0.179h-0.823v0.179h-0.162v-0.179h-0.323v-0.161h-0.501v-0.16h-0.663v-0.163h-0.16
			v-0.16h-0.34v-0.179h-0.323v-0.162h-0.661v0.162h-0.162v-0.162h-0.179v0.162h-0.483v0.179h-0.34v-0.179h-0.34v-0.162h-0.323
			v-0.161h-0.161v0.161h-1.002v-0.161h-0.161v0.161h-0.823v0.162h-0.34v0.179h-0.483v0.16h-0.663v0.163h-0.34v0.16h-1.146v-0.16
			h-0.662v-0.163h-0.662v-0.16h-0.501v-0.179h-0.341v-0.162h-0.16v-0.161h-0.322v0.161h-0.161v-0.161h-1.164v0.161h-0.662v0.162
			h-0.501v0.179h-0.322v0.16h-0.663v0.163h-0.18v-0.163h-1.145v-0.16h-0.341v0.16h-0.661v0.163h-0.323v0.16h-0.34v-0.16h-0.483v0.16
			h-0.34v0.161h-0.323v0.179h-0.663v0.162h-0.179v-0.162h-0.322v0.162h-1.146v0.16h-0.681v0.161h-0.322v0.18h-0.501v0.161h-0.483
			v0.161h-0.34v0.161h-0.323v0.18h-0.34v0.161h-0.16v0.16h-0.34v0.161h-0.323v0.18h-0.161v0.161h-0.341v0.16h-0.482v0.163h-0.502
			v-0.163h-0.662v0.163h-0.34v0.179h-0.483v-0.179h-0.34v0.179h-0.662v-0.179h-0.502v-0.163h-0.483v-0.16h-1.003v-0.161h-0.322
			v0.161h-0.663v0.16h-0.34v-0.16h-1.486v-0.161h-1.146v0.161h-0.34v-0.161h-0.823v-0.18h-0.662v-0.161h-1.164v-0.16h-1.646v-0.161
			h-1.002v-0.18h-0.163v-0.161h-0.161v-0.161h-0.34v-0.161h-0.483v-0.18h-1.002v-0.161h-0.161v-0.16h-0.323v-0.162h-0.34v-0.179
			h-0.323v-0.161h-1.163v-0.16h-1.002v0.16h-0.322v0.161h-0.322v-0.161h-1.164v0.161h-0.502v0.179h-0.322v0.162h-0.662v0.16h-0.502
			v0.161h-0.322v0.18h-0.663v0.161h-0.178v0.161h-0.323v0.161h-0.161v0.18h-0.662v0.161h-0.502v0.16h-0.662v0.161h-0.984v-0.161
			h-0.841v0.161h-0.663v0.341h-0.644v-0.161h-0.663v0.161h-1.164v-0.161h-0.34v-0.18h-0.824v0.18h-0.663v0.161h-1.324v-0.161h-0.322
			v0.161h-0.341v0.16h-0.321v0.163h-0.34v0.179h-0.322v0.159h-0.161v0.163h-0.341v0.161h-0.322v0.162h-0.34v0.179h-0.323v0.161
			h-0.34v0.161h-0.662v0.161h-0.824v0.179h-0.662v0.161h-0.824v0.162h-0.662v0.161h-0.663v0.179h-0.502v0.162h-0.661v0.159h-0.483
			v0.162h-0.502v0.179h-0.501v0.162h-0.663v0.161h-0.482v0.16h-1.343v-0.16h-0.161v-0.323h-0.16v-0.341h-0.163v-0.5h0.163v-0.484
			h0.16v-1.485h-0.16v-0.501h0.16v-0.662h0.34v-0.161h0.161v-0.18h0.34v-0.161h0.162v-0.161h0.322v-0.161h0.179v-0.18h-0.179v-0.483
			h-0.161v-0.34h-0.162v-0.322h-0.162v-0.339h-0.34v-0.162h-0.34v-0.161h-0.321v-0.179h-0.503v-0.16h-0.322v-0.162h-0.501v-0.161
			h-0.322v-0.162h-0.5v-0.178h-0.323v-0.162h-0.501v-0.162h-1.486v-0.159h-0.179v-0.18h-0.322v-0.161h-0.5v-0.163H491.7v-0.16h-0.34
			v-0.179h-0.321v-0.161h-0.502v-0.16h-0.322v-0.162h-0.179v-0.18h-0.16v-0.161h-0.163v-0.161h-0.16v-0.162h-0.162v-0.339h-0.179
			v-0.825h-1.485v-0.16h-0.16v-0.161h-0.342v-0.18h-0.161v-0.16h-0.5v-0.162h-0.323v-0.824h0.323v-0.178h-0.323v-0.161h-0.34v-0.161
			h-0.322v-0.16h-0.161v-0.179h-0.34v-0.162h-0.322v-0.162h-0.34v-0.161h-0.501v-0.161h-0.323v-0.339h-0.161v-0.986h-0.18v-0.339
			h-0.16v-0.663h-0.323v-0.161h-0.162v-0.161h-0.339v-0.179h-0.323v0.179h-1.002v0.161h-0.824v-0.161h-0.322v-0.179h-0.341v-0.161
			h-0.34v-0.161h-0.161v-0.161h-0.484v-0.178h-0.34v-0.162h-0.161v-0.322h-0.161v-0.163h-0.34v-0.176h-0.162v-0.163h-1.164v-0.161
			h-0.161v-0.162h-0.161v-0.179h-0.162v-0.322h-0.178v-0.34h-0.162v-0.16h-0.161v-0.162h-0.162v-0.162h-0.178v-0.179h-0.322v-0.161
			h-0.161v-0.16h-0.663v-0.163h-0.179v-0.178h-0.321v-0.162h-0.323v-0.161h-0.179v-0.162h-0.322v-0.179h-0.662v-0.162h-0.18v-0.16
			h-0.323v-0.162h-0.161v-0.161h-0.161v-0.179h-0.179v-0.323h-0.162v-0.16h-0.161v-0.34h-0.161v-0.324h-0.179v-0.339h-0.161v-0.162
			h-1.146v-0.16h-0.34v-0.341h-0.161v-0.161h-0.341v-0.16h-0.322v-0.179h-0.162v-0.162h-0.178v-0.984h-0.161v-0.161h-0.162v-0.341
			h-0.161v-0.161h-0.18v-0.341h-0.16v-0.321h-0.484v-0.161h-0.179v-0.501h-0.161v-0.501h-0.161v-0.162h-0.18v-0.161h-0.161v-0.179
			h-0.161v-0.162h-0.161v-0.16h-0.18v-0.322h-0.161v-0.503h-0.161v-0.34h-0.16v-0.16h-0.161v-0.162h-0.18v-0.501h-0.162v-1.163
			h0.162v-1.146h0.18v-0.341h0.161v-0.323h0.16v-0.339h0.161v-0.161h-0.161v-0.323h-0.16v-1.325h0.16v-0.662h-0.16v-0.502h-0.161
			v-0.321h-0.342v-1.666h-0.161v-0.323h-0.162v-0.5h-0.178v-0.323h-0.162v-0.178h-0.161v-0.162h-0.501v-0.161h-0.823v-0.16h-0.502
			v-0.18h-0.161v-0.161h-0.161v-0.161h-0.162v-0.341h-0.178v-0.16h-0.323v-0.162h-0.179v-0.161h-0.322v-0.18h-0.323v-0.159h-0.179
			v-0.323h-0.322v-0.18h-0.161v-0.161h-0.34v-0.162h-0.162v-0.16h-0.341v-0.162h-0.321v-0.18h-1.988v-0.16h-0.161v-0.161h-0.34
			v-0.163h-0.161v-0.178h-0.483v-0.162h-0.502v-0.161h-0.34v-0.162h-0.501v-0.178h-0.322v-0.161h-0.323v-0.162h-0.339v-0.161h-0.824
			v-0.179h-0.161v-0.162h-0.18v-0.16h-0.16v-0.162h-0.664v-0.18h-0.321v-0.161h-0.163v-0.323h-0.179v-0.177h-0.161v-0.323h-0.161
			v-0.161H448.7v-0.18h-0.18v-0.161h-0.322v-0.161h-0.663v-0.16h-0.161v-0.161h-0.179v-0.339h-0.161v-0.163h-0.163v-0.34h-0.16
			v-0.161h-0.18v-0.162h-0.321v-0.34h-0.162v-0.161h-0.501v-0.161h-1.485v-0.162h-0.501v-0.179h-0.322v-0.163h-0.501v-0.161h-0.163
			v-0.159h-0.178v-0.181h-0.162v-0.163h-0.161v-0.161h-0.16v-0.16h-0.162v-0.159h-0.34v-0.181h-0.663v-0.162h-0.501v-0.16h-0.162
			v-0.161h-0.501v-0.18h-0.161v-0.322h0.161v-0.161h0.179v-0.177h0.663v-0.163h0.161v-0.16h0.161v-0.162h0.161v-0.501h0.162v-0.339
			h0.178v-1.81h0.162v-0.5h0.161v-0.823h0.179v-0.34h0.162v-0.162h0.16v-0.161h0.161v-0.503h-0.161v-0.661h-0.16v-1.146h-0.162
			v-0.179h-0.179v-0.16h-0.161v-0.323h-0.162v-0.5h-0.178v-0.164h-0.162v-0.338h-0.161v-0.323h-0.161v-0.339h-0.161v-0.484h-0.341
			v-0.18h-0.161v-0.662h-0.161v-0.824h0.161v-0.16h0.161v-0.162h-0.161v-0.663h-0.161v-0.841h-0.179V-428h-0.161v-0.502h-0.162
			v-0.501h-0.16v-0.322h-0.18v-0.34h-0.322v-0.161h-0.162v-0.663h0.162v-0.34h0.161v-0.16h0.161v-0.162h0.18v-0.662h0.16v-0.984
			h0.162v-1.164h-0.162v-0.823h0.162v-0.179h0.34v-0.644h0.161v-0.34h0.161v-0.162h0.162v-0.34h0.179v-0.16h0.161v-0.162h0.161
			v-0.338h0.161v-0.163h0.34v-0.161h0.162v-0.163h0.161v-0.177h0.179v-0.324h0.162v-0.5h0.16v-0.162h0.161v-0.16h0.162v-0.502h0.178
			v-0.322h0.163v-0.179h0.161v-0.663h0.161v-0.482h0.34v-0.34h0.162v-0.662h0.161v-0.503h0.179v-0.662h0.322v-0.482h0.162v-0.662
			h-0.162v-0.161h0.162v-0.662v-0.179h-0.162v-1.146h-0.161v-0.662h-0.161v-0.163h-0.179v-0.842h-0.161v-0.32H443.4v-0.665h-0.161
			v-0.339h-0.18v-0.162h-0.161v-0.483h-0.161v-0.341h-0.163v-0.159h-0.178v-0.162h-0.162v-0.34h-0.161v-0.162h-0.16v-0.159h-0.162
			v-0.181h-0.179v-0.321h-0.161v-0.339h-0.162v-0.324h-0.178v-0.162h-0.162v-0.179h-0.322v-0.321h-0.161v-0.161h-0.179v-0.179
			h-0.162v-0.162h-0.161v-0.323h-0.34v-0.5h-0.161v-0.162h-0.162v-0.16h-0.16v-0.18h-0.18v-0.16h-0.161v-0.323h-0.161v-0.18h-0.34
			v-0.161h-0.483v-0.16h-0.162v-0.161h-0.34v-0.341h-0.161v-0.162h-0.501v-0.159h-0.341v-0.181h-0.16v-0.16h-0.322v-0.162h-0.162
			v-0.162h-0.178v-0.179h-0.161v-0.161h-0.161v-0.161h-0.663v-0.162h-0.161v-0.161h-0.341v-0.179h-0.161v-0.161h-0.161v-0.161
			h-0.179v-0.163h-0.161v-0.178h-0.162v-0.16h-0.501v-0.162h-0.322v-0.161h-0.341v-0.179h-0.482v-0.161h-0.18v-0.161h-0.161v-0.162
			h-0.161v-0.177h-1.164v0.177h-0.323v0.162h-1.325v-0.162h-0.501v-0.177h-0.323v-0.162h-0.179v0.162h-0.661v-0.162h-0.162v-0.161
			h-0.662v0.161h-0.663v-0.161h-0.323v-0.161h-0.34v-0.179h-0.984v-0.161h-1.163v-0.161h-0.162v-1.003H421.9v-0.161h-0.179v-0.161
			h-0.162v-0.162h-1.325v-0.161h-0.161v-0.339h-0.16v-0.162h-0.163v-0.162h-0.841v-0.179h-1.648v-0.161h-0.321v-0.162h-0.18v-0.161
			h-0.16v-0.34h-0.163v-0.824h-0.161v0.163h-0.179v-0.163h-0.322v-0.16h-0.501v-0.162h-0.662v-0.18h-0.161v0.18h-0.824v0.162h-0.161
			v0.16h-0.18v0.163h-0.161v0.16h-0.162v0.34h-0.16v0.662h-0.18v0.162h-0.161v1.002h-0.322v0.161h-1.002v-1.325h-0.322v-0.501
			h-0.179v-0.161h-0.161v-0.34h-0.162v-0.16h-0.161v-0.163h-0.18v-0.16h-0.16v-0.162h-0.824v-0.18h-0.323v-0.161h-1.001v-0.162h-0.5
			v-0.159h-0.484v-0.181h-0.5v-0.16h-1.487v0.16h-0.161v0.181h-0.662v-0.181h-0.501v0.181h-0.34v0.159h-0.823v0.162h-0.323v-0.162
			h-0.34v0.162h-0.483v0.161h-0.179v0.18h-0.662v0.162h-0.823v0.16h-0.484v0.163h-0.501v0.338h-0.18v0.322h-0.161v0.161h-0.16v0.34
			h-0.162v1.325h-0.34v0.162h-0.161v0.5h-0.824v-0.179h-0.34v-0.161h-0.322v-0.323H395.1v0.162h-0.161v0.161h-0.161v-0.161h-0.18
			v-0.323h-0.823v0.161h-0.823v-0.161h-0.824v0.161h-0.663v0.162h-0.34v0.161h-0.323v0.161h-0.34v0.179h-0.162v-0.179h-0.662v-0.161
			h-0.161v-0.161h-0.502v-0.162h-0.161v-0.161h-0.501v-0.18h-0.483v0.18h-0.179v-0.339h-0.162v-0.323h-0.16v-0.179h-0.664v0.179
			h-0.34v0.482h-0.984v0.18h-0.161v-0.18h-0.841v-0.159h-0.161v-0.162h-0.162v-0.162h-0.34v-0.179h-1.307v-0.161h-0.179v-0.162
			h-0.322v-0.161h-0.179v-0.179h-0.161v-0.161h-0.161v-0.322h-0.323v-1.002h0.162v-0.482h-0.162v-0.341h-0.34v-0.161h-0.662v-0.162
			h-0.162v0.162h-0.663v0.161h-0.161v0.16h-0.34v0.181h-0.161v0.159h-0.162v0.162h-0.161v0.161h-0.501v-0.323h-0.161v-0.34h-0.179
			v-0.66h-0.161v-1.487h-0.161v-1.326h-0.161v-0.322h-0.179v-0.502h-0.161v-0.321h-0.162v-0.341h-0.16v-0.501h-0.163v-0.16h-0.177
			v-0.323h-0.161v-0.34h-0.162v-0.16h-0.161v-0.162h-0.34v-0.161h-0.161v-0.179h-0.179v-0.161h-0.161v-0.161h-0.162v-0.161h-0.161
			v-0.18h-0.341v-0.161h-0.161v-0.322h-0.161v-0.34h-0.162v-0.16h-0.178v-0.341h-0.163v-0.324h-0.16v-0.5h-0.161v-0.322h-0.179
			v-0.34h-0.161v-1.325h-0.162v-0.985h0.162v-0.16h-0.162V-480.418z M492.362,84.137v0.341h0.161v0.823h0.162v0.825h-0.162v0.177
			h-0.322v-0.177h-0.179v-0.484h-0.161v-0.34H491.7V85.14h-0.161v-0.824h0.161v-0.179H492.362z M473.01,100.679v1.002h-0.161v0.16
			h-0.179v0.164h-0.161v0.179h-0.663v-0.343h-0.34v-0.16h-0.161v-0.161h-0.162v-0.177h-0.161v-0.484h0.322v-0.179h0.341v0.179h0.823
			v-0.179H473.01z"/>
	</g>
	<g>
		<g>
			<g>
				<path fill="#464747" d="M219.054,395.451h-0.024l-1.355,0.731l-0.204-0.803l1.703-0.912h0.9v7.796h-1.02V395.451z"/>
				<path fill="#464747" d="M228.938,398.282c0,2.65-0.983,4.113-2.71,4.113c-1.523,0-2.555-1.427-2.579-4.006
					c0-2.614,1.127-4.054,2.71-4.054C228.003,394.335,228.938,395.798,228.938,398.282z M224.705,398.401
					c0,2.027,0.624,3.179,1.583,3.179c1.08,0,1.595-1.26,1.595-3.25c0-1.919-0.492-3.179-1.583-3.179
					C225.376,395.151,224.705,396.279,224.705,398.401z"/>
			</g>
		</g>
		<g>
			<g>
				<path fill="#464747" d="M394.097,402.263v-0.647l0.828-0.804c1.991-1.895,2.891-2.902,2.902-4.078
					c0-0.791-0.384-1.522-1.547-1.522c-0.708,0-1.295,0.359-1.655,0.659l-0.336-0.743c0.54-0.456,1.308-0.792,2.207-0.792
					c1.679,0,2.387,1.151,2.387,2.267c0,1.439-1.043,2.603-2.687,4.186l-0.624,0.576v0.023h3.502v0.876H394.097z"/>
				<path fill="#464747" d="M406.272,398.282c0,2.65-0.983,4.113-2.71,4.113c-1.523,0-2.555-1.427-2.579-4.006
					c0-2.614,1.127-4.054,2.71-4.054C405.337,394.335,406.272,395.798,406.272,398.282z M402.039,398.401
					c0,2.027,0.624,3.179,1.583,3.179c1.08,0,1.595-1.26,1.595-3.25c0-1.919-0.492-3.179-1.583-3.179
					C402.71,395.151,402.039,396.279,402.039,398.401z"/>
			</g>
		</g>
		<g>
			<g>
				<path fill="#464747" d="M570.308,401.052c0.3,0.191,0.996,0.491,1.727,0.491c1.355,0,1.775-0.863,1.763-1.511
					c-0.012-1.092-0.996-1.56-2.015-1.56h-0.587v-0.791h0.587c0.768,0,1.739-0.396,1.739-1.319c0-0.624-0.396-1.176-1.367-1.176
					c-0.624,0-1.224,0.276-1.559,0.516l-0.276-0.768c0.408-0.3,1.199-0.6,2.039-0.6c1.535,0,2.231,0.911,2.231,1.859
					c0,0.804-0.48,1.487-1.439,1.835v0.023c0.959,0.192,1.739,0.912,1.739,2.003c0,1.248-0.972,2.339-2.842,2.339
					c-0.875,0-1.643-0.275-2.027-0.527L570.308,401.052z"/>
				<path fill="#464747" d="M582.231,398.282c0,2.65-0.983,4.113-2.71,4.113c-1.523,0-2.555-1.427-2.579-4.006
					c0-2.614,1.127-4.054,2.71-4.054C581.296,394.335,582.231,395.798,582.231,398.282z M577.998,398.401
					c0,2.027,0.624,3.179,1.583,3.179c1.08,0,1.595-1.26,1.595-3.25c0-1.919-0.492-3.179-1.583-3.179
					C578.669,395.151,577.998,396.279,577.998,398.401z"/>
			</g>
		</g>
		<g>
			<g>
				
					<line fill="none" stroke="#AAAAAD" stroke-width="0.5" stroke-miterlimit="10" x1="399.353" y1="380.141" x2="399.353" y2="379.141"/>
				
					<line fill="none" stroke="#AAAAAD" stroke-width="0.5" stroke-miterlimit="10" stroke-dasharray="1.9798,1.9798,1.9798,1.9798" x1="399.353" y1="377.162" x2="399.353" y2="370.232"/>
				
					<line fill="none" stroke="#AAAAAD" stroke-width="0.5" stroke-miterlimit="10" stroke-dasharray="1.9798,1.9798,1.9798,1.9798,1.9798,1.9798" x1="399.353" y1="369.243" x2="399.353" y2="1.99"/>
				<line fill="none" stroke="#AAAAAD" stroke-width="0.5" stroke-miterlimit="10" x1="399.353" y1="1" x2="399.353" y2="0"/>
			</g>
		</g>
		<g>
			<g>
				
					<line fill="none" stroke="#AAAAAD" stroke-width="0.5" stroke-miterlimit="10" x1="44.38" y1="380.141" x2="44.38" y2="379.141"/>
				
					<line fill="none" stroke="#AAAAAD" stroke-width="0.5" stroke-miterlimit="10" stroke-dasharray="1.9798,1.9798,1.9798,1.9798" x1="44.38" y1="377.162" x2="44.38" y2="370.232"/>
				
					<line fill="none" stroke="#AAAAAD" stroke-width="0.5" stroke-miterlimit="10" stroke-dasharray="1.9798,1.9798,1.9798,1.9798,1.9798,1.9798" x1="44.38" y1="369.243" x2="44.38" y2="1.991"/>
				<line fill="none" stroke="#AAAAAD" stroke-width="0.5" stroke-miterlimit="10" x1="44.38" y1="1" x2="44.38" y2="0"/>
			</g>
		</g>
		<g>
			<g>
				
					<line fill="none" stroke="#AAAAAD" stroke-width="0.5" stroke-miterlimit="10" x1="220.817" y1="380.141" x2="220.817" y2="379.141"/>
				
					<line fill="none" stroke="#AAAAAD" stroke-width="0.5" stroke-miterlimit="10" stroke-dasharray="1.9798,1.9798,1.9798,1.9798" x1="220.817" y1="377.162" x2="220.817" y2="370.232"/>
				
					<line fill="none" stroke="#AAAAAD" stroke-width="0.5" stroke-miterlimit="10" stroke-dasharray="1.9798,1.9798,1.9798,1.9798,1.9798,1.9798" x1="220.817" y1="369.243" x2="220.817" y2="1.99"/>
				<line fill="none" stroke="#AAAAAD" stroke-width="0.5" stroke-miterlimit="10" x1="220.817" y1="1" x2="220.817" y2="0"/>
			</g>
		</g>
		<g>
			<g>
				
					<line fill="none" stroke="#AAAAAD" stroke-width="0.5" stroke-miterlimit="10" x1="577.889" y1="380.141" x2="577.889" y2="379.141"/>
				
					<line fill="none" stroke="#AAAAAD" stroke-width="0.5" stroke-miterlimit="10" stroke-dasharray="1.9798,1.9798,1.9798,1.9798" x1="577.889" y1="377.162" x2="577.889" y2="370.232"/>
				
					<line fill="none" stroke="#AAAAAD" stroke-width="0.5" stroke-miterlimit="10" stroke-dasharray="1.9798,1.9798,1.9798,1.9798,1.9798,1.9798" x1="577.889" y1="369.243" x2="577.889" y2="1.991"/>
				<line fill="none" stroke="#AAAAAD" stroke-width="0.5" stroke-miterlimit="10" x1="577.889" y1="1" x2="577.889" y2="0"/>
			</g>
		</g>
		<rect x="44.38" y="42.855" fill="#EE2A7B" width="53.707" height="55.392"/>
		<g>
			<g>
				<path fill="#464747" d="M127.116,69.021c0,4.421-1.64,6.862-4.521,6.862c-2.541,0-4.261-2.381-4.301-6.682
					c0-4.361,1.88-6.761,4.521-6.761C125.556,62.44,127.116,64.88,127.116,69.021z M120.054,69.221c0,3.381,1.041,5.301,2.641,5.301
					c1.8,0,2.661-2.101,2.661-5.421c0-3.201-0.82-5.301-2.641-5.301C121.175,63.8,120.054,65.68,120.054,69.221z"/>
				<path fill="#464747" d="M130.132,75.663v-1.08l1.38-1.34c3.321-3.161,4.821-4.841,4.841-6.802c0-1.32-0.64-2.541-2.581-2.541
					c-1.18,0-2.16,0.6-2.761,1.1l-0.56-1.24c0.9-0.76,2.18-1.32,3.681-1.32c2.8,0,3.98,1.92,3.98,3.781
					c0,2.4-1.74,4.341-4.481,6.981l-1.04,0.96v0.04h5.841v1.46H130.132z"/>
				<path fill="#464747" d="M141.93,74.622c0-0.74,0.5-1.26,1.2-1.26s1.18,0.52,1.18,1.26c0,0.72-0.46,1.26-1.2,1.26
					C142.41,75.883,141.93,75.343,141.93,74.622z"/>
				<path fill="#464747" d="M148.349,74.422c0.38,0.04,0.82,0,1.42-0.06c1.02-0.14,1.98-0.56,2.72-1.26
					c0.86-0.78,1.48-1.92,1.721-3.461h-0.06c-0.72,0.88-1.76,1.4-3.061,1.4c-2.34,0-3.841-1.76-3.841-3.981
					c0-2.461,1.781-4.621,4.441-4.621c2.66,0,4.301,2.16,4.301,5.481c0,2.861-0.96,4.861-2.24,6.101c-1,0.98-2.381,1.58-3.781,1.74
					c-0.64,0.1-1.2,0.12-1.62,0.1V74.422z M148.989,66.941c0,1.62,0.98,2.76,2.5,2.76c1.18,0,2.101-0.58,2.561-1.36
					c0.1-0.16,0.16-0.36,0.16-0.64c0-2.22-0.82-3.921-2.661-3.921C150.049,63.78,148.989,65.1,148.989,66.941z"/>
				<path fill="#464747" d="M162.14,70.062c0,1.643-0.863,2.459-1.871,2.459c-0.971,0-1.811-0.78-1.823-2.351
					c0-1.559,0.852-2.435,1.883-2.435C161.42,67.735,162.14,68.574,162.14,70.062z M159.285,70.134
					c-0.024,0.995,0.348,1.751,1.008,1.751c0.695,0,1.007-0.744,1.007-1.775c0-0.948-0.276-1.739-1.007-1.739
					C159.633,68.371,159.285,69.15,159.285,70.134z M160.197,75.794l4.582-8.06h0.672l-4.582,8.06H160.197z M167.213,73.288
					c0,1.643-0.863,2.459-1.859,2.459c-0.971,0-1.811-0.78-1.823-2.339c0-1.571,0.852-2.447,1.883-2.447
					C166.505,70.961,167.213,71.801,167.213,73.288z M164.358,73.36c-0.012,0.996,0.372,1.751,1.02,1.751
					c0.695,0,1.007-0.744,1.007-1.775c0-0.948-0.276-1.739-1.007-1.739C164.718,71.597,164.358,72.376,164.358,73.36z"/>
			</g>
		</g>
		<g>
			<g>
				<path fill="#464747" d="M0,76.398V75.75l0.827-0.803c1.991-1.895,2.891-2.902,2.902-4.078c0-0.792-0.384-1.523-1.547-1.523
					c-0.708,0-1.295,0.36-1.655,0.66l-0.336-0.744c0.54-0.456,1.308-0.792,2.207-0.792c1.679,0,2.387,1.151,2.387,2.267
					c0,1.439-1.043,2.603-2.687,4.186l-0.624,0.576v0.024h3.502v0.875H0z"/>
				<path fill="#464747" d="M12.176,72.416c0,2.651-0.984,4.114-2.711,4.114c-1.523,0-2.555-1.427-2.579-4.006
					c0-2.614,1.127-4.054,2.71-4.054C11.24,68.47,12.176,69.934,12.176,72.416z M7.942,72.536c0,2.027,0.624,3.178,1.583,3.178
					c1.08,0,1.595-1.259,1.595-3.25c0-1.919-0.492-3.178-1.583-3.178C8.613,69.286,7.942,70.413,7.942,72.536z"/>
				<path fill="#464747" d="M16.28,69.586h-0.024L14.9,70.317l-0.204-0.804l1.703-0.911h0.899v7.796h-1.02V69.586z"/>
				<path fill="#464747" d="M20.888,74.419c0-0.983,0.588-1.679,1.547-2.087l-0.012-0.036c-0.863-0.408-1.235-1.079-1.235-1.751
					c0-1.235,1.044-2.075,2.411-2.075c1.511,0,2.267,0.948,2.267,1.919c0,0.66-0.324,1.367-1.283,1.823v0.036
					c0.971,0.384,1.571,1.067,1.571,2.015c0,1.355-1.164,2.267-2.65,2.267C21.871,76.53,20.888,75.558,20.888,74.419z
					 M25.085,74.371c0-0.948-0.66-1.403-1.715-1.703c-0.912,0.264-1.403,0.864-1.403,1.607c-0.036,0.792,0.564,1.487,1.559,1.487
					C24.474,75.762,25.085,75.175,25.085,74.371z M22.183,70.473c0,0.78,0.587,1.199,1.487,1.439
					c0.671-0.228,1.187-0.708,1.187-1.415c0-0.624-0.372-1.271-1.319-1.271C22.663,69.226,22.183,69.802,22.183,70.473z"/>
			</g>
		</g>
		<rect x="42.494" y="151.855" fill="#EE2A7B" width="316.508" height="55.392"/>
		<g>
			<g>
				<path fill="#464747" d="M381.743,173.66v1.16l-5.662,11.843h-1.82l5.641-11.502v-0.04h-6.361v-1.46H381.743z"/>
				<path fill="#464747" d="M385.099,185.622c0-0.74,0.5-1.26,1.2-1.26s1.181,0.52,1.181,1.26c0,0.72-0.46,1.26-1.2,1.26
					C385.579,186.883,385.099,186.343,385.099,185.622z"/>
				<path fill="#464747" d="M399.14,180.021c0,4.421-1.641,6.862-4.521,6.862c-2.54,0-4.261-2.381-4.301-6.682
					c0-4.361,1.881-6.761,4.521-6.761C397.579,173.44,399.14,175.88,399.14,180.021z M392.078,180.221
					c0,3.381,1.04,5.301,2.641,5.301c1.8,0,2.66-2.101,2.66-5.421c0-3.201-0.82-5.301-2.641-5.301
					C393.198,174.8,392.078,176.68,392.078,180.221z"/>
				<path fill="#464747" d="M409.917,175.14h-4.961l-0.5,3.341c0.3-0.04,0.58-0.08,1.061-0.08c1,0,2,0.22,2.8,0.7
					c1.02,0.58,1.86,1.7,1.86,3.341c0,2.541-2.021,4.441-4.841,4.441c-1.42,0-2.62-0.4-3.24-0.8l0.44-1.34
					c0.54,0.32,1.6,0.72,2.781,0.72c1.66,0,3.081-1.08,3.081-2.821c-0.02-1.68-1.14-2.88-3.741-2.88c-0.74,0-1.32,0.08-1.801,0.14
					l0.84-6.241h6.221V175.14z"/>
				<path fill="#464747" d="M416.967,181.062c0,1.643-0.863,2.459-1.871,2.459c-0.971,0-1.811-0.78-1.823-2.351
					c0-1.559,0.852-2.435,1.883-2.435C416.247,178.735,416.967,179.574,416.967,181.062z M414.112,181.134
					c-0.024,0.995,0.348,1.751,1.008,1.751c0.695,0,1.007-0.744,1.007-1.775c0-0.948-0.276-1.739-1.007-1.739
					C414.46,179.371,414.112,180.15,414.112,181.134z M415.024,186.794l4.582-8.06h0.672l-4.582,8.06H415.024z M422.04,184.288
					c0,1.643-0.863,2.459-1.859,2.459c-0.971,0-1.811-0.78-1.823-2.339c0-1.571,0.852-2.447,1.883-2.447
					C421.333,181.961,422.04,182.801,422.04,184.288z M419.186,184.36c-0.012,0.996,0.372,1.751,1.02,1.751
					c0.695,0,1.007-0.744,1.007-1.775c0-0.948-0.276-1.739-1.007-1.739C419.545,182.597,419.186,183.376,419.186,184.36z"/>
			</g>
		</g>
		<g>
			<g>
				<path fill="#464747" d="M0,185.398v-0.648l0.827-0.803c1.991-1.895,2.891-2.902,2.902-4.078c0-0.792-0.384-1.523-1.547-1.523
					c-0.708,0-1.295,0.36-1.655,0.66l-0.336-0.744c0.54-0.456,1.308-0.792,2.207-0.792c1.679,0,2.387,1.151,2.387,2.267
					c0,1.439-1.043,2.603-2.687,4.186l-0.624,0.576v0.024h3.502v0.875H0z"/>
				<path fill="#464747" d="M12.176,181.416c0,2.651-0.984,4.114-2.711,4.114c-1.523,0-2.555-1.427-2.579-4.006
					c0-2.614,1.127-4.054,2.71-4.054C11.24,177.47,12.176,178.934,12.176,181.416z M7.942,181.536c0,2.027,0.624,3.178,1.583,3.178
					c1.08,0,1.595-1.259,1.595-3.25c0-1.919-0.492-3.178-1.583-3.178C8.613,178.286,7.942,179.413,7.942,181.536z"/>
				<path fill="#464747" d="M16.28,178.586h-0.024l-1.355,0.732l-0.204-0.804l1.703-0.911h0.899v7.796h-1.02V178.586z"/>
				<path fill="#464747" d="M26.045,177.602v0.696l-3.394,7.1H21.56l3.382-6.896v-0.024h-3.813v-0.875H26.045z"/>
			</g>
		</g>
		<rect x="42.496" y="261.855" fill="#EE2A7B" width="456.092" height="55.391"/>
		<g>
			<g>
				<path fill="#464747" d="M512.051,293.996v-1.08l1.381-1.34c3.32-3.161,4.821-4.841,4.841-6.802c0-1.32-0.64-2.541-2.581-2.541
					c-1.18,0-2.161,0.6-2.761,1.1l-0.56-1.24c0.9-0.76,2.181-1.32,3.681-1.32c2.801,0,3.981,1.92,3.981,3.781
					c0,2.4-1.74,4.341-4.481,6.981l-1.04,0.96v0.04h5.841v1.46H512.051z"/>
				<path fill="#464747" d="M531.13,282.234c-0.36-0.02-0.82,0-1.32,0.08c-2.76,0.46-4.221,2.481-4.521,4.621h0.06
					c0.62-0.82,1.701-1.5,3.141-1.5c2.3,0,3.921,1.66,3.921,4.201c0,2.38-1.621,4.581-4.321,4.581c-2.781,0-4.601-2.161-4.601-5.542
					c0-2.561,0.92-4.581,2.201-5.861c1.08-1.06,2.521-1.72,4.161-1.92c0.52-0.08,0.96-0.1,1.28-0.1V282.234z M530.63,289.735
					c0-1.861-1.06-2.981-2.681-2.981c-1.06,0-2.041,0.66-2.521,1.601c-0.12,0.2-0.2,0.46-0.2,0.78c0.04,2.14,1.02,3.721,2.861,3.721
					C529.61,292.856,530.63,291.596,530.63,289.735z"/>
				<path fill="#464747" d="M535.507,292.956c0-0.74,0.5-1.26,1.2-1.26s1.18,0.52,1.18,1.26c0,0.72-0.46,1.26-1.2,1.26
					C535.987,294.216,535.507,293.676,535.507,292.956z"/>
				<path fill="#464747" d="M540.905,293.996v-1.08l1.381-1.34c3.32-3.161,4.821-4.841,4.841-6.802c0-1.32-0.64-2.541-2.581-2.541
					c-1.18,0-2.161,0.6-2.761,1.1l-0.56-1.24c0.9-0.76,2.181-1.32,3.681-1.32c2.801,0,3.981,1.92,3.981,3.781
					c0,2.4-1.74,4.341-4.481,6.981l-1.04,0.96v0.04h5.841v1.46H540.905z"/>
				<path fill="#464747" d="M555.717,288.395c0,1.643-0.863,2.459-1.871,2.459c-0.971,0-1.811-0.78-1.823-2.351
					c0-1.559,0.852-2.435,1.883-2.435C554.997,286.068,555.717,286.908,555.717,288.395z M552.862,288.467
					c-0.024,0.995,0.348,1.751,1.008,1.751c0.695,0,1.007-0.744,1.007-1.775c0-0.948-0.276-1.739-1.007-1.739
					C553.21,286.704,552.862,287.484,552.862,288.467z M553.774,294.128l4.582-8.06h0.672l-4.582,8.06H553.774z M560.79,291.621
					c0,1.643-0.863,2.459-1.859,2.459c-0.971,0-1.811-0.78-1.823-2.339c0-1.571,0.852-2.447,1.883-2.447
					C560.083,289.295,560.79,290.134,560.79,291.621z M557.936,291.693c-0.012,0.996,0.372,1.751,1.02,1.751
					c0.695,0,1.007-0.744,1.007-1.775c0-0.948-0.276-1.739-1.007-1.739C558.295,289.93,557.936,290.71,557.936,291.693z"/>
			</g>
		</g>
		<g>
			<g>
				<path fill="#464747" d="M0,295.398v-0.648l0.827-0.803c1.991-1.895,2.891-2.902,2.902-4.078c0-0.792-0.384-1.523-1.547-1.523
					c-0.708,0-1.295,0.36-1.655,0.66l-0.336-0.744c0.54-0.456,1.308-0.792,2.207-0.792c1.679,0,2.387,1.151,2.387,2.267
					c0,1.439-1.043,2.603-2.687,4.186l-0.624,0.576v0.024h3.502v0.875H0z"/>
				<path fill="#464747" d="M12.176,291.416c0,2.651-0.984,4.114-2.711,4.114c-1.523,0-2.555-1.427-2.579-4.006
					c0-2.614,1.127-4.054,2.71-4.054C11.24,287.47,12.176,288.934,12.176,291.416z M7.942,291.536c0,2.027,0.624,3.178,1.583,3.178
					c1.08,0,1.595-1.259,1.595-3.25c0-1.919-0.492-3.178-1.583-3.178C8.613,288.286,7.942,289.413,7.942,291.536z"/>
				<path fill="#464747" d="M16.28,288.586h-0.024l-1.355,0.732l-0.204-0.804l1.703-0.911h0.899v7.796h-1.02V288.586z"/>
				<path fill="#464747" d="M25.434,288.346c-0.216-0.012-0.492,0-0.792,0.048c-1.655,0.276-2.53,1.487-2.71,2.771h0.036
					c0.372-0.492,1.02-0.9,1.883-0.9c1.379,0,2.351,0.996,2.351,2.519c0,1.427-0.972,2.746-2.591,2.746
					c-1.667,0-2.759-1.295-2.759-3.322c0-1.535,0.552-2.747,1.319-3.514c0.648-0.635,1.512-1.031,2.495-1.151
					c0.312-0.048,0.575-0.06,0.768-0.06V288.346z M25.134,292.843c0-1.115-0.636-1.787-1.607-1.787
					c-0.636,0-1.224,0.396-1.511,0.959c-0.072,0.12-0.12,0.276-0.12,0.468c0.023,1.283,0.611,2.231,1.715,2.231
					C24.522,294.714,25.134,293.959,25.134,292.843z"/>
			</g>
		</g>
	</g>
</g>
<g id="Layer_2">
</g>
</svg>
