<?xml version="1.0" encoding="utf-8"?>
<!-- Generator: Adobe Illustrator 16.0.0, SVG Export Plug-In . SVG Version: 6.00 Build 0)  -->
<!DOCTYPE svg PUBLIC "-//W3C//DTD SVG 1.1//EN" "http://www.w3.org/Graphics/SVG/1.1/DTD/svg11.dtd">
<svg version="1.1" id="Layer_1" xmlns="http://www.w3.org/2000/svg" xmlns:xlink="http://www.w3.org/1999/xlink" x="0px" y="0px"
	 width="41.439px" height="41.438px" viewBox="0 0 41.439 41.438" enable-background="new 0 0 41.439 41.438" xml:space="preserve">
<g>
	<g>
		<path fill="#525252" d="M17.766,1v25.22H1V1H17.766 M18.766,0H0v27.22h18.766V0L18.766,0z"/>
	</g>
	<g>
		<path fill="#525252" d="M40.439,15.721v24.717H23.673V15.721H40.439 M41.439,14.721H22.673v26.717h18.767V14.721L41.439,14.721z"
			/>
	</g>
	<g>
		<path fill="#525252" d="M40.438,1v8.815H23.672V1H40.438 M41.438,0H22.672v10.815h18.767V0L41.438,0z"/>
	</g>
	<g>
		<path fill="#525252" d="M17.766,32.127v8.311H1v-8.311H17.766 M18.766,31.127H0v10.311h18.766V31.127L18.766,31.127z"/>
	</g>
</g>
</svg>
