<?xml version="1.0" encoding="utf-8"?>
<!-- Generator: Adobe Illustrator 16.0.0, SVG Export Plug-In . SVG Version: 6.00 Build 0)  -->
<!DOCTYPE svg PUBLIC "-//W3C//DTD SVG 1.1//EN" "http://www.w3.org/Graphics/SVG/1.1/DTD/svg11.dtd">
<svg version="1.1" xmlns="http://www.w3.org/2000/svg" xmlns:xlink="http://www.w3.org/1999/xlink" x="0px" y="0px"
	 width="172.649px" height="158.7px" viewBox="0 0 172.649 158.7" enable-background="new 0 0 172.649 158.7" xml:space="preserve">
<g id="Layer_1">
	<g>
		<path fill="#FFFFFF" d="M80.24,117.313l-27.66,39.699c-1.242,1.779-3.693,2.215-5.469,0.97c-1.779-1.237-2.213-3.685-0.977-5.463
			l27.648-39.796c1.27-1.788,3.742-2.202,5.527-0.935C81.09,113.058,81.512,115.534,80.24,117.313z M126.121,152.518L60.096,57.751
			c-7.398-10.552-7.633-24.545-0.592-35.337l0.16-0.26c9.611-14.641,29.271-18.711,43.908-9.103
			c3.621,2.382,6.721,5.475,9.102,9.103l0.08,0.26c7.041,10.792,6.813,24.785-0.59,35.337L92.529,85.848
			c-1.242,1.78-0.803,4.222,0.975,5.465c1.777,1.239,4.229,0.807,5.465-0.972l0,0l19.635-28.09
			c9.229-13.092,9.582-30.472,0.902-43.924l-0.158-0.277C107.469-0.283,82.973-5.517,64.637,6.368
			c-4.676,3.025-8.656,7.006-11.686,11.683l-0.197,0.255c-8.672,13.443-8.318,30.795,0.885,43.882l66.023,94.823
			c1.242,1.784,3.693,2.226,5.48,0.981C126.922,156.75,127.359,154.299,126.121,152.518z"/>
		<g>
			<path fill="#FFFFFF" d="M42.035,112.863v-19.75c0-5.104-3.918-9.257-8.732-9.257c-0.129,0-0.248,0.036-0.377,0.042l6.904-23.732
				c2.1-7.238-0.398-14.982-6.225-19.287c-0.813-0.603-1.846-0.808-2.834-0.57c-0.994,0.249-1.832,0.94-2.285,1.885L2.357,96.751
				c-2.656,5.548-3.09,12.104-1.188,18.004l13.723,42.588h4.656L5.387,113.394C3.83,108.567,4.184,103.2,6.352,98.662l25.588-53.418
				c3.58,3.292,5.074,8.731,3.629,13.681L27.67,86.1c-1.881,1.702-3.1,4.194-3.1,7.013v36.093c0,1.228,0.99,2.212,2.217,2.212
				c1.221,0,2.215-0.984,2.215-2.212V93.113c0-2.659,1.932-4.83,4.301-4.83s4.301,2.17,4.301,4.83v20.69
				c0,0.622,0.262,1.217,0.723,1.642c10.018,9.115,9.143,34.588,8.668,41.898h4.449C51.969,149.293,52.719,123.719,42.035,112.863z"
				/>
		</g>
		<g>
			<path fill="#FFFFFF" d="M130.615,112.498V92.746c0-5.098,3.918-9.253,8.73-9.253c0.127,0,0.248,0.035,0.377,0.039l-6.902-23.732
				c-2.104-7.235,0.396-14.983,6.223-19.284c0.814-0.604,1.846-0.807,2.834-0.568c0.996,0.248,1.832,0.938,2.285,1.881
				l26.129,54.557c2.656,5.549,3.092,12.106,1.189,18.005l-13.721,42.588h-4.66l14.164-43.949
				c1.555-4.828,1.201-10.195-0.971-14.733l-25.584-53.418c-3.58,3.293-5.072,8.732-3.631,13.682l7.902,27.175
				c1.879,1.702,3.1,4.197,3.1,7.011v36.098c0,1.219-0.992,2.216-2.217,2.216s-2.217-0.998-2.217-2.216V92.746
				c0-2.655-1.93-4.829-4.301-4.829c-2.367,0-4.305,2.174-4.305,4.829v20.69c0,0.622-0.258,1.221-0.721,1.642
				c-10.014,9.121-9.139,34.593-8.664,41.9h-4.451C120.68,148.926,119.932,123.357,130.615,112.498z"/>
		</g>
	</g>
</g>
<g id="Layer_2">
</g>
</svg>
