<?xml version="1.0" encoding="utf-8"?>
<!-- Generator: Adobe Illustrator 16.0.0, SVG Export Plug-In . SVG Version: 6.00 Build 0)  -->
<!DOCTYPE svg PUBLIC "-//W3C//DTD SVG 1.1//EN" "http://www.w3.org/Graphics/SVG/1.1/DTD/svg11.dtd">
<svg version="1.1" id="Layer_1" xmlns="http://www.w3.org/2000/svg" xmlns:xlink="http://www.w3.org/1999/xlink" x="0px" y="0px"
	 width="27.92px" height="25.664px" viewBox="0 0 27.92 25.664" enable-background="new 0 0 27.92 25.664" xml:space="preserve">
<g>
	<g>
		<g>
			<path fill="#2DB674" d="M18.457,25.594h-7.446c-2.047,0-3.76-1.925-4.26-3.813L2.382,13.98c-0.426-0.455-0.66-1.043-0.66-1.668
				c0-0.653,0.253-1.265,0.714-1.726S3.51,9.873,4.162,9.873c0.652,0,1.264,0.253,1.725,0.714c0.022,0.023,0.044,0.048,0.061,0.073
				L6.602,11.6V5.264c0-1.345,1.094-2.439,2.438-2.439c0.502,0,0.969,0.151,1.356,0.412V2.554c0-1.346,1.095-2.44,2.44-2.44
				c1.346,0,2.44,1.095,2.44,2.44v0.141c0.387-0.26,0.854-0.412,1.355-0.412c1.346,0,2.439,1.094,2.439,2.439v0.684
				c0.388-0.259,0.854-0.413,1.355-0.413c1.345,0,2.44,1.096,2.44,2.44v13.209C22.867,22.981,20.98,25.594,18.457,25.594z
				 M4.162,10.957c-0.362,0-0.702,0.142-0.958,0.397c-0.256,0.257-0.397,0.597-0.397,0.959c0,0.362,0.141,0.702,0.397,0.958
				c0.036,0.034,0.066,0.074,0.089,0.118l4.439,7.925c0.023,0.041,0.041,0.086,0.052,0.134c0.367,1.473,1.704,3.063,3.227,3.063
				h7.446c1.872,0,3.325-2.08,3.325-3.869V7.433c0-0.747-0.607-1.355-1.355-1.355s-1.355,0.608-1.355,1.355
				c0,0.3-0.243,0.543-0.542,0.543c-0.3,0-0.543-0.243-0.543-0.543V4.722c0-0.748-0.608-1.355-1.354-1.355
				c-0.748,0-1.355,0.608-1.355,1.355c0,0.3-0.243,0.542-0.542,0.542s-0.542-0.242-0.542-0.542V2.554
				c0-0.749-0.607-1.356-1.355-1.356c-0.747,0-1.355,0.607-1.355,1.356v2.71c0,0.299-0.242,0.542-0.542,0.542
				s-0.542-0.243-0.542-0.542c0-0.747-0.608-1.354-1.356-1.354c-0.747,0-1.354,0.608-1.354,1.354v8.064
				c0,0.238-0.153,0.447-0.38,0.518C7.08,13.917,6.834,13.832,6.7,13.638l-1.612-2.315C4.835,11.086,4.509,10.957,4.162,10.957z"/>
		</g>
		<g>
			<path fill="#2DB674" d="M18.529,12.041c-0.3,0-0.543-0.243-0.543-0.542V7.433c0-0.3,0.243-0.542,0.543-0.542
				c0.299,0,0.542,0.242,0.542,0.542V11.5C19.072,11.798,18.829,12.041,18.529,12.041z"/>
		</g>
		<g>
			<path fill="#2DB674" d="M14.734,9.331c-0.299,0-0.542-0.243-0.542-0.542V4.722c0-0.3,0.243-0.542,0.542-0.542
				s0.542,0.241,0.542,0.542v4.067C15.276,9.087,15.033,9.331,14.734,9.331z"/>
		</g>
		<g>
			<path fill="#2DB674" d="M10.938,9.873c-0.3,0-0.542-0.243-0.542-0.542V5.264c0-0.299,0.243-0.542,0.542-0.542
				s0.542,0.243,0.542,0.542v4.067C11.48,9.628,11.238,9.873,10.938,9.873z"/>
		</g>
		<g>
			<g>
				<path fill="#2DB674" d="M14.662,20.683c-0.187,0-0.36-0.096-0.459-0.255c-0.262-0.42-0.631-0.868-0.989-1.301
					c-0.783-0.95-1.594-1.933-1.594-2.967c0-1.673,1.361-3.034,3.034-3.034c1.671,0,3.031,1.361,3.031,3.034
					c0,1.024-0.812,2.02-1.596,2.985c-0.366,0.449-0.71,0.874-0.966,1.283c-0.098,0.159-0.272,0.255-0.459,0.255
					C14.663,20.683,14.663,20.683,14.662,20.683z M14.653,14.209c-1.075,0-1.951,0.875-1.951,1.95c0,0.646,0.685,1.475,1.347,2.277
					c0.207,0.25,0.416,0.503,0.612,0.76c0.188-0.248,0.389-0.494,0.586-0.737c0.666-0.816,1.353-1.661,1.353-2.299
					C16.6,15.084,15.726,14.209,14.653,14.209z"/>
			</g>
			<g>
				<path fill="#2DB674" d="M13.048,22.766c-0.115,0-0.231-0.037-0.329-0.112c-0.239-0.182-0.283-0.522-0.101-0.761
					c0.191-0.249,0.397-0.501,0.599-0.743c0.356-0.433,0.724-0.878,0.985-1.296c0.1-0.159,0.273-0.254,0.459-0.254
					c0.001,0,0.001,0,0.001,0c0.187,0,0.36,0.096,0.459,0.255c0.251,0.404,0.594,0.824,0.957,1.27
					c0.197,0.242,0.402,0.494,0.592,0.745c0.182,0.238,0.134,0.579-0.104,0.761c-0.239,0.18-0.579,0.133-0.759-0.106
					c-0.18-0.235-0.378-0.479-0.571-0.714c-0.193-0.238-0.39-0.48-0.576-0.725c-0.196,0.255-0.403,0.506-0.608,0.754
					c-0.194,0.235-0.394,0.48-0.575,0.714C13.372,22.693,13.211,22.766,13.048,22.766z"/>
			</g>
		</g>
	</g>
</g>
</svg>
