<?xml version="1.0" encoding="utf-8"?>
<!-- Generator: Adobe Illustrator 16.0.0, SVG Export Plug-In . SVG Version: 6.00 Build 0)  -->
<!DOCTYPE svg PUBLIC "-//W3C//DTD SVG 1.1//EN" "http://www.w3.org/Graphics/SVG/1.1/DTD/svg11.dtd">
<svg version="1.1" xmlns="http://www.w3.org/2000/svg" xmlns:xlink="http://www.w3.org/1999/xlink" x="0px" y="0px"
	 width="47.229px" height="48.328px" viewBox="0 0 47.229 48.328" enable-background="new 0 0 47.229 48.328" xml:space="preserve">
<g id="Layer_1">
	
		<linearGradient id="SVGID_1_" gradientUnits="userSpaceOnUse" x1="-1268" y1="13587.418" x2="-1035.5704" y2="13260.5283" gradientTransform="matrix(1 0 0 -1 564 13743.1748)">
		<stop  offset="0" style="stop-color:#A90F2E"/>
		<stop  offset="0.1657" style="stop-color:#CD2749"/>
		<stop  offset="0.3099" style="stop-color:#E5385B"/>
		<stop  offset="0.3983" style="stop-color:#EE3E62"/>
		<stop  offset="0.4716" style="stop-color:#E7395D"/>
		<stop  offset="0.5803" style="stop-color:#D32B4D"/>
		<stop  offset="0.7104" style="stop-color:#B21535"/>
		<stop  offset="0.7415" style="stop-color:#A90F2E"/>
		<stop  offset="1" style="stop-color:#EE3E62"/>
	</linearGradient>
	<path fill="url(#SVGID_1_)" fill-opacity="0.05" d="M56.961,316.428c-44.85,14.28-91.311,22-137.18,22.79
		c-45.89,0.589-91.05-5.63-133.839-18.041c-21.42-6.08-42.17-14.02-62.32-23.01c-10.03-4.61-19.92-9.47-29.561-14.85
		c-9.689-5.25-19.16-10.91-28.399-16.9c-36.82-24.17-70.74-53.66-97.19-91.74c-13.14-19-24.3-40.459-30.75-64.915
		c-3.22-12.186-5.14-25.162-5.08-38.535c0.051-13.343,2.14-27.084,6.64-40.032c4.44-12.948,11.02-25.021,18.93-35.481
		c2.04-2.545,3.99-5.202,6.16-7.577c2.18-2.347,4.3-4.778,6.56-7.012l6.9-6.474c2.989-2.461,6.069-4.863,9.18-7.124
		c12.75-8.622,26.79-13.458,40.44-15.578c13.68-2.093,27.16-1.726,40.189,0.762c13,2.517,25.69,6.928,37.59,13.854
		c11.871,6.983,22.92,16.144,31.791,28.753c1.159,1.583,2.149,3.165,3.08,4.806l2.799,4.863c1.5,3.222,3.221,6.529,4.41,9.753
		c1.211,3.252,2.45,6.53,3.271,9.697l1.36,4.835l1.02,4.721c2.68,12.609,3.391,24.682,3.3,36.33
		c-0.25,23.323-3.95,45.122-8.98,66.244c-2.55,10.569-5.54,20.89-8.759,31.119c-3.311,10.181-6.961,20.221-10.91,30.11
		c-31.461,79.051-81.141,149.53-143.48,208.42c-31.2,29.4-65.79,55.7-103.07,78.2c-37.25,22.59-77.289,41.25-119.09,55.41
		c-41.85,13.97-85.35,23.89-129.41,28.95c-21.96,2.49-44.31,4.1-66.07,4.301l-16.45,0.37l-8.25,0.14l-8.34-0.28
		c-11.13-0.43-22.29-0.769-33.51-1.33l-34.061-3.45c-11.42-1.5-22.97-3.62-34.51-5.489l-4.32-0.731l-4.35-0.989l-8.73-2.041
		l-17.5-4.15c-5.85-1.56-11.73-3.509-17.58-5.29l-8.81-2.77c-2.94-0.9-5.88-1.841-8.82-3.021c-11.76-4.56-23.6-8.8-35.35-14.649
		c-11.79-5.261-23.55-11.93-35.246-18.859c-5.851-3.781-11.672-7.491-17.493-11.5l-8.732-6.5c-2.911-2.241-5.793-4.271-8.705-6.852
		l-8.704-7.489c-1.414-1.19-2.94-2.659-4.409-4.101l-4.438-4.32c-1.497-1.53-2.854-2.75-4.465-4.53l-4.663-5.141l-2.317-2.6
		l-2.714-3.34l-2.685-3.45l-0.678-0.88l-1.243-1.78l-2.459-3.64l174.28-107.94c-0.45-0.71-0.96-1.45-1.44-2.129l-0.729-1.011
		l-0.11-0.12c-0.17-0.17-0.34-0.34-0.51-0.48c-0.17-0.141-0.43-0.36-0.51-0.36l0.029,0.22c0,0.17,0,0.34,0,0.51
		c-0.09,0.141,0.31,0.62,0.45,0.932l0.56,1.08c0.17,0.37,0.311,0.73,0.711,1.189c0.649,0.87,1.27,1.75,1.89,2.681
		c0.51,0.91,1.5,1.869,2.319,2.86l2.49,2.989c1.89,1.98,4.07,3.96,6.07,6.051c4.61,3.909,9.189,8.119,14.84,11.85
		c5.141,4.069,11.42,7.46,17.41,11.199c1.47,0.961,3.08,1.781,4.75,2.57l4.91,2.46c3.31,1.61,6.5,3.42,9.95,4.969l10.63,4.391
		l5.34,2.229l2.66,1.13l2.82,0.931l11.34,3.79l5.68,1.92c1.89,0.649,3.78,1.33,5.79,1.76l23.94,6.19l24.92,4.75l6.279,1.21
		l6.44,0.819l12.91,1.641c17.38,2.58,34.26,3.569,51.409,4.13c17.101,0.541,34.2-0.061,51.271-1.38
		c17.07-1.33,34.11-3.57,50.979-6.87c33.74-6.65,66.98-16.971,99.021-31.021c32.021-14.08,62.69-32,91.46-53.04
		c28.74-21.06,55.53-45.34,79.66-72.229c24.17-26.83,45.76-56.32,63.17-87.811c8.5-15.829,16.13-32.089,21.84-48.657
		c5.77-16.511,9.7-33.475,10.74-49.362c0.51-7.916,0.199-15.55-0.9-22.165l-0.46-2.46l-0.59-2.262c-0.34-1.583-0.87-2.885-1.3-4.24
		c-0.42-1.414-1.07-2.404-1.52-3.676c-0.65-0.934-1.08-2.178-1.761-2.912c-2.46-3.365-6.55-7.323-11.64-10.036
		c-5.12-2.799-11.19-4.948-17.471-5.824c-6.239-0.905-12.66-0.82-18.279,0.424c-5.65,1.244-10.37,3.478-13.68,6.163
		c-0.73,0.763-1.471,1.47-2.261,2.092l-3.59,3.817c-1.16,1.3-2.149,2.658-3.25,3.931c-1.101,1.3-1.89,2.713-2.88,4.014
		c-3.59,5.399-6.11,10.97-7.55,16.709c-2.94,11.423-1.83,24.002,2.739,37.262c4.641,13.203,12.84,26.547,23.121,38.904
		c10.149,12.47,22.699,23.72,36.119,33.95c6.81,5.029,13.79,9.93,21.08,14.359c7.35,4.391,14.78,8.66,22.53,12.42
		c30.739,15.379,64.229,25.549,97.92,30.19c16.84,2.35,33.771,3.28,50.47,2.85c16.73-0.56,33.24-2.291,49.32-5.54
		c32.16-6.53,62.51-18.54,89.56-35.48L56.961,316.428z"/>
	<g>
		<path fill="#FF4E00" d="M32.893,38.019c0.036,0.119,0.066,0.196,0.121,0.308l4.308,8.824c0.363,0.745,1.111,1.178,1.89,1.178
			c0.309,0,0.623-0.068,0.92-0.212c1.042-0.509,1.474-1.766,0.966-2.81l-4.234-8.672l-0.801-2.677
			c-1.238,0.59-2.544,1.104-3.938,1.491L32.893,38.019z"/>
		<path fill="#FF4E00" d="M26.557,37.941l-4.267,6.979c-0.605,0.992-0.293,2.284,0.697,2.89c0.342,0.208,0.72,0.308,1.094,0.308
			c0.707,0,1.397-0.358,1.795-1.005l4.621-7.562c0.229-0.376,0.336-0.825,0.302-1.263l-0.268-2.878
			c-1.314,0.276-2.704,0.436-4.18,0.444L26.557,37.941z"/>
		<path fill="#FF4E00" d="M46.743,17.098c-4.377-1.803-8.719-3.336-12.573-4.527c-1.018,1.126-2.517,1.737-4.057,1.615
			c-0.846-0.066-1.667-0.356-2.374-0.835c-1.054-0.713-2.101-1.782-2.374-3.018c0,0,0.325,0,0.324,0
			c-1.682-0.341-3.018-0.533-4.045-0.536c-0.13,0-0.255,0.003-0.377,0.012c-0.003,0-0.006,0-0.009,0
			c-0.283,0.021-0.549,0.05-0.847,0.146l0.639,2.047l0.316,1.019l-0.905-0.566l-1.316-0.821c0.016,0.356,0.13,0.63,0.246,0.836
			c0.227,0.382,0.481,0.622,0.784,0.881c0.273,0.226,0.6,0.46,0.985,0.708c0.883,0.569,2.079,1.208,3.694,1.993
			c0.191,0.093,0.394,0.135,0.593,0.135c0.508,0,0.995-0.284,1.23-0.77c0.328-0.681,0.043-1.497-0.636-1.823v-0.002
			c-1.415-0.681-2.479-1.256-3.207-1.704l0.259-0.334c0.757,0.463,1.83,1.032,3.131,1.659c0.887,0.43,1.26,1.499,0.832,2.385
			c-0.296,0.614-0.929,1.011-1.609,1.011c-0.27,0-0.531-0.059-0.776-0.179c-0.194-0.095-0.382-0.188-0.566-0.279
			c-0.313,0.766-0.523,1.12-0.829,2.168l3.175,0.906c1.113,0.317,1.651,2.027,1.333,3.141c-0.258,0.898-1.088,1.666-2.019,1.666
			c-0.194,0-0.39-0.028-0.578-0.082l-2.956-0.843c-0.52,3-0.852,6.611-0.773,11.252c0.092,0.018,0.181,0.031,0.273,0.049
			c9.084,1.684,15.213-2.292,20.355-5.849c0.092-0.062,0.184-0.125,0.273-0.187c-3.126-2.042-4.99-4.218-6.072-6.26
			c-1.335-2.518-1.478-4.828-1.325-6.427c0.11,0.035,0.221,0.073,0.332,0.108c3.272,1.066,6.834,2.358,10.408,3.83
			c0.17,0.07,0.346,0.104,0.519,0.104c0.538,0,1.047-0.321,1.264-0.847C47.772,18.183,47.441,17.384,46.743,17.098z"/>
		<ellipse fill="#FF4E00" cx="30.596" cy="8.629" rx="4.515" ry="4.515"/>
		<path fill="#FF4E00" d="M10.485,5.863L9.658,5.202l1.059-0.045l2.438-0.103L12.337,2.66l-0.318-0.93l0.873,0.449l2.095,1.078
			L15.5,2.452c-0.624-1.135-1.709-2.011-3.07-2.327c-2.542-0.593-5.082,0.988-5.674,3.53c-0.592,2.541,0.989,5.083,3.531,5.673
			c0.28,0.066,0.561,0.104,0.839,0.119l1.624-1.78L10.485,5.863z"/>
		<path fill="#FF4E00" d="M11.291,13.155c0.08-0.555,0.372-1.046,0.822-1.382c0.365-0.272,0.801-0.418,1.256-0.418
			c0.096,0,0.19,0.008,0.284,0.022l0.185-1.316l-2.403,0.34c-0.957,0.613-1.804,1.642-2.269,3.158
			c-1.284,4.285-1.498,7.052-0.797,11.696c0.316,1.373,0.893,2.23,1.595,2.757l-1.127,6.073l-6.914,3.013
			c-1.33,0.58-1.938,2.128-1.358,3.458c0.431,0.987,1.396,1.575,2.408,1.575c0.352,0,0.707-0.068,1.049-0.218l6.846-2.984
			c-0.356,1.755-0.898,3.576-1.693,5.42c-0.575,1.332,0.039,2.876,1.372,3.452c0.338,0.145,0.691,0.214,1.038,0.214
			c1.017,0,1.983-0.594,2.412-1.588c2.075-4.813,2.707-9.476,2.707-13.367c-0.003-3.229-0.433-5.931-0.85-7.807
			c-0.234-1.604-0.19-2.777-0.027-4.452l-4.14-5.998C11.351,14.352,11.21,13.71,11.291,13.155z"/>
		<path fill="#FF4E00" d="M16.379,11.467l-1.236,0.854l1.566,2.096C16.893,13.399,16.767,12.33,16.379,11.467z"/>
		<path fill="#FF4E00" d="M24.977,23.078c0.146,0.042,0.292,0.06,0.436,0.06c0.689,0,1.325-0.452,1.523-1.148
			c0.241-0.843-0.247-1.719-1.088-1.961l-6.884-1.966l-3.896-5.216l-0.667,0.46l-0.7,0.482l0.118-0.841l0.115-0.825
			c-0.397-0.054-0.813,0.042-1.16,0.3c-0.702,0.525-0.847,1.519-0.321,2.22h-0.001l4.293,5.748c0.207,0.275,0.502,0.479,0.835,0.573
			L24.977,23.078z"/>
		<path fill="#FF4E00" d="M14.287,11.872l2.35-1.621l0.669,2.006l0.772-2.124l1.97,1.229L19.361,9.16l2.218-0.444l-1.911-1.155
			l1.687-2.044l-2.109-0.04l0.209-2.292l-2.009,1.403l-0.716-2.438l-1.375,2.15l-2.044-1.05l0.837,2.448l-2.512,0.108l2.197,1.752
			l-1.875,2.051l2.699-0.384L14.287,11.872z M14.549,8.464L13.96,8.55l0.429-0.47l0.558-0.61l-0.646-0.516l-0.59-0.469l0.469-0.021
			l1.015-0.045l-0.331-0.972l-0.225-0.655l0.372,0.19l0.609,0.313l0.37-0.578l0.48-0.753l0.246,0.841l0.298,1.015l0.859-0.602
			l0.676-0.471l-0.06,0.657l-0.075,0.824l0.816,0.016l0.527,0.01l-0.672,0.814l-0.569,0.689l0.764,0.462l0.216,0.131l-0.283,0.057
			l-0.829,0.165l0.254,0.818l0.074,0.237L18.476,9.48l-0.788-0.493l-0.32,0.878l-0.031,0.086l-0.301-0.904l-0.826,0.569
			l-0.932,0.644l0.129-0.927l0.141-1.01L14.549,8.464z"/>
	</g>
</g>
<g id="Layer_2">
</g>
</svg>
