<?xml version="1.0" encoding="utf-8"?>
<!-- Generator: Adobe Illustrator 16.0.0, SVG Export Plug-In . SVG Version: 6.00 Build 0)  -->
<!DOCTYPE svg PUBLIC "-//W3C//DTD SVG 1.1//EN" "http://www.w3.org/Graphics/SVG/1.1/DTD/svg11.dtd">
<svg version="1.1" xmlns="http://www.w3.org/2000/svg" xmlns:xlink="http://www.w3.org/1999/xlink" x="0px" y="0px"
	 width="47.229px" height="44.972px" viewBox="0 0 47.229 44.972" enable-background="new 0 0 47.229 44.972" xml:space="preserve">
<g id="Layer_1">
	
		<linearGradient id="SVGID_1_" gradientUnits="userSpaceOnUse" x1="-1268" y1="13584.0605" x2="-1035.5704" y2="13257.1709" gradientTransform="matrix(1 0 0 -1 564 13736.4619)">
		<stop  offset="0" style="stop-color:#A90F2E"/>
		<stop  offset="0.1657" style="stop-color:#CD2749"/>
		<stop  offset="0.3099" style="stop-color:#E5385B"/>
		<stop  offset="0.3983" style="stop-color:#EE3E62"/>
		<stop  offset="0.4716" style="stop-color:#E7395D"/>
		<stop  offset="0.5803" style="stop-color:#D32B4D"/>
		<stop  offset="0.7104" style="stop-color:#B21535"/>
		<stop  offset="0.7415" style="stop-color:#A90F2E"/>
		<stop  offset="1" style="stop-color:#EE3E62"/>
	</linearGradient>
	<path fill="url(#SVGID_1_)" fill-opacity="0.05" d="M56.961,313.071c-44.85,14.28-91.311,22-137.18,22.79
		c-45.89,0.589-91.05-5.63-133.839-18.041c-21.42-6.08-42.17-14.02-62.32-23.01c-10.03-4.61-19.92-9.47-29.561-14.85
		c-9.689-5.25-19.16-10.91-28.399-16.9c-36.82-24.17-70.74-53.66-97.19-91.74c-13.14-19-24.3-40.459-30.75-64.915
		c-3.22-12.186-5.14-25.162-5.08-38.535c0.051-13.343,2.14-27.084,6.64-40.032c4.44-12.948,11.02-25.021,18.93-35.481
		c2.04-2.545,3.99-5.202,6.16-7.577c2.18-2.347,4.3-4.778,6.56-7.012l6.9-6.474c2.989-2.461,6.069-4.863,9.18-7.124
		c12.75-8.622,26.79-13.458,40.44-15.578c13.68-2.093,27.16-1.726,40.189,0.762c13,2.517,25.69,6.928,37.59,13.854
		c11.871,6.983,22.92,16.144,31.791,28.753c1.159,1.583,2.149,3.165,3.08,4.806l2.799,4.863c1.5,3.222,3.221,6.529,4.41,9.753
		c1.211,3.252,2.45,6.53,3.271,9.697l1.36,4.835l1.02,4.721c2.68,12.609,3.391,24.682,3.3,36.33
		c-0.25,23.323-3.95,45.122-8.98,66.244c-2.55,10.569-5.54,20.89-8.759,31.119c-3.311,10.181-6.961,20.221-10.91,30.11
		c-31.461,79.051-81.141,149.53-143.48,208.42c-31.2,29.4-65.79,55.7-103.07,78.2c-37.25,22.59-77.289,41.25-119.09,55.41
		c-41.85,13.97-85.35,23.89-129.41,28.95c-21.96,2.49-44.31,4.1-66.07,4.301l-16.45,0.37l-8.25,0.14l-8.34-0.28
		c-11.13-0.43-22.29-0.769-33.51-1.33l-34.061-3.45c-11.42-1.5-22.97-3.62-34.51-5.489l-4.32-0.731l-4.35-0.989l-8.73-2.041
		l-17.5-4.15c-5.85-1.56-11.73-3.509-17.58-5.29l-8.81-2.77c-2.94-0.9-5.88-1.841-8.82-3.021c-11.76-4.56-23.6-8.8-35.35-14.649
		c-11.79-5.261-23.55-11.93-35.246-18.859c-5.851-3.781-11.672-7.491-17.493-11.5l-8.732-6.5c-2.911-2.241-5.793-4.271-8.705-6.852
		l-8.704-7.489c-1.414-1.19-2.94-2.659-4.409-4.101l-4.438-4.32c-1.497-1.53-2.854-2.75-4.465-4.53l-4.663-5.141l-2.317-2.6
		l-2.714-3.34l-2.685-3.45l-0.678-0.88l-1.243-1.78l-2.459-3.64l174.28-107.94c-0.45-0.71-0.96-1.45-1.44-2.129l-0.729-1.011
		l-0.11-0.12c-0.17-0.17-0.34-0.34-0.51-0.48c-0.17-0.141-0.43-0.36-0.51-0.36l0.029,0.22c0,0.17,0,0.34,0,0.51
		c-0.09,0.141,0.31,0.62,0.45,0.932l0.56,1.08c0.17,0.37,0.311,0.73,0.711,1.189c0.649,0.87,1.27,1.75,1.89,2.681
		c0.51,0.91,1.5,1.869,2.319,2.86l2.49,2.989c1.89,1.98,4.07,3.96,6.07,6.051c4.61,3.909,9.189,8.119,14.84,11.85
		c5.141,4.069,11.42,7.46,17.41,11.199c1.47,0.961,3.08,1.781,4.75,2.57l4.91,2.46c3.31,1.61,6.5,3.42,9.95,4.969l10.63,4.391
		l5.34,2.229l2.66,1.13l2.82,0.931l11.34,3.79l5.68,1.92c1.89,0.649,3.78,1.33,5.79,1.76l23.94,6.19l24.92,4.75l6.279,1.21
		l6.44,0.819l12.91,1.641c17.38,2.58,34.26,3.569,51.409,4.13c17.101,0.541,34.2-0.061,51.271-1.38
		c17.07-1.33,34.11-3.57,50.979-6.87c33.74-6.65,66.98-16.971,99.021-31.021c32.021-14.08,62.69-32,91.46-53.04
		c28.74-21.06,55.53-45.34,79.66-72.229c24.17-26.83,45.76-56.32,63.17-87.811c8.5-15.829,16.13-32.089,21.84-48.657
		c5.77-16.511,9.7-33.475,10.74-49.362c0.51-7.916,0.199-15.55-0.9-22.165l-0.46-2.46l-0.59-2.262c-0.34-1.583-0.87-2.885-1.3-4.24
		c-0.42-1.414-1.07-2.404-1.52-3.676c-0.65-0.934-1.08-2.178-1.761-2.912c-2.46-3.365-6.55-7.323-11.64-10.036
		c-5.12-2.799-11.19-4.948-17.471-5.824c-6.239-0.905-12.66-0.82-18.279,0.424c-5.65,1.244-10.37,3.478-13.68,6.163
		c-0.73,0.763-1.471,1.47-2.261,2.092l-3.59,3.817c-1.16,1.3-2.149,2.658-3.25,3.931c-1.101,1.3-1.89,2.713-2.88,4.014
		c-3.59,5.399-6.11,10.97-7.55,16.709c-2.94,11.423-1.83,24.002,2.739,37.262c4.641,13.203,12.84,26.547,23.121,38.904
		c10.149,12.47,22.699,23.72,36.119,33.95c6.81,5.029,13.79,9.93,21.08,14.359c7.35,4.391,14.78,8.66,22.53,12.42
		c30.739,15.379,64.229,25.549,97.92,30.19c16.84,2.35,33.771,3.28,50.47,2.85c16.73-0.56,33.24-2.291,49.32-5.54
		c32.16-6.53,62.51-18.54,89.56-35.48L56.961,313.071z"/>
	<g>
		<path fill="#EE2A7B" d="M21.96,33.725l-7.517,10.788c-0.338,0.483-1.004,0.602-1.486,0.265c-0.483-0.337-0.602-1.003-0.266-1.486
			l7.514-10.814c0.346-0.486,1.017-0.599,1.502-0.254C22.192,32.567,22.306,33.241,21.96,33.725z M34.429,43.292L16.486,17.538
			c-2.011-2.867-2.074-6.67-0.16-9.603l0.043-0.07c2.612-3.979,7.955-5.085,11.933-2.473c0.984,0.646,1.826,1.488,2.474,2.473
			l0.021,0.07c1.914,2.933,1.852,6.736-0.16,9.603L25.3,25.173c-0.338,0.484-0.219,1.148,0.265,1.486
			c0.483,0.337,1.149,0.22,1.485-0.264l0,0l5.336-7.634c2.508-3.557,2.604-8.28,0.245-11.936l-0.043-0.076
			C29.36,1.767,22.703,0.345,17.72,3.575c-1.271,0.822-2.353,1.904-3.176,3.174l-0.054,0.069c-2.356,3.653-2.261,8.37,0.24,11.926
			l17.942,25.769c0.338,0.484,1.004,0.605,1.489,0.266C34.647,44.442,34.766,43.775,34.429,43.292z"/>
		<g>
			<path fill="#EE2A7B" d="M11.579,32.515v-5.368c0-1.387-1.065-2.515-2.374-2.515c-0.035,0-0.067,0.009-0.102,0.011l1.876-6.449
				c0.57-1.967-0.108-4.072-1.691-5.241c-0.222-0.165-0.502-0.222-0.771-0.155c-0.271,0.068-0.498,0.255-0.621,0.512L0.795,28.137
				c-0.722,1.508-0.84,3.289-0.323,4.893l3.729,11.573h1.266L1.619,32.66c-0.423-1.312-0.327-2.771,0.263-4.005L8.834,14.14
				c0.973,0.895,1.379,2.373,0.986,3.718l-2.146,7.385c-0.511,0.461-0.843,1.141-0.843,1.905v9.809c0,0.333,0.27,0.602,0.603,0.602
				c0.332,0,0.603-0.268,0.603-0.602v-9.809c0-0.723,0.524-1.312,1.168-1.312c0.645,0,1.169,0.589,1.169,1.312v5.623
				c0,0.169,0.071,0.332,0.196,0.446c2.723,2.479,2.484,9.399,2.355,11.386h1.21C14.278,42.415,14.481,35.465,11.579,32.515z"/>
		</g>
		<g>
			<path fill="#EE2A7B" d="M35.65,32.416v-5.367c0-1.386,1.064-2.515,2.373-2.515c0.035,0,0.067,0.009,0.102,0.011l-1.875-6.45
				c-0.571-1.966,0.107-4.073,1.691-5.242c0.221-0.163,0.502-0.218,0.77-0.154c0.271,0.069,0.498,0.255,0.621,0.512l7.101,14.826
				c0.723,1.508,0.841,3.29,0.323,4.893l-3.729,11.575H41.76l3.85-11.944c0.423-1.313,0.326-2.771-0.264-4.004L38.393,14.04
				c-0.973,0.895-1.378,2.374-0.986,3.718l2.147,7.385c0.511,0.463,0.842,1.141,0.842,1.906v9.81c0,0.332-0.269,0.603-0.602,0.603
				s-0.603-0.271-0.603-0.603v-9.81c0-0.721-0.525-1.312-1.169-1.312c-0.644,0-1.17,0.59-1.17,1.312v5.623
				c0,0.169-0.07,0.332-0.196,0.446c-2.721,2.479-2.483,9.401-2.354,11.387h-1.209C32.951,42.316,32.747,35.367,35.65,32.416z"/>
		</g>
	</g>
</g>
<g id="Layer_2">
</g>
</svg>
