<?xml version="1.0" encoding="utf-8"?>
<!-- Generator: Adobe Illustrator 16.0.0, SVG Export Plug-In . SVG Version: 6.00 Build 0)  -->
<!DOCTYPE svg PUBLIC "-//W3C//DTD SVG 1.1//EN" "http://www.w3.org/Graphics/SVG/1.1/DTD/svg11.dtd">
<svg version="1.1" id="Layer_1" xmlns="http://www.w3.org/2000/svg" xmlns:xlink="http://www.w3.org/1999/xlink" x="0px" y="0px"
	 width="27.92px" height="25.664px" viewBox="0 0 27.92 25.664" enable-background="new 0 0 27.92 25.664" xml:space="preserve">
<g>
	<g>
		<path fill="#3A7ABE" d="M13.945,22.42c-6.986,0-13.156-8.738-13.415-9.109l-0.333-0.479l0.333-0.479
			c0.259-0.372,6.429-9.109,13.415-9.109c6.441,0,13.115,8.712,13.396,9.083l0.383,0.505l-0.383,0.506
			C27.06,13.708,20.386,22.42,13.945,22.42z M2.258,12.832c1.361,1.781,6.437,7.915,11.687,7.915c4.805,0,10.166-6.095,11.658-7.914
			c-1.493-1.819-6.86-7.914-11.658-7.914C8.686,4.918,3.619,11.051,2.258,12.832z"/>
	</g>
	<circle fill="#3A7ABE" cx="14.07" cy="12.935" r="6.594"/>
	<g>
		<defs>
			<circle id="SVGID_1_" cx="14.07" cy="12.935" r="6.594"/>
		</defs>
		<clipPath id="SVGID_2_">
			<use xlink:href="#SVGID_1_"  overflow="visible"/>
		</clipPath>
		<g clip-path="url(#SVGID_2_)">
			<path fill="#FFFFFF" d="M14.05,7.851h-0.003c-1.81,0-3.279,1.468-3.279,3.279c0,0.98,0.078,1.749,0.225,2.308h2.054
				c-0.843-0.379-1.434-1.483-1.449-2.464c-0.001-0.046-0.046-0.123-0.009-0.152c0.038-0.028,0.076-0.083,0.122-0.069
				c0.086,0.026,0.362,0.098,0.701,0.097c0.621-0.009,1.416-0.211,1.793-1.383c0.022-0.069,0.169-0.173,0.241-0.162
				c0.167-0.113,0.448,0.375,0.448,0.448c0,0,0,0.01,0.003,0.04c0.003,0.03-0.031-0.106-0.019-0.051
				c0.027,0.11,0.081,0.265,0.188,0.431c0.217,0.335,0.65,0.731,1.565,0.944c0.075,0.018,0.029,0.339,0.019,0.416
				c-0.127,0.838-0.86,1.568-1.607,1.904h2.059c0.148-0.559,0.225-1.327,0.225-2.308C17.329,9.318,15.859,7.851,14.05,7.851z
				 M15.874,11.684c-0.886-0.232-1.09-0.687-1.335-1.069c-0.063-0.097-0.098-0.066-0.133-0.154
				c-0.469,0.934-1.313,1.036-1.916,1.027c-0.232,0-0.062,0.027-0.208-0.003c0.114,1.082,0.765,1.499,1.876,1.497
				C15.193,12.984,15.665,12.657,15.874,11.684z"/>
			<g>
				<polygon fill="#FFFFFF" points="15.167,14.324 12.707,14.324 13.751,19.189 				"/>
				<path fill="#FFFFFF" d="M10.21,18.746c0.135,0.367,0.277,0.727,0.379,1.131c0.104-0.003,0.207-0.005,0.312-0.005
					c0.615,0,1.226,0.068,1.82,0.2c0.256-0.112,0.518-0.209,0.784-0.294c-0.557-0.556-1.944-1.978-2.385-2.796
					c-0.556-1.03-0.823-1.273-0.058-1.31c0.768-0.035,1.028-0.11,0.317-0.388c-0.71-0.278-0.783-0.156-0.206-0.621
					c0.188-0.152,0.323-0.255,0.437-0.339H9.993c0.037,0,0.071,0.006,0.105,0.007c-0.556,0.033-1.051,0.416-1.192,0.985
					l-1.734,5.421c0.849-0.414,1.767-0.688,2.71-0.803L10.21,18.746z"/>
				<path fill="#FFFFFF" d="M16.676,15.877c0.762,0.095,0.476,0.316-0.159,1.3c-0.358,0.556-1.324,1.576-2.097,2.361
					c0.549-0.111,1.109-0.169,1.674-0.169c0.46,0,0.917,0.039,1.368,0.115c0.083-0.238,0.182-0.461,0.287-0.687l0.232,0.787
					c1.075,0.247,2.096,0.7,3,1.336l-1.792-5.604c-0.133-0.54-0.585-0.913-1.105-0.978c-0.055-0.007-0.125-0.011-0.202-0.012
					c-0.003,0-0.008-0.001-0.013-0.001c-0.008,0-0.014,0-0.022,0H16.04c0.11,0.087,0.294,0.245,0.605,0.538
					c0.539,0.508,0.476,0.381-0.253,0.603C15.661,15.686,15.915,15.782,16.676,15.877z"/>
			</g>
		</g>
	</g>
</g>
</svg>
