<?xml version="1.0" encoding="utf-8"?>
<!-- Generator: Adobe Illustrator 16.0.0, SVG Export Plug-In . SVG Version: 6.00 Build 0)  -->
<!DOCTYPE svg PUBLIC "-//W3C//DTD SVG 1.1//EN" "http://www.w3.org/Graphics/SVG/1.1/DTD/svg11.dtd">
<svg version="1.1" xmlns="http://www.w3.org/2000/svg" xmlns:xlink="http://www.w3.org/1999/xlink" x="0px" y="0px"
	 width="47.229px" height="33px" viewBox="0 0 47.229 33" enable-background="new 0 0 47.229 33" xml:space="preserve">
<g id="Layer_1">
	
		<linearGradient id="SVGID_1_" gradientUnits="userSpaceOnUse" x1="-1268" y1="13579.7539" x2="-1035.5704" y2="13252.8643" gradientTransform="matrix(1 0 0 -1 564 13727.8467)">
		<stop  offset="0" style="stop-color:#A90F2E"/>
		<stop  offset="0.1657" style="stop-color:#CD2749"/>
		<stop  offset="0.3099" style="stop-color:#E5385B"/>
		<stop  offset="0.3983" style="stop-color:#EE3E62"/>
		<stop  offset="0.4716" style="stop-color:#E7395D"/>
		<stop  offset="0.5803" style="stop-color:#D32B4D"/>
		<stop  offset="0.7104" style="stop-color:#B21535"/>
		<stop  offset="0.7415" style="stop-color:#A90F2E"/>
		<stop  offset="1" style="stop-color:#EE3E62"/>
	</linearGradient>
	<path fill="url(#SVGID_1_)" fill-opacity="0.05" d="M56.961,308.764c-44.85,14.28-91.311,22-137.18,22.79
		c-45.89,0.589-91.05-5.63-133.839-18.041c-21.42-6.08-42.17-14.02-62.32-23.01c-10.03-4.61-19.92-9.47-29.561-14.85
		c-9.689-5.25-19.16-10.91-28.399-16.9c-36.82-24.17-70.74-53.66-97.19-91.74c-13.14-19-24.3-40.459-30.75-64.915
		c-3.22-12.186-5.14-25.162-5.08-38.535c0.051-13.343,2.14-27.084,6.64-40.032c4.44-12.948,11.02-25.021,18.93-35.481
		c2.04-2.545,3.99-5.202,6.16-7.577c2.18-2.347,4.3-4.778,6.56-7.012l6.9-6.474c2.989-2.461,6.069-4.863,9.18-7.124
		c12.75-8.622,26.79-13.458,40.44-15.578c13.68-2.093,27.16-1.726,40.189,0.762c13,2.517,25.69,6.928,37.59,13.854
		c11.871,6.983,22.92,16.144,31.791,28.753c1.159,1.583,2.149,3.165,3.08,4.806l2.799,4.863c1.5,3.222,3.221,6.529,4.41,9.753
		c1.211,3.252,2.45,6.53,3.271,9.697l1.36,4.835l1.02,4.721c2.68,12.609,3.391,24.682,3.3,36.33
		c-0.25,23.323-3.95,45.122-8.98,66.244c-2.55,10.569-5.54,20.89-8.759,31.119c-3.311,10.181-6.961,20.221-10.91,30.11
		c-31.461,79.051-81.141,149.53-143.48,208.42c-31.2,29.4-65.79,55.7-103.07,78.2c-37.25,22.59-77.289,41.25-119.09,55.41
		c-41.85,13.97-85.35,23.89-129.41,28.95c-21.96,2.49-44.31,4.1-66.07,4.301l-16.45,0.37l-8.25,0.14l-8.34-0.28
		c-11.13-0.43-22.29-0.769-33.51-1.33l-34.061-3.45c-11.42-1.5-22.97-3.62-34.51-5.489l-4.32-0.731l-4.35-0.989l-8.73-2.041
		l-17.5-4.15c-5.85-1.56-11.73-3.509-17.58-5.29l-8.81-2.77c-2.94-0.9-5.88-1.841-8.82-3.021c-11.76-4.56-23.6-8.8-35.35-14.649
		c-11.79-5.261-23.55-11.93-35.246-18.859c-5.851-3.781-11.672-7.491-17.493-11.5l-8.732-6.5c-2.911-2.241-5.793-4.271-8.705-6.852
		l-8.704-7.489c-1.414-1.19-2.94-2.659-4.409-4.101l-4.438-4.32c-1.497-1.53-2.854-2.75-4.465-4.53l-4.663-5.141l-2.317-2.6
		l-2.714-3.34l-2.685-3.45l-0.678-0.88l-1.243-1.78l-2.459-3.64l174.28-107.94c-0.45-0.71-0.96-1.45-1.44-2.129l-0.729-1.011
		l-0.11-0.12c-0.17-0.17-0.34-0.34-0.51-0.48c-0.17-0.141-0.43-0.36-0.51-0.36l0.029,0.22c0,0.17,0,0.34,0,0.51
		c-0.09,0.141,0.31,0.62,0.45,0.932l0.56,1.08c0.17,0.37,0.311,0.73,0.711,1.189c0.649,0.87,1.27,1.75,1.89,2.681
		c0.51,0.91,1.5,1.869,2.319,2.86l2.49,2.989c1.89,1.98,4.07,3.96,6.07,6.051c4.61,3.909,9.189,8.119,14.84,11.85
		c5.141,4.069,11.42,7.46,17.41,11.199c1.47,0.961,3.08,1.781,4.75,2.57l4.91,2.46c3.31,1.61,6.5,3.42,9.95,4.969l10.63,4.391
		l5.34,2.229l2.66,1.13l2.82,0.931l11.34,3.79l5.68,1.92c1.89,0.649,3.78,1.33,5.79,1.76l23.94,6.19l24.92,4.75l6.279,1.21
		l6.44,0.819l12.91,1.641c17.38,2.58,34.26,3.569,51.409,4.13c17.101,0.541,34.2-0.061,51.271-1.38
		c17.07-1.33,34.11-3.57,50.979-6.87c33.74-6.65,66.98-16.971,99.021-31.021c32.021-14.08,62.69-32,91.46-53.04
		c28.74-21.06,55.53-45.34,79.66-72.229c24.17-26.83,45.76-56.32,63.17-87.811c8.5-15.829,16.13-32.089,21.84-48.657
		c5.77-16.511,9.7-33.475,10.74-49.362c0.51-7.916,0.199-15.55-0.9-22.165l-0.46-2.46l-0.59-2.262c-0.34-1.583-0.87-2.885-1.3-4.24
		c-0.42-1.414-1.07-2.404-1.52-3.676c-0.65-0.934-1.08-2.178-1.761-2.912c-2.46-3.365-6.55-7.323-11.64-10.036
		c-5.12-2.799-11.19-4.948-17.471-5.824c-6.239-0.905-12.66-0.82-18.279,0.424c-5.65,1.244-10.37,3.478-13.68,6.163
		c-0.73,0.763-1.471,1.47-2.261,2.092l-3.59,3.817c-1.16,1.3-2.149,2.658-3.25,3.931c-1.101,1.3-1.89,2.713-2.88,4.014
		c-3.59,5.399-6.11,10.97-7.55,16.709c-2.94,11.423-1.83,24.002,2.739,37.262c4.641,13.203,12.84,26.547,23.121,38.904
		c10.149,12.47,22.699,23.72,36.119,33.95c6.81,5.029,13.79,9.93,21.08,14.359c7.35,4.391,14.78,8.66,22.53,12.42
		c30.739,15.379,64.229,25.549,97.92,30.19c16.84,2.35,33.771,3.28,50.47,2.85c16.73-0.56,33.24-2.291,49.32-5.54
		c32.16-6.53,62.51-18.54,89.56-35.48L56.961,308.764z"/>
	<g>
		<g>
			<path fill="#007FE8" d="M23.253,33C11.438,33,1.002,18.223,0.564,17.594L0,16.784l0.564-0.809
				C1.002,15.346,11.438,0.568,23.253,0.568c10.894,0,22.182,14.734,22.658,15.362l0.646,0.854l-0.646,0.856
				C45.435,18.267,34.146,33,23.253,33z M3.487,16.783C5.79,19.796,14.373,30.17,23.253,30.17c8.127,0,17.194-10.31,19.718-13.384
				C40.445,13.708,31.368,3.401,23.253,3.401C14.358,3.401,5.788,13.772,3.487,16.783z"/>
		</g>
		<circle fill="#007FE8" cx="23.464" cy="16.959" r="11.153"/>
		<g>
			<defs>
				<circle id="SVGID_17_" cx="23.464" cy="16.959" r="11.153"/>
			</defs>
			<clipPath id="SVGID_2_">
				<use xlink:href="#SVGID_17_"  overflow="visible"/>
			</clipPath>
			<g clip-path="url(#SVGID_2_)">
				<path fill="#FFFFFF" d="M23.431,8.359h-0.005c-3.061,0-5.545,2.484-5.545,5.547c0,1.658,0.13,2.958,0.379,3.903h3.476
					c-1.427-0.641-2.427-2.509-2.452-4.167c-0.001-0.08-0.077-0.208-0.014-0.257c0.063-0.049,0.129-0.141,0.205-0.116
					c0.146,0.042,0.612,0.164,1.186,0.164c1.051-0.016,2.395-0.359,3.033-2.339c0.039-0.118,0.287-0.293,0.409-0.274
					c0.282-0.192,0.758,0.633,0.758,0.758c0,0,0,0.017,0.005,0.066c0.005,0.049-0.053-0.179-0.032-0.085
					c0.045,0.186,0.136,0.447,0.319,0.728c0.368,0.567,1.101,1.238,2.648,1.597c0.127,0.03,0.049,0.575,0.03,0.705
					c-0.214,1.418-1.454,2.651-2.716,3.221h3.481c0.25-0.944,0.38-2.245,0.38-3.903C28.976,10.842,26.491,8.359,23.431,8.359z
					 M26.515,14.843c-1.5-0.393-1.844-1.162-2.258-1.807c-0.107-0.165-0.166-0.113-0.227-0.26c-0.793,1.579-2.22,1.751-3.239,1.737
					c-0.394,0-0.105,0.045-0.353-0.005c0.194,1.83,1.294,2.533,3.175,2.532C25.363,17.041,26.161,16.488,26.515,14.843z"/>
				<g>
					<polygon fill="#FFFFFF" points="25.319,19.308 21.159,19.308 22.926,27.536 					"/>
					<path fill="#FFFFFF" d="M16.937,26.788c0.229,0.621,0.468,1.229,0.642,1.914c0.174-0.007,0.35-0.01,0.526-0.01
						c1.041,0,2.074,0.116,3.079,0.339c0.434-0.19,0.875-0.355,1.325-0.499c-0.941-0.941-3.287-3.345-4.035-4.728
						c-0.94-1.743-1.392-2.154-0.097-2.216c1.297-0.059,1.738-0.186,0.535-0.656c-1.201-0.471-1.325-0.265-0.349-1.051
						c0.318-0.256,0.547-0.431,0.74-0.573h-2.736c0.063,0,0.121,0.009,0.179,0.012c-0.941,0.057-1.777,0.703-2.015,1.666
						l-2.933,9.169c1.436-0.701,2.988-1.163,4.584-1.359L16.937,26.788z"/>
					<path fill="#FFFFFF" d="M27.873,21.935c1.288,0.16,0.805,0.536-0.269,2.198c-0.605,0.94-2.239,2.667-3.546,3.993
						c0.928-0.188,1.875-0.286,2.832-0.286c0.78,0,1.552,0.065,2.313,0.193c0.141-0.402,0.307-0.778,0.484-1.161l0.394,1.331
						c1.817,0.418,3.545,1.184,5.074,2.259l-3.031-9.479c-0.225-0.912-0.99-1.543-1.869-1.651c-0.094-0.015-0.211-0.02-0.342-0.022
						c-0.007,0-0.014-0.001-0.022-0.001c-0.014,0-0.025,0-0.039,0h-3.056c0.186,0.147,0.497,0.414,1.023,0.908
						c0.911,0.858,0.804,0.645-0.429,1.021C26.155,21.612,26.585,21.772,27.873,21.935z"/>
				</g>
			</g>
		</g>
	</g>
</g>
<g id="Layer_2">
</g>
</svg>
