<?xml version="1.0" encoding="utf-8"?>
<!-- Generator: Adobe Illustrator 16.0.0, SVG Export Plug-In . SVG Version: 6.00 Build 0)  -->
<!DOCTYPE svg PUBLIC "-//W3C//DTD SVG 1.1//EN" "http://www.w3.org/Graphics/SVG/1.1/DTD/svg11.dtd">
<svg version="1.1" id="Layer_1" xmlns="http://www.w3.org/2000/svg" xmlns:xlink="http://www.w3.org/1999/xlink" x="0px" y="0px"
	 width="27.92px" height="25.664px" viewBox="0 0 27.92 25.664" enable-background="new 0 0 27.92 25.664" xml:space="preserve">
<g>
	<g>
		<path fill="#3497D3" d="M840.969,105.68h-19.518V79.754h19.518V105.68z M823.451,103.68h15.518V81.754h-15.518V103.68z"/>
	</g>
	<g>
		<path fill="#EE2E7C" d="M851.846,123.086h-30.395v-13.965h30.395V123.086z M823.451,121.086h26.395v-9.965h-26.395V121.086z"/>
	</g>
	<g>
		<path fill="#FBB041" d="M864.611,123.086h-9.758v-21.676h9.758V123.086z M856.854,121.086h5.758v-17.676h-5.758V121.086z"/>
	</g>
	<g>
		<path fill="#2DB674" d="M864.611,97.68h-19.518V79.754h19.518V97.68z M847.094,95.68h15.518V81.754h-15.518V95.68z"/>
	</g>
</g>
<g>
	<g>
		<path fill="#525252" d="M183.959,51.794v25.22h-16.766v-25.22H183.959 M184.959,50.794h-18.766v27.22h18.766V50.794
			L184.959,50.794z"/>
	</g>
	<g>
		<path fill="#525252" d="M206.633,66.515v24.717h-16.767V66.515H206.633 M207.633,65.515h-18.767v26.717h18.767V65.515
			L207.633,65.515z"/>
	</g>
	<g>
		<path fill="#525252" d="M206.632,51.794v8.815h-16.767v-8.815H206.632 M207.632,50.794h-18.767v10.815h18.767V50.794
			L207.632,50.794z"/>
	</g>
	<g>
		<path fill="#525252" d="M183.959,82.921v8.311h-16.766v-8.311H183.959 M184.959,81.921h-18.766v10.311h18.766V81.921
			L184.959,81.921z"/>
	</g>
</g>
<path fill="#525252" d="M209.009,5.639l-7.633,1.878l0.193-0.22c1.777-2.013,2.717-4.451,2.717-7.049
	c0-2.831-1.108-5.497-3.121-7.511c-1.946-1.946-4.556-3.018-7.35-3.018c-2.851,0-5.534,1.114-7.555,3.135
	c-3.098,3.099-3.977,7.993-2.138,11.902l0.042,0.094l-6.028,2.008c-0.204,0.14-0.298,0.298-0.298,0.5v21.561
	c0,0.119,0.072,0.264,0.194,0.392c0.108,0.053,0.206,0.1,0.296,0.1c0.055,0,0.08-0.001,0.11-0.032l0.036-0.022l10.291-3.449
	l0.033,0.016l10.283,4.563c0.032,0.032,0.131,0.032,0.169,0.032h0.106l9.896-2.329c0.244-0.048,0.395-0.237,0.395-0.492V6.134
	c0-0.175-0.064-0.305-0.192-0.39C209.342,5.636,209.144,5.594,209.009,5.639z M188.327,25.082l-0.063,0.021l-9.444,3.128V7.7
	l5.842-1.966l0.038,0.062c0.405,0.655,0.887,1.28,1.563,2.024l2.064,2.063V25.082z M198.815,29.294l-9.507-4.219V10.866l4.119,4.12
	c0.097,0.098,0.247,0.148,0.343,0.148c0.096,0,0.246-0.05,0.344-0.148l4.701-4.701V29.294z M193.771,13.956l-6.825-6.824
	c-0.692-0.692-1.263-1.467-1.648-2.24c-1.981-3.67-1.305-8.338,1.648-11.351c1.822-1.822,4.246-2.826,6.825-2.826
	c2.58,0,5.003,1.004,6.825,2.826c1.821,1.821,2.824,4.245,2.824,6.825c0,2.579-1.003,5.002-2.824,6.823L193.771,13.956z
	 M208.722,27.361l-8.924,2.083V9.302l0.337-0.336l0.024-0.006l8.563-2.127V27.361z"/>
<path fill="#525252" d="M151.908,51.467c-0.292-0.4-3.757-2.961-5.062-3.925c-0.651-0.482-1.144-0.845-1.396-1.04
	c-0.127-0.099-0.252-0.135-0.373-0.112c-0.114,0.023-0.234,0.103-0.319,0.213c-0.085,0.111-0.132,0.247-0.125,0.364
	c0.008,0.124,0.074,0.231,0.202,0.332l5.17,3.976h-16.888c-4.54,0-8.232,3.694-8.232,8.234c0,4.274,3.476,7.75,7.75,7.75h4.797
	c3.716,0,6.739,3.023,6.739,6.739c0,3.981-3.239,7.221-7.221,7.221h-9.923c-0.272-2.678-2.541-4.774-5.29-4.774
	c-2.931,0-5.316,2.385-5.316,5.316s2.385,5.316,5.316,5.316c2.774,0,5.055-2.135,5.293-4.848h9.919c4.54,0,8.233-3.694,8.233-8.234
	c0-4.272-3.477-7.75-7.75-7.75h-4.797c-3.715,0-6.737-3.022-6.737-6.738c0-3.981,3.239-7.221,7.22-7.221h16.85l-5.123,3.745
	c-0.159,0.117-0.228,0.251-0.21,0.412c0.021,0.196,0.168,0.397,0.35,0.477c0.053,0.024,0.107,0.036,0.161,0.036
	c0.095,0,0.194-0.038,0.295-0.112c0.189-0.138,0.532-0.379,0.967-0.686c3.518-2.476,5.389-3.9,5.567-4.237
	C152.025,51.786,152.003,51.597,151.908,51.467z M121.738,86.063c-2.413,0-4.303-1.89-4.303-4.303c0-2.414,1.891-4.304,4.303-4.304
	c2.413,0,4.303,1.89,4.303,4.304C126.041,84.173,124.151,86.063,121.738,86.063z"/>
<g id="Layer_1_1_">
	<g>
		<g>
			
				<ellipse fill="none" stroke="#525252" stroke-miterlimit="10" enable-background="new    " cx="197.691" cy="-76.388" rx="12.731" ry="12.579"/>
			
				<ellipse fill="none" stroke="#525252" stroke-miterlimit="10" enable-background="new    " cx="212.418" cy="-76.388" rx="12.732" ry="12.579"/>
		</g>
		
			<ellipse fill="none" stroke="#525252" stroke-miterlimit="10" enable-background="new    " cx="205.055" cy="-90.985" rx="12.732" ry="12.578"/>
	</g>
</g>
<line fill="none" stroke="#E5E5E8" stroke-miterlimit="10" x1="-90.232" y1="-61.462" x2="-131.63" y2="-61.462"/>
<line fill="none" stroke="#E5E5E8" stroke-miterlimit="10" x1="-90.232" y1="-9.666" x2="-131.63" y2="-9.666"/>
<line fill="none" stroke="#E5E5E8" stroke-miterlimit="10" x1="-90.232" y1="42.131" x2="-131.63" y2="42.131"/>
<line fill="none" stroke="#E5E5E8" stroke-miterlimit="10" x1="-90.232" y1="93.928" x2="-131.63" y2="93.928"/>
<g>
	<path fill="#EE2E7C" d="M-111.071-79.306l-3.191,4.58c-0.143,0.205-0.426,0.255-0.631,0.112c-0.206-0.143-0.255-0.426-0.113-0.63
		l3.19-4.592c0.147-0.207,0.432-0.254,0.638-0.107C-110.973-79.797-110.924-79.511-111.071-79.306z M-105.777-75.244l-7.618-10.935
		c-0.854-1.217-0.881-2.832-0.068-4.077l0.018-0.029c1.109-1.689,3.377-2.159,5.066-1.05c0.418,0.274,0.775,0.631,1.05,1.05
		l0.009,0.029c0.813,1.245,0.786,2.86-0.068,4.077l-2.266,3.242c-0.144,0.206-0.093,0.487,0.112,0.631
		c0.206,0.143,0.488,0.093,0.631-0.112l0,0l2.265-3.241c1.065-1.51,1.105-3.516,0.104-5.068l-0.019-0.032
		c-1.371-2.115-4.197-2.719-6.313-1.348c-0.54,0.349-0.999,0.809-1.348,1.348l-0.023,0.029c-1,1.551-0.96,3.554,0.102,5.063
		l7.618,10.94c0.144,0.206,0.426,0.257,0.632,0.113C-105.685-74.756-105.634-75.039-105.777-75.244z"/>
	<g>
		<path fill="#EE2E7C" d="M-115.479-79.819v-2.279c0-0.589-0.452-1.068-1.008-1.068c-0.015,0-0.029,0.004-0.043,0.005l0.796-2.738
			c0.242-0.835-0.046-1.729-0.718-2.226c-0.094-0.07-0.213-0.094-0.327-0.065c-0.115,0.028-0.211,0.108-0.264,0.217l-3.015,6.295
			c-0.307,0.64-0.356,1.396-0.137,2.077l1.583,4.914h0.537l-1.634-5.07c-0.18-0.557-0.139-1.176,0.111-1.7l2.952-6.163
			c0.413,0.379,0.585,1.007,0.419,1.578l-0.912,3.135c-0.217,0.196-0.358,0.484-0.358,0.81v4.164c0,0.142,0.115,0.255,0.256,0.255
			s0.256-0.114,0.256-0.255v-4.164c0-0.307,0.223-0.557,0.496-0.557s0.496,0.25,0.496,0.557v2.387c0,0.072,0.03,0.141,0.083,0.189
			c1.156,1.052,1.055,3.991,1,4.834h0.514C-114.333-75.616-114.247-78.567-115.479-79.819z"/>
	</g>
	<g>
		<path fill="#EE2E7C" d="M-105.259-79.861v-2.279c0-0.588,0.452-1.067,1.008-1.067c0.015,0,0.028,0.004,0.043,0.005l-0.796-2.738
			c-0.243-0.835,0.045-1.729,0.718-2.225c0.094-0.069,0.213-0.093,0.327-0.066c0.115,0.029,0.211,0.108,0.264,0.217l3.015,6.294
			c0.307,0.641,0.357,1.397,0.137,2.078l-1.583,4.914h-0.538l1.634-5.071c0.18-0.557,0.139-1.176-0.112-1.7l-2.952-6.163
			c-0.413,0.38-0.585,1.007-0.418,1.579l0.912,3.135c0.217,0.196,0.357,0.484,0.357,0.809v4.166c0,0.141-0.114,0.255-0.255,0.255
			c-0.142,0-0.256-0.115-0.256-0.255v-4.166c0-0.306-0.223-0.557-0.496-0.557c-0.273,0-0.497,0.251-0.497,0.557v2.388
			c0,0.072-0.03,0.141-0.083,0.189c-1.155,1.052-1.055,3.991-1,4.834h-0.513C-106.405-75.658-106.492-78.608-105.259-79.861z"/>
	</g>
</g>
<g>
	<path fill="#EE2E7C" d="M119.267-15.335l-4.473,6.419c-0.201,0.287-0.598,0.358-0.884,0.157c-0.288-0.201-0.358-0.597-0.158-0.883
		l4.471-6.436c0.206-0.29,0.605-0.356,0.894-0.15C119.405-16.023,119.473-15.623,119.267-15.335z M126.688-9.642L116.01-24.968
		c-1.197-1.706-1.235-3.969-0.095-5.714l0.025-0.042c1.554-2.368,4.734-3.026,7.101-1.472c0.585,0.384,1.086,0.885,1.472,1.472
		l0.013,0.042c1.139,1.745,1.102,4.008-0.095,5.714l-3.175,4.543c-0.201,0.288-0.13,0.683,0.157,0.884
		c0.288,0.201,0.684,0.131,0.884-0.157l0,0l3.175-4.542c1.493-2.117,1.549-4.927,0.146-7.103l-0.026-0.045
		c-1.921-2.964-5.883-3.811-8.848-1.889c-0.756,0.489-1.4,1.133-1.89,1.889l-0.032,0.042c-1.402,2.174-1.345,4.98,0.143,7.097
		l10.677,15.334c0.202,0.288,0.598,0.36,0.887,0.159C126.817-8.958,126.888-9.354,126.688-9.642z"/>
	<g>
		<path fill="#EE2E7C" d="M113.089-16.054v-3.194c0-0.825-0.634-1.498-1.413-1.498c-0.021,0-0.04,0.006-0.061,0.007l1.116-3.837
			c0.34-1.171-0.064-2.423-1.006-3.12c-0.132-0.098-0.298-0.131-0.458-0.092c-0.161,0.04-0.296,0.151-0.37,0.305l-4.225,8.823
			c-0.43,0.896-0.5,1.957-0.192,2.911l2.219,6.887h0.753l-2.29-7.106c-0.252-0.781-0.195-1.649,0.156-2.383l4.138-8.637
			c0.579,0.532,0.82,1.412,0.587,2.212l-1.277,4.394c-0.304,0.275-0.502,0.679-0.502,1.135v5.836c0,0.199,0.161,0.358,0.359,0.358
			s0.358-0.159,0.358-0.358v-5.836c0-0.43,0.312-0.781,0.695-0.781s0.695,0.351,0.695,0.781v3.345c0,0.102,0.042,0.197,0.117,0.266
			c1.62,1.475,1.478,5.593,1.402,6.775h0.72C114.696-10.164,114.817-14.3,113.089-16.054z"/>
	</g>
	<g>
		<path fill="#EE2E7C" d="M127.414-16.114v-3.195c0-0.824,0.634-1.496,1.413-1.496c0.021,0,0.04,0.005,0.06,0.007l-1.115-3.838
			c-0.34-1.17,0.063-2.423,1.006-3.119c0.131-0.097,0.298-0.13,0.458-0.093c0.161,0.041,0.296,0.152,0.369,0.305l4.226,8.822
			c0.431,0.898,0.5,1.959,0.192,2.912l-2.219,6.888h-0.753l2.291-7.107c0.252-0.781,0.194-1.648-0.157-2.383l-4.138-8.638
			c-0.579,0.532-0.82,1.412-0.586,2.212l1.277,4.395c0.304,0.275,0.501,0.679,0.501,1.133v5.838c0,0.197-0.16,0.358-0.358,0.358
			c-0.198,0-0.358-0.161-0.358-0.358v-5.838c0-0.429-0.313-0.78-0.695-0.78c-0.383,0-0.697,0.352-0.697,0.78v3.347
			c0,0.101-0.042,0.197-0.116,0.266c-1.619,1.475-1.479,5.593-1.402,6.776h-0.719C125.807-10.222,125.686-14.358,127.414-16.114z"/>
	</g>
</g>
<g>
	<g>
		<path fill="#3A7ABE" d="M54.311-13.974c-6.986,0-13.156-8.738-13.415-9.109l-0.333-0.479l0.333-0.479
			c0.259-0.372,6.429-9.109,13.415-9.109c6.441,0,13.115,8.712,13.396,9.083l0.383,0.505l-0.383,0.506
			C67.426-22.686,60.752-13.974,54.311-13.974z M42.625-23.562c1.361,1.781,6.437,7.915,11.687,7.915
			c4.805,0,10.166-6.095,11.658-7.914c-1.493-1.819-6.86-7.914-11.658-7.914C49.052-31.475,43.985-25.343,42.625-23.562z"/>
	</g>
	<circle fill="#3A7ABE" cx="54.436" cy="-23.458" r="6.594"/>
	<g>
		<defs>
			<circle id="SVGID_1_" cx="54.436" cy="-23.458" r="6.594"/>
		</defs>
		<clipPath id="SVGID_2_">
			<use xlink:href="#SVGID_1_"  overflow="visible"/>
		</clipPath>
		<g clip-path="url(#SVGID_2_)">
			<path fill="#FFFFFF" d="M54.417-28.543h-0.003c-1.81,0-3.279,1.468-3.279,3.279c0,0.98,0.078,1.749,0.225,2.308h2.054
				c-0.843-0.379-1.434-1.483-1.449-2.464c-0.001-0.046-0.046-0.123-0.009-0.152c0.038-0.028,0.076-0.083,0.122-0.069
				c0.086,0.026,0.362,0.098,0.701,0.097c0.621-0.009,1.416-0.211,1.793-1.383c0.022-0.069,0.169-0.173,0.241-0.162
				c0.167-0.113,0.448,0.375,0.448,0.448c0,0,0,0.01,0.003,0.04c0.003,0.03-0.031-0.106-0.019-0.051
				c0.027,0.11,0.081,0.265,0.188,0.431c0.217,0.335,0.65,0.731,1.565,0.944c0.075,0.018,0.029,0.339,0.019,0.416
				c-0.127,0.838-0.86,1.568-1.607,1.904h2.059c0.148-0.559,0.225-1.327,0.225-2.308C57.695-27.075,56.226-28.543,54.417-28.543z
				 M56.24-24.709c-0.886-0.232-1.09-0.687-1.335-1.069c-0.063-0.097-0.098-0.066-0.133-0.154c-0.469,0.934-1.313,1.036-1.916,1.027
				c-0.232,0-0.062,0.027-0.208-0.003c0.114,1.082,0.765,1.499,1.876,1.497C55.559-23.41,56.031-23.737,56.24-24.709z"/>
			<g>
				<polygon fill="#FFFFFF" points="55.533,-22.07 53.073,-22.07 54.118,-17.205 				"/>
				<path fill="#FFFFFF" d="M50.577-17.647c0.135,0.367,0.277,0.727,0.379,1.131c0.104-0.003,0.207-0.005,0.312-0.005
					c0.615,0,1.226,0.068,1.82,0.2c0.256-0.112,0.518-0.209,0.784-0.294c-0.557-0.556-1.944-1.978-2.385-2.796
					c-0.556-1.03-0.823-1.273-0.058-1.31c0.768-0.035,1.028-0.11,0.317-0.388c-0.71-0.278-0.783-0.156-0.206-0.621
					c0.188-0.152,0.323-0.255,0.437-0.339h-1.617c0.037,0,0.071,0.006,0.105,0.007c-0.556,0.033-1.051,0.416-1.192,0.985
					l-1.734,5.421c0.849-0.414,1.767-0.688,2.71-0.803L50.577-17.647z"/>
				<path fill="#FFFFFF" d="M57.042-20.517c0.762,0.095,0.476,0.316-0.159,1.3c-0.358,0.556-1.324,1.576-2.097,2.361
					c0.549-0.111,1.109-0.169,1.674-0.169c0.46,0,0.917,0.039,1.368,0.115c0.083-0.238,0.182-0.461,0.287-0.687l0.232,0.787
					c1.075,0.247,2.096,0.7,3,1.336l-1.792-5.604c-0.133-0.54-0.585-0.913-1.105-0.978c-0.055-0.007-0.125-0.011-0.202-0.012
					c-0.003,0-0.008-0.001-0.013-0.001c-0.008,0-0.014,0-0.022,0h-1.807c0.11,0.087,0.294,0.245,0.605,0.538
					c0.539,0.508,0.476,0.381-0.253,0.603C56.027-20.708,56.281-20.612,57.042-20.517z"/>
			</g>
		</g>
	</g>
</g>
<g>
	<path fill="#F05223" d="M18.646,20.106c0.019,0.063,0.035,0.104,0.064,0.162l2.262,4.632c0.191,0.392,0.584,0.619,0.992,0.619
		c0.163,0,0.327-0.036,0.483-0.112c0.547-0.268,0.774-0.928,0.508-1.475l-2.224-4.554l-0.42-1.406
		c-0.65,0.311-1.335,0.58-2.067,0.784L18.646,20.106z"/>
	<path fill="#F05223" d="M15.32,20.065l-2.24,3.666c-0.318,0.521-0.154,1.198,0.366,1.517c0.18,0.109,0.378,0.162,0.574,0.162
		c0.371,0,0.733-0.188,0.942-0.528l2.427-3.971c0.12-0.197,0.176-0.433,0.158-0.663l-0.141-1.512
		c-0.69,0.146-1.419,0.229-2.194,0.233L15.32,20.065z"/>
	<path fill="#F05223" d="M25.918,9.122c-2.298-0.946-4.578-1.752-6.602-2.377c-0.534,0.592-1.321,0.912-2.129,0.848
		c-0.444-0.035-0.875-0.187-1.246-0.438c-0.554-0.375-1.104-0.936-1.248-1.584c0,0,0.171,0,0.17,0
		c-0.883-0.179-1.583-0.28-2.124-0.282c-0.068,0-0.133,0.002-0.197,0.007c-0.002,0-0.004,0-0.005,0
		c-0.148,0.01-0.288,0.025-0.444,0.075l0.334,1.075l0.167,0.535L12.12,6.684l-0.691-0.431c0.008,0.187,0.068,0.331,0.129,0.438
		c0.119,0.201,0.253,0.327,0.412,0.463c0.144,0.119,0.315,0.242,0.518,0.372c0.463,0.299,1.091,0.635,1.939,1.047
		c0.101,0.047,0.207,0.07,0.312,0.07c0.266,0,0.522-0.148,0.646-0.403c0.172-0.359,0.022-0.786-0.334-0.958l0,0
		c-0.743-0.358-1.301-0.659-1.684-0.896l0.136-0.175c0.397,0.244,0.961,0.542,1.644,0.872c0.466,0.225,0.661,0.787,0.437,1.251
		c-0.155,0.323-0.488,0.531-0.845,0.531c-0.142,0-0.279-0.031-0.407-0.094c-0.103-0.049-0.201-0.099-0.298-0.146
		c-0.164,0.402-0.274,0.587-0.436,1.138l1.667,0.476c0.585,0.167,0.867,1.065,0.7,1.65c-0.135,0.471-0.571,0.874-1.06,0.874
		c-0.102,0-0.205-0.014-0.304-0.042l-1.552-0.443c-0.273,1.576-0.448,3.472-0.406,5.909c0.048,0.009,0.095,0.017,0.143,0.025
		c4.77,0.885,7.988-1.203,10.688-3.07c0.048-0.033,0.097-0.066,0.144-0.099c-1.641-1.072-2.62-2.215-3.188-3.287
		c-0.701-1.323-0.776-2.536-0.695-3.375c0.058,0.018,0.116,0.038,0.174,0.057c1.718,0.559,3.589,1.238,5.465,2.01
		c0.089,0.038,0.182,0.056,0.272,0.056c0.282,0,0.55-0.169,0.664-0.445C26.46,9.691,26.285,9.271,25.918,9.122z"/>
	<ellipse fill="#F05223" cx="17.44" cy="4.675" rx="2.371" ry="2.371"/>
	<path fill="#F05223" d="M6.881,3.223L6.447,2.876l0.556-0.024l1.279-0.055L7.854,1.542L7.687,1.054l0.459,0.235l1.1,0.565
		l0.27-0.423C9.188,0.836,8.618,0.376,7.903,0.21C6.568-0.102,5.234,0.729,4.923,2.063c-0.31,1.335,0.52,2.669,1.854,2.979
		c0.147,0.034,0.294,0.055,0.44,0.062L8.07,4.171L6.881,3.223z"/>
	<path fill="#F05223" d="M7.304,7.051C7.346,6.76,7.5,6.502,7.736,6.326c0.192-0.143,0.42-0.22,0.659-0.22
		c0.05,0,0.1,0.004,0.149,0.011l0.098-0.691L7.38,5.606C6.877,5.927,6.433,6.467,6.188,7.264c-0.675,2.25-0.786,3.703-0.418,6.142
		c0.166,0.721,0.468,1.17,0.837,1.447l-0.592,3.188l-3.63,1.582c-0.698,0.304-1.017,1.118-0.713,1.815
		c0.226,0.518,0.733,0.828,1.264,0.828c0.185,0,0.372-0.036,0.551-0.115l3.594-1.566c-0.187,0.921-0.472,1.877-0.889,2.846
		c-0.302,0.699,0.021,1.51,0.72,1.813c0.178,0.076,0.363,0.112,0.545,0.112c0.534,0,1.041-0.312,1.267-0.833
		c1.089-2.527,1.422-4.976,1.422-7.019c-0.002-1.695-0.228-3.115-0.446-4.1c-0.124-0.842-0.101-1.458-0.015-2.337l-2.173-3.15
		C7.336,7.681,7.262,7.343,7.304,7.051z"/>
	<path fill="#F05223" d="M9.977,6.166L9.327,6.614l0.823,1.1C10.246,7.179,10.18,6.619,9.977,6.166z"/>
	<path fill="#F05223" d="M14.491,12.263c0.076,0.021,0.153,0.031,0.228,0.031c0.363,0,0.696-0.237,0.8-0.604
		c0.126-0.442-0.129-0.903-0.571-1.028l-3.615-1.033L9.288,6.889L8.938,7.131L8.57,7.385l0.063-0.443l0.06-0.432
		C8.484,6.482,8.266,6.531,8.084,6.667C7.715,6.942,7.639,7.464,7.915,7.833h0l2.254,3.018c0.109,0.145,0.263,0.252,0.438,0.301
		L14.491,12.263z"/>
	<path fill="#F05223" d="M8.877,6.378l1.234-0.851l0.351,1.054l0.406-1.115l1.034,0.645l-0.361-1.156l1.165-0.233l-1.003-0.606
		l0.885-1.073l-1.107-0.021l0.11-1.204l-1.055,0.737L10.16,1.272l-0.722,1.13L8.364,1.851l0.439,1.285L7.485,3.193l1.153,0.92
		L7.655,5.19l1.417-0.202L8.877,6.378z M9.015,4.59L8.706,4.634l0.225-0.248l0.293-0.32l-0.339-0.27L8.576,3.55l0.247-0.01
		l0.532-0.024L9.181,3.005L9.062,2.662L9.258,2.76l0.32,0.164l0.195-0.302l0.252-0.396l0.129,0.441l0.156,0.535l0.452-0.317
		l0.354-0.248l-0.031,0.346l-0.04,0.432l0.429,0.007l0.276,0.005l-0.353,0.428l-0.299,0.362L11.5,4.461l0.113,0.069l-0.148,0.029
		l-0.436,0.088l0.134,0.429l0.039,0.124l-0.124-0.077l-0.414-0.259l-0.168,0.461L10.479,5.37l-0.158-0.475L9.887,5.193L9.398,5.532
		l0.067-0.487l0.074-0.529L9.015,4.59z"/>
</g>
<g>
	<g>
		<g>
			<path fill="#2DB674" d="M-105.502,77.469h-5.88c-1.617,0-2.969-1.521-3.364-3.011l-3.45-6.161
				c-0.336-0.359-0.521-0.824-0.521-1.317c0-0.516,0.2-0.999,0.564-1.363c0.364-0.364,0.847-0.564,1.362-0.564
				c0.515,0,0.998,0.2,1.362,0.564c0.018,0.018,0.034,0.038,0.048,0.058l0.516,0.742v-5.003c0-1.062,0.864-1.926,1.926-1.926
				c0.396,0,0.765,0.119,1.071,0.325v-0.539c0-1.063,0.864-1.927,1.927-1.927s1.927,0.865,1.927,1.927v0.111
				c0.306-0.206,0.674-0.325,1.07-0.325c1.063,0,1.926,0.864,1.926,1.926v0.54c0.306-0.205,0.675-0.326,1.071-0.326
				c1.062,0,1.927,0.865,1.927,1.927v10.432C-102.02,75.405-103.51,77.469-105.502,77.469z M-116.792,65.909
				c-0.286,0-0.555,0.112-0.757,0.313c-0.202,0.203-0.313,0.471-0.313,0.757c0,0.286,0.111,0.555,0.313,0.757
				c0.028,0.027,0.052,0.059,0.07,0.093l3.505,6.258c0.019,0.033,0.032,0.068,0.042,0.106c0.289,1.163,1.346,2.419,2.548,2.419h5.88
				c1.479,0,2.625-1.642,2.625-3.055V63.126c0-0.59-0.479-1.07-1.07-1.07c-0.591,0-1.07,0.48-1.07,1.07
				c0,0.237-0.192,0.429-0.428,0.429c-0.237,0-0.429-0.192-0.429-0.429v-2.141c0-0.59-0.48-1.07-1.07-1.07
				c-0.591,0-1.07,0.48-1.07,1.07c0,0.237-0.192,0.428-0.429,0.428s-0.428-0.191-0.428-0.428v-1.712c0-0.591-0.48-1.071-1.07-1.071
				s-1.07,0.48-1.07,1.071v2.14c0,0.236-0.191,0.428-0.428,0.428s-0.428-0.192-0.428-0.428c0-0.59-0.48-1.07-1.071-1.07
				c-0.59,0-1.07,0.48-1.07,1.07v6.368c0,0.188-0.121,0.353-0.3,0.409c-0.178,0.057-0.372-0.01-0.479-0.164l-1.272-1.829
				C-116.259,66.012-116.517,65.909-116.792,65.909z"/>
		</g>
		<g>
			<path fill="#2DB674" d="M-105.445,66.766c-0.237,0-0.429-0.192-0.429-0.428v-3.211c0-0.237,0.192-0.428,0.429-0.428
				c0.236,0,0.428,0.191,0.428,0.428v3.211C-105.017,66.574-105.209,66.766-105.445,66.766z"/>
		</g>
		<g>
			<path fill="#2DB674" d="M-108.443,64.625c-0.236,0-0.428-0.192-0.428-0.428v-3.211c0-0.237,0.192-0.428,0.428-0.428
				s0.429,0.191,0.429,0.428v3.211C-108.014,64.433-108.207,64.625-108.443,64.625z"/>
		</g>
		<g>
			<path fill="#2DB674" d="M-111.44,65.053c-0.237,0-0.428-0.191-0.428-0.428v-3.211c0-0.236,0.191-0.428,0.428-0.428
				s0.428,0.192,0.428,0.428v3.211C-111.012,64.86-111.203,65.053-111.44,65.053z"/>
		</g>
		<g>
			<g>
				<path fill="#2DB674" d="M-108.5,73.59c-0.147,0-0.285-0.076-0.363-0.201c-0.208-0.332-0.499-0.686-0.781-1.028
					c-0.619-0.75-1.259-1.526-1.259-2.343c0-1.321,1.075-2.396,2.396-2.396c1.32,0,2.394,1.075,2.394,2.396
					c0,0.809-0.641,1.595-1.26,2.357c-0.289,0.354-0.561,0.69-0.763,1.014C-108.213,73.514-108.351,73.59-108.5,73.59
					C-108.499,73.59-108.499,73.59-108.5,73.59z M-108.507,68.478c-0.849,0-1.54,0.691-1.54,1.54c0,0.51,0.541,1.165,1.063,1.798
					c0.163,0.197,0.328,0.397,0.483,0.6c0.148-0.196,0.307-0.39,0.463-0.582c0.525-0.645,1.068-1.312,1.068-1.816
					C-106.969,69.169-107.659,68.478-108.507,68.478z"/>
			</g>
			<g>
				<path fill="#2DB674" d="M-109.774,75.235c-0.091,0-0.182-0.029-0.259-0.088c-0.188-0.144-0.224-0.413-0.08-0.601
					c0.151-0.197,0.314-0.396,0.473-0.587c0.281-0.342,0.572-0.694,0.778-1.024c0.079-0.125,0.215-0.201,0.363-0.201
					c0,0,0.001,0,0.001,0c0.147,0,0.285,0.076,0.363,0.202c0.199,0.319,0.469,0.65,0.755,1.002c0.155,0.191,0.317,0.39,0.467,0.588
					c0.144,0.188,0.106,0.457-0.082,0.601c-0.188,0.142-0.457,0.105-0.6-0.083c-0.142-0.186-0.298-0.378-0.451-0.564
					c-0.152-0.188-0.308-0.379-0.455-0.572c-0.155,0.201-0.318,0.4-0.48,0.596c-0.153,0.186-0.312,0.379-0.454,0.564
					C-109.518,75.178-109.646,75.235-109.774,75.235z"/>
			</g>
		</g>
	</g>
</g>
<g>
	<g>
		<path fill="#EE2E7C" d="M-100.593,117.504c-0.161-0.161-0.375-0.249-0.603-0.249c-0.455,0-0.851,0.396-0.851,0.851v3.396
			c0.222,0.062,0.427,0.179,0.591,0.344c0.253,0.253,0.391,0.587,0.392,0.943c0,0.357-0.139,0.692-0.391,0.944h-0.001l-2.677,2.678
			c-0.095,0.094-0.248,0.095-0.343,0c-0.094-0.094-0.094-0.248,0-0.343l2.677-2.677h0.001c0.161-0.161,0.249-0.374,0.249-0.602
			c0-0.227-0.089-0.441-0.25-0.603c-0.125-0.125-0.282-0.203-0.455-0.233l-0.061-0.006c-0.259-0.025-0.509,0.062-0.688,0.241
			l-5.666,5.667c-0.317,0.318-0.497,0.741-0.506,1.192l-0.001,3.658c0,0.234,0.19,0.424,0.425,0.424h3.04
			c0.235,0,0.425-0.189,0.425-0.424v-1.188l4.69-4.689c0.162-0.161,0.25-0.375,0.25-0.602v-8.12
			C-100.344,117.879-100.432,117.666-100.593,117.504z"/>
		<path fill="#EE2E7C" d="M-112.073,127.856l-5.666-5.667c-0.179-0.179-0.43-0.266-0.688-0.241l-0.061,0.006
			c-0.173,0.031-0.33,0.108-0.456,0.233c-0.161,0.162-0.249,0.375-0.249,0.603c-0.001,0.228,0.088,0.441,0.249,0.602l0,0
			l2.677,2.677c0.094,0.095,0.095,0.249,0,0.343c-0.095,0.095-0.248,0.094-0.342,0l-2.677-2.678c0,0,0,0,0,0
			c-0.253-0.252-0.392-0.587-0.391-0.944c0-0.356,0.139-0.691,0.391-0.943c0.165-0.165,0.369-0.282,0.592-0.344v-3.396
			c0-0.455-0.396-0.852-0.851-0.852c-0.228,0.001-0.441,0.088-0.602,0.25s-0.249,0.375-0.249,0.602v8.12
			c0,0.227,0.088,0.44,0.25,0.602l4.69,4.689v1.188c0,0.234,0.19,0.424,0.425,0.424h3.04c0.234,0,0.424-0.189,0.424-0.424
			l-0.002-3.658C-111.577,128.596-111.756,128.174-112.073,127.856z"/>
	</g>
	<path fill="#EE2E7C" d="M-109.89,119.829h0.596c0.029,0.052,0.059,0.104,0.087,0.15c0.287,0.459,0.942,0.454,0.943,0.454
		c0.001,0,0.656,0.005,0.942-0.454c0.029-0.046,0.058-0.098,0.088-0.15h0.604v-1.665h-0.008c0.039-0.551-0.072-1.365-0.304-1.703
		c-0.435-0.634-1.321-0.631-1.322-0.631c-0.001,0-0.887-0.003-1.322,0.631c-0.232,0.338-0.343,1.152-0.304,1.703V119.829
		L-109.89,119.829z"/>
	<path fill="#EE2E7C" d="M-104.611,122.15c-0.031-0.208-0.086-0.471-0.187-0.749c-0.15-0.41-0.453-0.778-0.857-0.916
		c-0.201-0.069-0.394-0.125-0.573-0.172h-0.402h-0.334c-0.429,0.586-1.208,0.603-1.301,0.603c-0.091,0-0.87-0.016-1.299-0.603
		h-0.326h-0.41c-0.179,0.047-0.371,0.104-0.572,0.172c-0.406,0.138-0.708,0.506-0.857,0.916c-0.102,0.278-0.157,0.542-0.187,0.749
		c-0.006,0.04-0.011,0.077-0.015,0.113c0.008,0.174,0.151,0.314,0.328,0.314h3.339h3.34c0.177,0,0.319-0.14,0.327-0.314
		C-104.601,122.227-104.605,122.19-104.611,122.15z"/>
	<path fill="#EE2E7C" d="M-112.99,119.969c0.288,0.461,0.945,0.455,0.946,0.455c0.001,0,0.658,0.006,0.946-0.455
		c0.283-0.452,0.646-1.268,0.685-1.821c0.04-0.553-0.072-1.369-0.304-1.709c-0.437-0.634-1.326-0.633-1.327-0.633
		c-0.001,0-0.891-0.001-1.327,0.633c-0.233,0.34-0.344,1.156-0.305,1.709C-113.636,118.701-113.273,119.517-112.99,119.969z"/>
	<path fill="#EE2E7C" d="M-112.396,122.079c0.043-0.294,0.114-0.579,0.21-0.844c0.042-0.115,0.096-0.223,0.154-0.327
		c-0.005,0-0.011,0-0.014,0c-0.095,0-0.941-0.02-1.356-0.684c-0.012-0.018-0.025-0.042-0.037-0.062
		c-0.316,0.055-0.745,0.151-1.224,0.314c-0.407,0.137-0.71,0.506-0.86,0.918c-0.102,0.279-0.157,0.544-0.188,0.752
		c-0.006,0.039-0.011,0.078-0.015,0.113c0.007,0.174,0.151,0.315,0.329,0.315h3.05c-0.04-0.09-0.065-0.188-0.069-0.293l-0.002-0.038
		l0.004-0.038C-112.407,122.167-112.402,122.125-112.396,122.079z"/>
</g>
</svg>
