<?xml version="1.0" encoding="utf-8"?>
<!-- Generator: Adobe Illustrator 16.0.0, SVG Export Plug-In . SVG Version: 6.00 Build 0)  -->
<!DOCTYPE svg PUBLIC "-//W3C//DTD SVG 1.1//EN" "http://www.w3.org/Graphics/SVG/1.1/DTD/svg11.dtd">
<svg version="1.1" xmlns="http://www.w3.org/2000/svg" xmlns:xlink="http://www.w3.org/1999/xlink" x="0px" y="0px"
	 width="47.229px" height="40.804px" viewBox="0 0 47.229 40.804" enable-background="new 0 0 47.229 40.804" xml:space="preserve">
<g id="Layer_1">
	
		<linearGradient id="SVGID_1_" gradientUnits="userSpaceOnUse" x1="-1268" y1="13582.3418" x2="-1035.5704" y2="13255.4521" gradientTransform="matrix(1 0 0 -1 564 13733.0225)">
		<stop  offset="0" style="stop-color:#A90F2E"/>
		<stop  offset="0.1657" style="stop-color:#CD2749"/>
		<stop  offset="0.3099" style="stop-color:#E5385B"/>
		<stop  offset="0.3983" style="stop-color:#EE3E62"/>
		<stop  offset="0.4716" style="stop-color:#E7395D"/>
		<stop  offset="0.5803" style="stop-color:#D32B4D"/>
		<stop  offset="0.7104" style="stop-color:#B21535"/>
		<stop  offset="0.7415" style="stop-color:#A90F2E"/>
		<stop  offset="1" style="stop-color:#EE3E62"/>
	</linearGradient>
	<path fill="url(#SVGID_1_)" fill-opacity="0.05" d="M56.961,311.352c-44.85,14.28-91.311,22-137.18,22.79
		c-45.89,0.589-91.05-5.63-133.839-18.041c-21.42-6.08-42.17-14.02-62.32-23.01c-10.03-4.61-19.92-9.47-29.561-14.85
		c-9.689-5.25-19.16-10.91-28.399-16.9c-36.82-24.17-70.74-53.66-97.19-91.74c-13.14-19-24.3-40.459-30.75-64.915
		c-3.22-12.186-5.14-25.162-5.08-38.535c0.051-13.343,2.14-27.084,6.64-40.032c4.44-12.948,11.02-25.021,18.93-35.481
		c2.04-2.545,3.99-5.202,6.16-7.577c2.18-2.347,4.3-4.778,6.56-7.012l6.9-6.474c2.989-2.461,6.069-4.863,9.18-7.124
		c12.75-8.622,26.79-13.458,40.44-15.578c13.68-2.093,27.16-1.726,40.189,0.762c13,2.517,25.69,6.928,37.59,13.854
		c11.871,6.983,22.92,16.144,31.791,28.753c1.159,1.583,2.149,3.165,3.08,4.806l2.799,4.863c1.5,3.222,3.221,6.529,4.41,9.753
		c1.211,3.252,2.45,6.53,3.271,9.697l1.36,4.835l1.02,4.721c2.68,12.609,3.391,24.682,3.3,36.33
		c-0.25,23.323-3.95,45.122-8.98,66.244c-2.55,10.569-5.54,20.89-8.759,31.119c-3.311,10.181-6.961,20.221-10.91,30.11
		c-31.461,79.051-81.141,149.53-143.48,208.42c-31.2,29.4-65.79,55.7-103.07,78.2c-37.25,22.59-77.289,41.25-119.09,55.41
		c-41.85,13.97-85.35,23.89-129.41,28.95c-21.96,2.49-44.31,4.1-66.07,4.301l-16.45,0.37l-8.25,0.14l-8.34-0.28
		c-11.13-0.43-22.29-0.769-33.51-1.33l-34.061-3.45c-11.42-1.5-22.97-3.62-34.51-5.489l-4.32-0.731l-4.35-0.989l-8.73-2.041
		l-17.5-4.15c-5.85-1.56-11.73-3.509-17.58-5.29l-8.81-2.77c-2.94-0.9-5.88-1.841-8.82-3.021c-11.76-4.56-23.6-8.8-35.35-14.649
		c-11.79-5.261-23.55-11.93-35.246-18.859c-5.851-3.781-11.672-7.491-17.493-11.5l-8.732-6.5c-2.911-2.241-5.793-4.271-8.705-6.852
		l-8.704-7.489c-1.414-1.19-2.94-2.659-4.409-4.101l-4.438-4.32c-1.497-1.53-2.854-2.75-4.465-4.53l-4.663-5.141l-2.317-2.6
		l-2.714-3.34l-2.685-3.45l-0.678-0.88l-1.243-1.78l-2.459-3.64l174.28-107.94c-0.45-0.71-0.96-1.45-1.44-2.129l-0.729-1.011
		l-0.11-0.12c-0.17-0.17-0.34-0.34-0.51-0.48c-0.17-0.141-0.43-0.36-0.51-0.36l0.029,0.22c0,0.17,0,0.34,0,0.51
		c-0.09,0.141,0.31,0.62,0.45,0.932l0.56,1.08c0.17,0.37,0.311,0.73,0.711,1.189c0.649,0.87,1.27,1.75,1.89,2.681
		c0.51,0.91,1.5,1.869,2.319,2.86l2.49,2.989c1.89,1.98,4.07,3.96,6.07,6.051c4.61,3.909,9.189,8.119,14.84,11.85
		c5.141,4.069,11.42,7.46,17.41,11.199c1.47,0.961,3.08,1.781,4.75,2.57l4.91,2.46c3.31,1.61,6.5,3.42,9.95,4.969l10.63,4.391
		l5.34,2.229l2.66,1.13l2.82,0.931l11.34,3.79l5.68,1.92c1.89,0.649,3.78,1.33,5.79,1.76l23.94,6.19l24.92,4.75l6.279,1.21
		l6.44,0.819l12.91,1.641c17.38,2.58,34.26,3.569,51.409,4.13c17.101,0.541,34.2-0.061,51.271-1.38
		c17.07-1.33,34.11-3.57,50.979-6.87c33.74-6.65,66.98-16.971,99.021-31.021c32.021-14.08,62.69-32,91.46-53.04
		c28.74-21.06,55.53-45.34,79.66-72.229c24.17-26.83,45.76-56.32,63.17-87.811c8.5-15.829,16.13-32.089,21.84-48.657
		c5.77-16.511,9.7-33.475,10.74-49.362c0.51-7.916,0.199-15.55-0.9-22.165l-0.46-2.46l-0.59-2.262c-0.34-1.583-0.87-2.885-1.3-4.24
		c-0.42-1.414-1.07-2.404-1.52-3.676c-0.65-0.934-1.08-2.178-1.761-2.912c-2.46-3.365-6.55-7.323-11.64-10.036
		c-5.12-2.799-11.19-4.948-17.471-5.824c-6.239-0.905-12.66-0.82-18.279,0.424c-5.65,1.244-10.37,3.478-13.68,6.163
		c-0.73,0.763-1.471,1.47-2.261,2.092l-3.59,3.817c-1.16,1.3-2.149,2.658-3.25,3.931c-1.101,1.3-1.89,2.713-2.88,4.014
		c-3.59,5.399-6.11,10.97-7.55,16.709c-2.94,11.423-1.83,24.002,2.739,37.262c4.641,13.203,12.84,26.547,23.121,38.904
		c10.149,12.47,22.699,23.72,36.119,33.95c6.81,5.029,13.79,9.93,21.08,14.359c7.35,4.391,14.78,8.66,22.53,12.42
		c30.739,15.379,64.229,25.549,97.92,30.19c16.84,2.35,33.771,3.28,50.47,2.85c16.73-0.56,33.24-2.291,49.32-5.54
		c32.16-6.53,62.51-18.54,89.56-35.48L56.961,311.352z"/>
	<g>
		<g>
			<path fill="#9B539B" d="M46.642,4c-0.379-0.378-0.882-0.586-1.419-0.586c-1.072,0-2.004,0.934-2.004,2.004v8
				c0.522,0.145,1.006,0.421,1.394,0.809c0.595,0.596,0.921,1.384,0.922,2.223c0,0.841-0.328,1.63-0.92,2.223l-0.002,0.001
				l-6.306,6.307c-0.223,0.221-0.584,0.224-0.807,0c-0.222-0.223-0.222-0.584,0-0.809l6.306-6.304h0.002
				c0.378-0.378,0.587-0.881,0.587-1.416c0-0.536-0.21-1.039-0.589-1.42c-0.295-0.295-0.664-0.478-1.07-0.549l-0.144-0.016
				c-0.609-0.06-1.199,0.146-1.62,0.566L27.627,28.382c-0.748,0.749-1.17,1.744-1.19,2.806l-0.004,8.615c0,0.551,0.447,1,1,1h7.16
				c0.553,0,1-0.447,1-1v-2.797L46.64,25.961c0.38-0.38,0.589-0.885,0.589-1.418V5.418C47.229,4.883,47.02,4.379,46.642,4z"/>
			<path fill="#9B539B" d="M19.602,28.382L6.257,15.033c-0.422-0.42-1.012-0.626-1.619-0.566l-0.144,0.016
				c-0.407,0.071-0.777,0.254-1.072,0.549c-0.38,0.381-0.587,0.884-0.587,1.42c-0.002,0.535,0.207,1.038,0.587,1.416l0,0
				l6.306,6.304c0.222,0.225,0.223,0.586,0,0.809c-0.223,0.224-0.584,0.221-0.806,0l-6.306-6.307l-0.001-0.001
				C2.02,18.08,1.693,17.291,1.694,16.45c0-0.839,0.327-1.629,0.921-2.223c0.388-0.387,0.87-0.664,1.394-0.809v-8
				C4.01,4.346,3.076,3.413,2.004,3.413C1.469,3.414,0.965,3.621,0.587,4C0.208,4.379,0,4.883,0,5.418v19.124
				c0,0.533,0.208,1.038,0.589,1.418l11.047,11.046v2.797c0,0.551,0.447,1,1,1h7.161c0.552,0,0.999-0.447,0.999-1l-0.004-8.615
				C20.771,30.125,20.349,29.131,19.602,28.382z"/>
		</g>
		<path fill="#9B539B" d="M24.743,9.475h1.402c0.069,0.123,0.14,0.245,0.206,0.353c0.677,1.082,2.219,1.068,2.222,1.068
			s1.544,0.013,2.22-1.068c0.067-0.108,0.137-0.23,0.206-0.353h1.421V5.554h-0.019c0.092-1.298-0.17-3.215-0.716-4.01
			c-1.024-1.495-3.11-1.487-3.114-1.487c-0.002,0-2.089-0.008-3.113,1.487c-0.546,0.794-0.808,2.711-0.715,4.01V9.475L24.743,9.475z
			"/>
		<path fill="#9B539B" d="M37.177,14.943c-0.073-0.49-0.203-1.111-0.441-1.765c-0.354-0.967-1.065-1.834-2.02-2.157
			c-0.474-0.164-0.927-0.294-1.349-0.405H32.42h-0.786c-1.01,1.381-2.846,1.42-3.065,1.42c-0.215,0-2.049-0.04-3.06-1.42h-0.768
			h-0.966c-0.422,0.111-0.874,0.244-1.348,0.405c-0.955,0.323-1.667,1.19-2.02,2.157c-0.239,0.654-0.369,1.275-0.44,1.765
			c-0.014,0.093-0.025,0.179-0.035,0.265c0.019,0.41,0.355,0.739,0.772,0.739h7.865h7.868c0.416,0,0.752-0.33,0.771-0.739
			C37.201,15.122,37.19,15.036,37.177,14.943z"/>
		<path fill="#9B539B" d="M17.441,9.806c0.679,1.086,2.227,1.072,2.229,1.072c0.004,0,1.55,0.014,2.229-1.072
			c0.666-1.064,1.522-2.986,1.614-4.29c0.094-1.301-0.17-3.226-0.717-4.025C21.768-0.004,19.674,0,19.67,0
			c-0.002,0-2.098-0.004-3.124,1.491c-0.549,0.801-0.812,2.724-0.719,4.025C15.92,6.819,16.775,8.74,17.441,9.806z"/>
		<path fill="#9B539B" d="M18.842,14.775c0.103-0.693,0.27-1.363,0.496-1.987c0.1-0.272,0.226-0.526,0.364-0.77
			c-0.013,0-0.026,0-0.033,0c-0.225,0-2.216-0.046-3.194-1.61c-0.027-0.043-0.059-0.1-0.087-0.146
			c-0.744,0.13-1.754,0.356-2.882,0.741c-0.958,0.323-1.673,1.193-2.027,2.164c-0.238,0.657-0.37,1.281-0.441,1.772
			c-0.015,0.093-0.025,0.182-0.035,0.266c0.018,0.411,0.356,0.743,0.774,0.743h7.184c-0.094-0.212-0.152-0.444-0.162-0.69
			l-0.005-0.088l0.011-0.088C18.814,14.982,18.827,14.882,18.842,14.775z"/>
	</g>
</g>
<g id="Layer_2">
</g>
</svg>
