<?xml version="1.0" encoding="utf-8"?>
<!-- Generator: Adobe Illustrator 16.0.0, SVG Export Plug-In . SVG Version: 6.00 Build 0)  -->
<!DOCTYPE svg PUBLIC "-//W3C//DTD SVG 1.1//EN" "http://www.w3.org/Graphics/SVG/1.1/DTD/svg11.dtd">
<svg version="1.1" id="Layer_1" xmlns="http://www.w3.org/2000/svg" xmlns:xlink="http://www.w3.org/1999/xlink" x="0px" y="0px"
	 width="27.92px" height="25.664px" viewBox="0 0 27.92 25.664" enable-background="new 0 0 27.92 25.664" xml:space="preserve">
<g>
	<path fill="#EE2E7C" d="M12.976,18.972l-4.473,6.419c-0.201,0.287-0.598,0.358-0.884,0.157c-0.288-0.201-0.358-0.597-0.158-0.883
		l4.471-6.436c0.206-0.29,0.605-0.356,0.894-0.15C13.113,18.283,13.182,18.684,12.976,18.972z M20.396,24.665L9.718,9.339
		C8.521,7.633,8.483,5.37,9.623,3.625l0.025-0.042c1.554-2.368,4.734-3.026,7.101-1.472c0.585,0.384,1.086,0.885,1.472,1.472
		l0.013,0.042c1.139,1.745,1.102,4.008-0.095,5.714l-3.175,4.543c-0.201,0.288-0.13,0.683,0.157,0.884
		c0.288,0.201,0.684,0.131,0.884-0.157l0,0l3.175-4.542c1.493-2.117,1.549-4.927,0.146-7.103L19.3,2.918
		c-1.921-2.964-5.883-3.811-8.848-1.889c-0.756,0.489-1.4,1.133-1.89,1.889L8.531,2.96c-1.402,2.174-1.345,4.98,0.143,7.097
		l10.677,15.334c0.202,0.288,0.598,0.36,0.887,0.159C20.525,25.349,20.596,24.952,20.396,24.665z"/>
	<g>
		<path fill="#EE2E7C" d="M6.798,18.252v-3.194c0-0.825-0.634-1.498-1.413-1.498c-0.021,0-0.04,0.006-0.061,0.007L6.44,9.73
			c0.34-1.171-0.064-2.423-1.006-3.12C5.303,6.513,5.136,6.479,4.976,6.519C4.815,6.559,4.68,6.67,4.606,6.824l-4.225,8.823
			c-0.43,0.896-0.5,1.957-0.192,2.911l2.219,6.887h0.753l-2.29-7.106c-0.252-0.781-0.195-1.649,0.156-2.383l4.138-8.637
			c0.579,0.532,0.82,1.412,0.587,2.212l-1.277,4.394c-0.304,0.275-0.502,0.679-0.502,1.135v5.836c0,0.199,0.161,0.358,0.359,0.358
			s0.358-0.159,0.358-0.358v-5.836c0-0.43,0.312-0.781,0.695-0.781s0.695,0.351,0.695,0.781v3.345c0,0.102,0.042,0.197,0.117,0.266
			c1.62,1.475,1.478,5.593,1.402,6.775h0.72C8.404,24.143,8.525,20.007,6.798,18.252z"/>
	</g>
	<g>
		<path fill="#EE2E7C" d="M21.122,18.193v-3.195c0-0.824,0.634-1.496,1.413-1.496c0.021,0,0.04,0.005,0.06,0.007l-1.115-3.838
			c-0.34-1.17,0.063-2.423,1.006-3.119c0.131-0.097,0.298-0.13,0.458-0.093c0.161,0.041,0.296,0.152,0.369,0.305l4.226,8.822
			c0.431,0.898,0.5,1.959,0.192,2.912l-2.219,6.888h-0.753l2.291-7.107c0.252-0.781,0.194-1.648-0.157-2.383l-4.138-8.638
			c-0.579,0.532-0.82,1.412-0.586,2.212l1.277,4.395c0.304,0.275,0.501,0.679,0.501,1.133v5.838c0,0.197-0.16,0.358-0.358,0.358
			c-0.198,0-0.358-0.161-0.358-0.358v-5.838c0-0.429-0.313-0.78-0.695-0.78c-0.383,0-0.697,0.352-0.697,0.78v3.347
			c0,0.101-0.042,0.197-0.116,0.266c-1.619,1.475-1.479,5.593-1.402,6.776h-0.719C19.516,24.084,19.395,19.949,21.122,18.193z"/>
	</g>
</g>
</svg>
