<?xml version="1.0" encoding="utf-8"?>
<!-- Generator: Adobe Illustrator 16.0.0, SVG Export Plug-In . SVG Version: 6.00 Build 0)  -->
<!DOCTYPE svg PUBLIC "-//W3C//DTD SVG 1.1//EN" "http://www.w3.org/Graphics/SVG/1.1/DTD/svg11.dtd">
<svg version="1.1" xmlns="http://www.w3.org/2000/svg" xmlns:xlink="http://www.w3.org/1999/xlink" x="0px" y="0px"
	 width="153.238px" height="14.893px" viewBox="0 0 153.238 14.893" enable-background="new 0 0 153.238 14.893"
	 xml:space="preserve">
<g id="Layer_1">
	<g>
		<g>
			<path fill="#74787C" d="M0,13.216h0.665v-2.06c0.157,0.038,0.341,0.049,0.543,0.049c0.656,0,1.229-0.194,1.585-0.566
				c0.264-0.263,0.401-0.634,0.401-1.097c0-0.457-0.171-0.83-0.456-1.069c-0.31-0.276-0.791-0.425-1.454-0.425
				C0.743,8.048,0.326,8.085,0,8.139V13.216z M0.665,8.618C0.782,8.589,1.005,8.567,1.3,8.567c0.734,0,1.222,0.332,1.222,1.004
				c0,0.711-0.495,1.099-1.299,1.099c-0.225,0-0.411-0.016-0.559-0.054V8.618z"/>
			<path fill="#74787C" d="M5.454,9.447c-1.037,0-1.849,0.719-1.849,1.959c0,1.159,0.781,1.894,1.786,1.894
				c0.898,0,1.848-0.596,1.848-1.958C7.239,10.213,6.521,9.447,5.454,9.447z M5.439,9.951c0.796,0,1.112,0.789,1.112,1.416
				c0,0.825-0.487,1.429-1.128,1.429c-0.666,0-1.129-0.611-1.129-1.416C4.293,10.677,4.634,9.951,5.439,9.951z"/>
			<path fill="#74787C" d="M7.619,9.526l1.121,3.689h0.62l0.596-1.757c0.131-0.396,0.246-0.773,0.34-1.214h0.015
				c0.093,0.432,0.201,0.796,0.333,1.205l0.565,1.766h0.618l1.199-3.689h-0.673l-0.526,1.854c-0.124,0.434-0.223,0.821-0.286,1.192
				h-0.022c-0.086-0.371-0.193-0.759-0.334-1.199l-0.572-1.847H10.04l-0.603,1.886c-0.125,0.396-0.249,0.789-0.334,1.16H9.08
				c-0.068-0.38-0.169-0.759-0.278-1.166l-0.487-1.88H7.619z"/>
			<path fill="#74787C" d="M16.622,11.491c0.007-0.063,0.021-0.173,0.021-0.31c0-0.681-0.324-1.734-1.538-1.734
				c-1.083,0-1.749,0.875-1.749,1.981c0,1.112,0.689,1.863,1.833,1.863c0.588,0,0.997-0.124,1.238-0.23l-0.117-0.48
				c-0.254,0.106-0.549,0.192-1.029,0.192c-0.681,0-1.261-0.378-1.277-1.282H16.622z M14.015,11.011
				c0.053-0.465,0.347-1.085,1.036-1.085c0.758,0,0.944,0.658,0.936,1.085H14.015z"/>
			<path fill="#74787C" d="M17.479,13.216h0.673v-1.968c0-0.115,0.016-0.223,0.031-0.31c0.086-0.501,0.426-0.863,0.904-0.863
				c0.093,0,0.165,0.008,0.233,0.02V9.471c-0.062-0.015-0.115-0.024-0.193-0.024c-0.457,0-0.858,0.31-1.029,0.805h-0.031
				l-0.022-0.726h-0.596c0.023,0.346,0.031,0.719,0.031,1.15V13.216z"/>
			<path fill="#74787C" d="M22.91,11.491c0.006-0.063,0.022-0.173,0.022-0.31c0-0.681-0.317-1.734-1.531-1.734
				c-1.091,0-1.748,0.875-1.748,1.981c0,1.112,0.681,1.863,1.825,1.863c0.596,0,1.007-0.124,1.247-0.23l-0.116-0.48
				c-0.256,0.106-0.55,0.192-1.036,0.192c-0.674,0-1.262-0.378-1.277-1.282H22.91z M20.303,11.011
				c0.053-0.465,0.355-1.085,1.042-1.085c0.76,0,0.945,0.658,0.937,1.085H20.303z"/>
			<path fill="#74787C" d="M26.312,7.808v2.197h-0.016c-0.169-0.293-0.555-0.558-1.121-0.558c-0.912,0-1.679,0.751-1.67,1.981
				c0,1.112,0.689,1.872,1.593,1.872c0.603,0,1.059-0.318,1.268-0.728h0.015l0.032,0.644h0.604
				c-0.023-0.257-0.031-0.628-0.031-0.953V7.808H26.312z M26.312,11.668c0,0.108-0.008,0.201-0.031,0.285
				c-0.124,0.504-0.541,0.805-0.989,0.805c-0.735,0-1.107-0.619-1.107-1.36c0-0.819,0.418-1.425,1.122-1.425
				c0.502,0,0.874,0.35,0.974,0.774c0.023,0.087,0.031,0.202,0.031,0.278V11.668z"/>
			<path fill="#74787C" d="M30.295,13.216l0.031-0.614h0.022c0.277,0.491,0.712,0.698,1.245,0.698c0.828,0,1.67-0.657,1.67-1.974
				c0.008-1.119-0.649-1.879-1.569-1.879c-0.603,0-1.028,0.265-1.269,0.673h-0.015V7.808h-0.665v4.455
				c0,0.325-0.016,0.696-0.032,0.953H30.295z M30.412,11.074c0-0.11,0.022-0.195,0.039-0.272c0.139-0.511,0.572-0.819,1.028-0.819
				c0.728,0,1.106,0.624,1.106,1.367c0,0.842-0.419,1.416-1.129,1.416c-0.487,0-0.881-0.326-1.015-0.789
				c-0.014-0.07-0.029-0.155-0.029-0.239V11.074z"/>
			<path fill="#74787C" d="M33.574,9.526l1.377,3.394c0.03,0.086,0.046,0.141,0.046,0.176c0,0.041-0.024,0.095-0.055,0.163
				c-0.154,0.342-0.386,0.599-0.571,0.745c-0.194,0.17-0.418,0.278-0.589,0.323l0.171,0.566c0.17-0.033,0.495-0.141,0.829-0.433
				c0.464-0.394,0.796-1.045,1.275-2.304l1.013-2.63h-0.712l-0.733,2.163c-0.093,0.264-0.171,0.553-0.24,0.768h-0.016
				c-0.061-0.215-0.154-0.511-0.24-0.75l-0.812-2.181H33.574z"/>
			<path fill="#74787C" d="M44.103,13.537V4.209h-2.932v9.328H44.103z M42.633,0.147c-0.943,0-1.555,0.636-1.539,1.47
				c-0.016,0.805,0.595,1.454,1.524,1.454c0.958,0,1.577-0.649,1.577-1.454C44.181,0.783,43.576,0.147,42.633,0.147z"/>
			<path fill="#74787C" d="M49.061,13.537h2.945V3.128h3.542V0.684h-9.977v2.444h3.489V13.537z"/>
			<path fill="#74787C" d="M63.77,9.801c0.039-0.208,0.101-0.649,0.101-1.145c0-2.303-1.16-4.656-4.2-4.656
				c-3.279,0-4.765,2.612-4.765,4.982c0,2.915,1.834,4.747,5.037,4.747c1.267,0,2.443-0.193,3.402-0.57l-0.378-1.965
				c-0.797,0.247-1.601,0.377-2.606,0.377c-1.369,0-2.562-0.571-2.653-1.771H63.77z M57.682,7.822
				c0.079-0.792,0.582-1.894,1.811-1.894c1.354,0,1.655,1.182,1.655,1.894H57.682z"/>
			<path fill="#74787C" d="M72.347,11.178c-0.44,0.169-0.982,0.286-1.671,0.286c-1.43,0-2.583-0.896-2.583-2.614
				c-0.024-1.531,0.981-2.612,2.521-2.612c0.774,0,1.292,0.127,1.641,0.284l0.465-2.159C72.099,4.138,71.249,4,70.484,4
				c-3.513,0-5.399,2.238-5.399,4.958c0,2.939,1.948,4.771,4.989,4.771c1.121,0,2.103-0.193,2.621-0.417L72.347,11.178z"/>
			<path fill="#74787C" d="M74.32,13.537h2.923V8.008c0-0.21,0.022-0.457,0.101-0.648c0.208-0.513,0.695-1.007,1.461-1.007
				c1.099,0,1.524,0.833,1.524,2.055v5.128h2.931V8.085C83.26,5.283,81.83,4,79.965,4c-0.541,0-1.098,0.138-1.523,0.362
				c-0.464,0.25-0.852,0.559-1.16,0.954h-0.039V0H74.32V13.537z"/>
			<path fill="#74787C" d="M100.77,13.537h2.87l-0.712-12.853h-3.835l-1.385,4.275c-0.425,1.432-0.865,3.126-1.238,4.609h-0.052
				c-0.287-1.499-0.698-3.109-1.1-4.591l-1.268-4.293h-3.914l-0.828,12.853h2.714l0.233-4.88c0.091-1.601,0.153-3.588,0.23-5.321
				h0.04c0.31,1.678,0.75,3.512,1.175,5.019l1.385,4.975h2.297l1.578-5.015c0.501-1.508,1.036-3.337,1.447-4.979h0.054
				c0,1.87,0.054,3.736,0.116,5.283L100.77,13.537z"/>
			<path fill="#74787C" d="M108.829,13.537V4.209h-2.923v9.328H108.829z M107.368,0.147c-0.944,0-1.563,0.636-1.54,1.47
				c-0.022,0.805,0.596,1.454,1.524,1.454c0.959,0,1.578-0.649,1.578-1.454C108.906,0.783,108.311,0.147,107.368,0.147z"/>
			<path fill="#74787C" d="M110.653,13.079c0.712,0.379,1.811,0.65,3.041,0.65c2.699,0,4.083-1.275,4.083-3.014
				c-0.015-1.371-0.766-2.27-2.559-2.88c-1.16-0.402-1.524-0.625-1.524-1.066c0-0.478,0.403-0.764,1.121-0.764
				c0.805,0,1.617,0.307,2.042,0.534l0.518-2.004C116.794,4.247,115.813,4,114.714,4c-2.327,0-3.835,1.316-3.835,3.055
				c-0.015,1.106,0.735,2.158,2.684,2.799c1.098,0.366,1.384,0.598,1.384,1.069c0,0.479-0.363,0.788-1.253,0.788
				c-0.866,0-1.979-0.389-2.521-0.712L110.653,13.079z"/>
			<path fill="#74787C" d="M119.007,13.079c0.712,0.379,1.81,0.65,3.039,0.65c2.699,0,4.084-1.275,4.084-3.014
				c-0.016-1.371-0.774-2.27-2.56-2.88c-1.16-0.402-1.524-0.625-1.524-1.066c0-0.478,0.402-0.764,1.122-0.764
				c0.804,0,1.617,0.307,2.042,0.534l0.518-2.004C125.148,4.247,124.166,4,123.067,4c-2.328,0-3.835,1.316-3.835,3.055
				c-0.016,1.106,0.735,2.158,2.683,2.799c1.099,0.366,1.384,0.598,1.384,1.069c0,0.479-0.364,0.788-1.253,0.788
				c-0.866,0-1.98-0.389-2.521-0.712L119.007,13.079z"/>
			<path fill="#74787C" d="M130.825,13.537V4.209h-2.932v9.328H130.825z M129.363,0.147c-0.943,0-1.563,0.636-1.548,1.47
				c-0.015,0.805,0.605,1.454,1.524,1.454c0.967,0,1.579-0.649,1.579-1.454C130.902,0.783,130.307,0.147,129.363,0.147z"/>
			<path fill="#74787C" d="M137.669,4c-3.023,0-5.027,1.928-5.027,4.941c0,3.018,2.119,4.804,4.873,4.804
				c2.521,0,4.972-1.564,4.972-4.972C142.487,5.965,140.562,4,137.669,4z M137.591,6.065c1.331,0,1.873,1.406,1.873,2.8
				c0,1.678-0.733,2.806-1.873,2.806c-1.251,0-1.924-1.203-1.924-2.806C135.667,7.496,136.185,6.065,137.591,6.065z"/>
			<path fill="#74787C" d="M144.298,13.537h2.931V8.161c0-0.268,0.04-0.558,0.116-0.728c0.194-0.532,0.673-1.081,1.484-1.081
				c1.061,0,1.478,0.821,1.478,2.018v5.166h2.931V8.008c0-2.745-1.445-4.008-3.371-4.008c-1.563,0-2.522,0.896-2.908,1.493h-0.054
				l-0.14-1.284h-2.543c0.039,0.83,0.077,1.817,0.077,2.978V13.537z"/>
		</g>
	</g>
</g>
<g id="Layer_2">
</g>
</svg>
