<?xml version="1.0" encoding="utf-8"?>
<!-- Generator: Adobe Illustrator 16.0.0, SVG Export Plug-In . SVG Version: 6.00 Build 0)  -->
<!DOCTYPE svg PUBLIC "-//W3C//DTD SVG 1.1//EN" "http://www.w3.org/Graphics/SVG/1.1/DTD/svg11.dtd">
<svg version="1.1" id="Layer_1" xmlns="http://www.w3.org/2000/svg" xmlns:xlink="http://www.w3.org/1999/xlink" x="0px" y="0px"
	 width="41.439px" height="41.438px" viewBox="0 0 41.439 41.438" enable-background="new 0 0 41.439 41.438" xml:space="preserve">
<path fill="#525252" d="M38.417,5.456c-0.292-0.4-3.757-2.961-5.062-3.925c-0.651-0.482-1.144-0.845-1.396-1.04
	c-0.127-0.099-0.252-0.135-0.373-0.112c-0.114,0.023-0.234,0.103-0.319,0.213c-0.085,0.111-0.132,0.247-0.125,0.364
	c0.008,0.124,0.074,0.231,0.202,0.332l5.17,3.976H19.626c-4.54,0-8.232,3.694-8.232,8.234c0,4.274,3.476,7.75,7.75,7.75h4.797
	c3.716,0,6.739,3.023,6.739,6.739c0,3.981-3.239,7.221-7.221,7.221h-9.923c-0.272-2.678-2.541-4.774-5.29-4.774
	c-2.931,0-5.316,2.385-5.316,5.316s2.385,5.316,5.316,5.316c2.774,0,5.055-2.135,5.293-4.848h9.919c4.54,0,8.233-3.694,8.233-8.234
	c0-4.272-3.477-7.75-7.75-7.75h-4.797c-3.715,0-6.737-3.022-6.737-6.738c0-3.981,3.239-7.221,7.22-7.221h16.85l-5.123,3.745
	c-0.159,0.117-0.228,0.251-0.21,0.412c0.021,0.196,0.168,0.397,0.35,0.477c0.053,0.024,0.107,0.036,0.161,0.036
	c0.095,0,0.194-0.038,0.295-0.112c0.189-0.138,0.532-0.379,0.967-0.686c3.518-2.476,5.389-3.9,5.567-4.237
	C38.533,5.775,38.511,5.585,38.417,5.456z M8.246,40.052c-2.413,0-4.303-1.89-4.303-4.303c0-2.414,1.891-4.304,4.303-4.304
	c2.413,0,4.303,1.89,4.303,4.304C12.549,38.162,10.659,40.052,8.246,40.052z"/>
</svg>
