<?xml version="1.0" encoding="utf-8"?>
<!-- Generator: Adobe Illustrator 16.0.0, SVG Export Plug-In . SVG Version: 6.00 Build 0)  -->
<!DOCTYPE svg PUBLIC "-//W3C//DTD SVG 1.1//EN" "http://www.w3.org/Graphics/SVG/1.1/DTD/svg11.dtd">
<svg version="1.1" id="Layer_1" xmlns="http://www.w3.org/2000/svg" xmlns:xlink="http://www.w3.org/1999/xlink" x="0px" y="0px"
	 width="41.439px" height="41.438px" viewBox="0 0 41.439 41.438" enable-background="new 0 0 41.439 41.438" xml:space="preserve">
<path fill="#525252" d="M35.987,16.24l-7.633,1.878l0.192-0.221c1.777-2.013,2.718-4.451,2.718-7.049
	c0-2.831-1.108-5.497-3.121-7.511c-1.946-1.946-4.557-3.019-7.351-3.019c-2.851,0-5.534,1.114-7.555,3.136
	C10.139,6.553,9.26,11.448,11.1,15.356l0.042,0.095l-6.028,2.008c-0.204,0.14-0.298,0.298-0.298,0.5V39.52
	c0,0.119,0.072,0.265,0.193,0.393c0.108,0.053,0.206,0.1,0.297,0.1c0.055,0,0.08-0.001,0.109-0.032l0.036-0.021l10.291-3.449
	l0.033,0.016l10.283,4.563c0.031,0.032,0.131,0.032,0.169,0.032h0.105l9.896-2.329c0.244-0.048,0.395-0.237,0.395-0.492V16.734
	c0-0.175-0.063-0.305-0.191-0.39C36.32,16.236,36.122,16.194,35.987,16.24z M15.305,35.682l-0.063,0.021l-9.444,3.128V18.3
	l5.843-1.966l0.038,0.062c0.404,0.655,0.887,1.28,1.563,2.024l2.064,2.063V35.682z M25.793,39.895l-9.507-4.219v-14.21l4.119,4.12
	c0.097,0.098,0.247,0.147,0.343,0.147c0.097,0,0.246-0.05,0.344-0.147l4.701-4.701V39.895z M20.749,24.556l-6.825-6.824
	c-0.691-0.691-1.263-1.467-1.647-2.239c-1.981-3.67-1.305-8.339,1.647-11.352c1.822-1.822,4.246-2.826,6.825-2.826
	c2.58,0,5.003,1.004,6.825,2.826c1.821,1.821,2.824,4.245,2.824,6.825c0,2.579-1.003,5.002-2.824,6.823L20.749,24.556z M35.7,37.961
	l-8.924,2.083V19.902l0.337-0.336l0.024-0.006l8.563-2.127V37.961z"/>
<path fill="#515151" d="M20.72,5.683c-3.104,0-5.629,2.525-5.629,5.63c0,3.103,2.525,5.626,5.629,5.626s5.629-2.523,5.629-5.626
	C26.349,8.208,23.824,5.683,20.72,5.683z M20.72,15.867c-2.555,0-4.557-2-4.557-4.554c0-2.557,2.002-4.557,4.557-4.557
	s4.557,2,4.557,4.557C25.277,13.867,23.275,15.867,20.72,15.867z"/>
</svg>
