<?xml version="1.0" encoding="utf-8"?>
<!-- Generator: Adobe Illustrator 16.0.0, SVG Export Plug-In . SVG Version: 6.00 Build 0)  -->
<!DOCTYPE svg PUBLIC "-//W3C//DTD SVG 1.1//EN" "http://www.w3.org/Graphics/SVG/1.1/DTD/svg11.dtd">
<svg version="1.1" xmlns="http://www.w3.org/2000/svg" xmlns:xlink="http://www.w3.org/1999/xlink" x="0px" y="0px"
	 width="15.401px" height="15.402px" viewBox="0 0 15.401 15.402" enable-background="new 0 0 15.401 15.402" xml:space="preserve">
<g id="Layer_1">
	<g>
		<g>
			<path fill="#EE2A7B" d="M15.401,3.026c0-1.67-1.354-3.026-3.025-3.026H3.025C1.354,0,0,1.355,0,3.026v9.351
				c0,1.671,1.354,3.025,3.025,3.025h9.351c1.671,0,3.025-1.354,3.025-3.025V3.026L15.401,3.026z M14.516,12.759
				c0,0.97-0.787,1.757-1.757,1.757H2.645c-0.971,0-1.758-0.787-1.758-1.757V2.645c0-0.971,0.787-1.758,1.758-1.758h10.113
				c0.971,0,1.757,0.787,1.757,1.758V12.759z M9.845,11.902c0,0.386-0.313,0.7-0.7,0.7h-2.8c-0.387,0-0.7-0.314-0.7-0.7
				c0-0.387,0.313-0.7,0.7-0.7h0.657V7.001H6.344c-0.387,0-0.7-0.313-0.7-0.7c0-0.387,0.313-0.7,0.7-0.7h2.057v5.601h0.744
				C9.532,11.202,9.845,11.515,9.845,11.902z M6.651,3.895c0-0.58,0.47-1.049,1.05-1.049c0.58,0,1.05,0.469,1.05,1.049
				s-0.47,1.05-1.05,1.05C7.121,4.945,6.651,4.475,6.651,3.895z"/>
		</g>
	</g>
</g>
<g id="Layer_2">
</g>
</svg>
