<?xml version="1.0" encoding="utf-8"?>
<!-- Generator: Adobe Illustrator 16.0.0, SVG Export Plug-In . SVG Version: 6.00 Build 0)  -->
<!DOCTYPE svg PUBLIC "-//W3C//DTD SVG 1.1//EN" "http://www.w3.org/Graphics/SVG/1.1/DTD/svg11.dtd">
<svg version="1.1" id="Layer_1" xmlns="http://www.w3.org/2000/svg" xmlns:xlink="http://www.w3.org/1999/xlink" x="0px" y="0px"
	 width="32.771px" height="46.006px" viewBox="0 0 32.771 46.006" enable-background="new 0 0 32.771 46.006" xml:space="preserve">
<g id="Layer_1_1_">
	<g>
		<path fill="#2B2712" d="M32.639,29.79c0.007-0.001,0.013-0.003,0.019-0.005c0.008-0.003,0.013-0.007,0.021-0.011l0,0
			c0.007-0.004,0.014-0.006,0.02-0.012c0.006-0.004,0.01-0.008,0.015-0.012c0.007-0.006,0.012-0.011,0.018-0.02
			c0.001,0,0.001,0,0.002-0.002c0.004-0.004,0.009-0.008,0.012-0.014c0.003-0.005,0.005-0.011,0.008-0.016
			c0.004-0.008,0.007-0.018,0.01-0.026c0.002-0.005,0.006-0.009,0.007-0.016l0.001-0.002l0,0c0.002-0.007-0.001-0.013,0-0.019
			s0.004-0.011,0.004-0.018c0-0.006-0.003-0.012-0.004-0.018s0.002-0.012,0-0.019l0,0c-0.001-0.005-0.005-0.011-0.007-0.017
			c-0.005-0.01-0.009-0.021-0.014-0.031c-0.003-0.005-0.004-0.01-0.008-0.016s-0.008-0.008-0.012-0.013
			c-0.007-0.009-0.016-0.016-0.022-0.022c-0.005-0.004-0.008-0.008-0.014-0.012c-0.004-0.005-0.01-0.005-0.015-0.007
			c-0.011-0.006-0.021-0.011-0.031-0.013c-0.007-0.002-0.012-0.006-0.019-0.007l0,0l-13.38-2.69l-2.69-13.378l0,0
			c-0.001-0.006-0.006-0.01-0.008-0.017c-0.004-0.011-0.008-0.021-0.013-0.032c-0.003-0.005-0.004-0.01-0.008-0.014
			c-0.004-0.005-0.008-0.008-0.012-0.013c-0.007-0.009-0.016-0.016-0.023-0.021c-0.005-0.004-0.008-0.009-0.014-0.013
			c-0.003-0.004-0.009-0.004-0.013-0.007c-0.012-0.006-0.022-0.009-0.033-0.013c-0.006-0.001-0.012-0.006-0.018-0.007
			c-0.007,0-0.012,0-0.018,0s-0.011-0.004-0.019-0.004c-0.007,0-0.012,0.004-0.017,0.004c-0.007,0-0.012,0-0.018,0
			c-0.007,0-0.013,0.005-0.019,0.007c-0.011,0.004-0.021,0.007-0.031,0.013c-0.005,0.002-0.011,0.002-0.015,0.007
			c-0.005,0.003-0.009,0.008-0.014,0.013c-0.008,0.007-0.017,0.013-0.022,0.021c-0.004,0.005-0.009,0.008-0.012,0.013
			c-0.004,0.004-0.005,0.009-0.007,0.014c-0.006,0.011-0.012,0.021-0.015,0.032c-0.002,0.006-0.006,0.011-0.007,0.017l0,0
			l-2.69,13.378L0.142,29.448c-0.004,0.001-0.009,0.004-0.013,0.006c-0.001,0.001-0.003,0.001-0.004,0.001
			c-0.012,0.004-0.021,0.007-0.031,0.013c-0.006,0.002-0.012,0.002-0.016,0.008c-0.005,0.002-0.008,0.008-0.013,0.012
			c-0.008,0.008-0.017,0.014-0.023,0.022c-0.003,0.005-0.008,0.007-0.012,0.013c-0.003,0.004-0.004,0.011-0.007,0.016
			c-0.005,0.011-0.009,0.021-0.013,0.031c-0.003,0.006-0.007,0.012-0.008,0.017l0,0c-0.002,0.007,0,0.011,0,0.019
			C0.003,29.61,0,29.615,0,29.622c0,0.006,0.003,0.011,0.004,0.018c0,0.004-0.002,0.01,0,0.018l0,0c0,0.002,0.001,0.002,0.001,0.002
			c0.001,0.007,0.004,0.011,0.008,0.017c0.002,0.009,0.005,0.017,0.009,0.025c0.003,0.005,0.005,0.011,0.008,0.016
			c0.003,0.007,0.008,0.009,0.013,0.015l0.001,0.002c0.006,0.008,0.012,0.013,0.018,0.019c0.004,0.005,0.009,0.007,0.014,0.011
			c0.006,0.006,0.013,0.01,0.021,0.012l0.001,0.002c0.006,0.002,0.012,0.006,0.019,0.009c0.006,0.002,0.012,0.004,0.019,0.005
			c0.005,0.001,0.008,0.003,0.012,0.005l13.508,2.718l2.562,13.352c0,0,0,0,0,0.001c0.001,0.003,0.003,0.008,0.004,0.01
			c0.002,0.003,0.004,0.007,0.004,0.008c0.004,0.009,0.006,0.019,0.011,0.026c0.003,0.005,0.004,0.011,0.007,0.016
			c0.003,0.004,0.009,0.01,0.013,0.016c0,0,0.001,0,0.002,0.002c0.005,0.007,0.011,0.014,0.017,0.018
			c0.005,0.005,0.009,0.009,0.015,0.012c0.007,0.004,0.013,0.008,0.021,0.012l0,0c0.007,0.002,0.012,0.008,0.019,0.01
			c0.007,0.004,0.013,0.004,0.021,0.005c0.005,0.001,0.007,0.005,0.011,0.005c0.012,0.003,0.021,0.004,0.033,0.004
			c0,0,0.001,0,0.002,0h0.001c0.01,0,0.021,0,0.031-0.003c0.005-0.001,0.008-0.004,0.012-0.006c0.007,0,0.014-0.001,0.021-0.003
			c0.006-0.003,0.012-0.008,0.021-0.012c0.007-0.004,0.013-0.008,0.02-0.012c0.005-0.004,0.01-0.008,0.016-0.013
			c0.006-0.004,0.011-0.011,0.017-0.019c0.004-0.006,0.01-0.01,0.013-0.015c0.003-0.004,0.006-0.012,0.008-0.017
			c0.006-0.008,0.009-0.016,0.012-0.025c0-0.002,0.001-0.004,0.003-0.006c0-0.004,0.003-0.007,0.004-0.012v-0.001l2.691-13.38
			l13.379-2.69C32.632,29.793,32.635,29.791,32.639,29.79z M13.739,32.169L1.95,29.798h14.025L13.739,32.169z M16.208,29.194
			l-2.347-2.346l2.347-11.663V29.194z M16.562,44.058v-14.01l2.346,2.348L16.562,44.058z M16.812,29.444l2.346-2.346l11.662,2.346
			H16.812z"/>
		<g>
			<g enable-background="new    ">
				<path fill="#2B2712" d="M13.879,9.472V1.371h1.1l4.255,6.36v-6.36h1.027v8.101h-1.1l-4.254-6.365v6.365H13.879z"/>
			</g>
		</g>
	</g>
</g>
<g id="Layer_2">
</g>
</svg>
