<?xml version="1.0" encoding="utf-8"?>
<!-- Generator: Adobe Illustrator 16.0.0, SVG Export Plug-In . SVG Version: 6.00 Build 0)  -->
<!DOCTYPE svg PUBLIC "-//W3C//DTD SVG 1.1//EN" "http://www.w3.org/Graphics/SVG/1.1/DTD/svg11.dtd">
<svg version="1.1" xmlns="http://www.w3.org/2000/svg" xmlns:xlink="http://www.w3.org/1999/xlink" x="0px" y="0px"
	 width="43.332px" height="55.579px" viewBox="0 0 43.332 55.579" enable-background="new 0 0 43.332 55.579" xml:space="preserve">
<g id="Layer_1">
	<g>
		<path fill="#2BB673" d="M9.348,21.902c0.55,0.891,1.206,1.743,2.128,2.757l2.812,2.812v20.702l-0.085,0.029"/>
		<g>
			<polyline fill="#2BB673" points="14.203,48.202 1.337,52.463 1.337,24.495 9.295,21.816 9.348,21.902 			"/>
			<polyline fill="#FBB040" points="30.108,30.721 30.408,26.211 42.072,23.314 42.072,51.278 29.916,54.114 			"/>
			<path fill="#EE2A7B" d="M28.576,53.911l-12.951-5.747V28.809l5.612,5.612c0.131,0.132,0.336,0.2,0.467,0.2s0.333-0.069,0.468-0.2
				l6.404-6.404V53.911z"/>
			<g>
				<path fill="#282A2B" d="M42.462,21.687l-10.398,2.559l0.263-0.299c2.421-2.743,3.702-6.063,3.702-9.604
					c0-3.856-1.51-7.489-4.253-10.232C29.126,1.46,25.57,0,21.763,0c-3.882,0-7.537,1.518-10.291,4.271
					C7.251,8.492,6.055,15.159,8.559,20.485l0.061,0.126l-8.214,2.737C0.129,23.539,0,23.755,0,24.03v29.372
					c0,0.162,0.097,0.358,0.266,0.533c0.146,0.074,0.28,0.136,0.401,0.136c0.076,0,0.11,0,0.151-0.043l0.049-0.029l14.018-4.7
					l0.044,0.021l14.008,6.217c0.044,0.043,0.18,0.043,0.231,0.043h0.144l13.482-3.172c0.333-0.066,0.539-0.324,0.539-0.671V22.362
					c0-0.238-0.088-0.417-0.264-0.53C42.918,21.683,42.647,21.626,42.462,21.687z M14.288,48.173l-0.085,0.029L1.337,52.463V24.495
					l7.958-2.679l0.053,0.086c0.55,0.891,1.206,1.743,2.128,2.757l2.812,2.812V48.173z M28.576,53.911l-12.951-5.747V28.809
					l5.612,5.612c0.131,0.132,0.336,0.2,0.467,0.2s0.333-0.069,0.468-0.2l6.404-6.404V53.911z M21.705,33.017l-9.297-9.296
					c-0.942-0.943-1.72-1.998-2.246-3.05c-2.699-4.999-1.778-11.36,2.246-15.462c2.482-2.482,5.783-3.85,9.297-3.85
					c3.515,0,6.815,1.367,9.297,3.85c2.479,2.479,3.846,5.782,3.846,9.296c0,3.514-1.366,6.814-3.846,9.295L21.705,33.017z
					 M30.108,30.721l0.299-4.509l11.665-2.897v27.964l-12.156,2.836"/>
				<path fill="#009BE9" d="M21.705,7.086c-3.871,0-7.02,3.15-7.02,7.021c0,3.87,3.149,7.019,7.02,7.019s7.02-3.149,7.02-7.019
					C28.725,10.237,25.575,7.086,21.705,7.086z"/>
			</g>
		</g>
	</g>
</g>
<g id="Layer_2">
</g>
</svg>
