<?xml version="1.0" encoding="utf-8"?>
<!-- Generator: Adobe Illustrator 16.0.0, SVG Export Plug-In . SVG Version: 6.00 Build 0)  -->
<!DOCTYPE svg PUBLIC "-//W3C//DTD SVG 1.1//EN" "http://www.w3.org/Graphics/SVG/1.1/DTD/svg11.dtd">
<svg version="1.1" xmlns="http://www.w3.org/2000/svg" xmlns:xlink="http://www.w3.org/1999/xlink" x="0px" y="0px"
	 width="16.601px" height="16.171px" viewBox="0 0 16.601 16.171" enable-background="new 0 0 16.601 16.171" xml:space="preserve">
<g id="Layer_1">
	<path fill="#666666" d="M9.674,8.87C9.401,8.896,9.194,9.12,9.196,9.383v3.609c-0.007,0.283,0.229,0.52,0.521,0.524
		c0.292,0.002,0.531-0.223,0.534-0.512c0-0.003,0-0.005,0-0.012v-2.367l5.441,5.307c0.203,0.204,0.537,0.208,0.748,0.013
		c0.209-0.199,0.212-0.527,0.013-0.733c-0.007,0-0.013-0.007-0.019-0.012l-5.429-5.3h2.418c0.292,0.003,0.531-0.223,0.535-0.51
		c0.006-0.283-0.228-0.516-0.521-0.522h-0.018H9.723C9.708,8.87,9.692,8.87,9.674,8.87z M3.128,8.952
		C2.837,8.966,2.611,9.206,2.625,9.489c0.012,0.285,0.261,0.505,0.553,0.494h2.418l-5.433,5.299
		c-0.209,0.197-0.22,0.522-0.016,0.729c0.199,0.208,0.536,0.213,0.747,0.017c0.003-0.004,0.009-0.009,0.014-0.011l5.439-5.312v2.37
		c-0.006,0.283,0.23,0.52,0.522,0.523c0.291,0.003,0.532-0.224,0.536-0.509c0-0.005,0-0.012,0-0.014V9.464
		c0-0.283-0.237-0.512-0.528-0.512H3.179C3.162,8.952,3.146,8.952,3.128,8.952z M0.479,0.003c-0.289,0.029-0.502,0.28-0.477,0.563
		c0.014,0.125,0.069,0.238,0.161,0.323l5.442,5.31h-2.43c-0.29-0.004-0.529,0.22-0.535,0.507C2.637,6.993,2.87,7.224,3.163,7.229
		h0.01h3.704c0.292,0,0.527-0.23,0.527-0.515V3.104C7.411,2.821,7.179,2.583,6.887,2.58c-0.021,0-0.047,0-0.068,0.003
		C6.546,2.608,6.342,2.839,6.348,3.104v2.359L0.908,0.156C0.796,0.043,0.637-0.015,0.479,0.003z M15.815,0.073
		c-0.02,0-0.041,0.005-0.065,0.01c-0.117,0.017-0.224,0.07-0.307,0.152l-5.44,5.306V3.184c0.009-0.288-0.223-0.522-0.517-0.526
		c-0.022-0.001-0.044,0-0.068,0.003C9.146,2.688,8.942,2.916,8.947,3.184V6.79c0,0.29,0.236,0.518,0.527,0.518h3.698
		c0.292,0.002,0.531-0.224,0.537-0.509c0.003-0.286-0.229-0.518-0.521-0.523h-0.016h-2.426l5.438-5.31
		c0.214-0.193,0.229-0.519,0.028-0.73C16.114,0.131,15.967,0.073,15.815,0.073z"/>
</g>
<g id="Layer_2">
</g>
</svg>
