<?xml version="1.0" encoding="utf-8"?>
<!-- Generator: Adobe Illustrator 16.0.0, SVG Export Plug-In . SVG Version: 6.00 Build 0)  -->
<!DOCTYPE svg PUBLIC "-//W3C//DTD SVG 1.1//EN" "http://www.w3.org/Graphics/SVG/1.1/DTD/svg11.dtd">
<svg version="1.1" xmlns="http://www.w3.org/2000/svg" xmlns:xlink="http://www.w3.org/1999/xlink" x="0px" y="0px"
	 width="16.595px" height="16.165px" viewBox="0 0 16.595 16.165" enable-background="new 0 0 16.595 16.165" xml:space="preserve">
<g id="Layer_1">
	<path fill="#666666" d="M8.237,8.813l1.134,1.208L8.237,16.02V8.813z M8.254,7.905l-1.23,1.878L0.178,8.145L8.254,7.905z
		 M8.282,8.021l-1.169-1.31l1.169-6.516V8.021z M9.556,6.883l6.843,1.181H8.18L9.556,6.883z M16.593,8.078c0-0.005,0-0.009,0-0.009
		l-0.006,0c-0.003-0.005-0.003-0.005-0.003-0.005s-0.005,0-0.007-0.002l-6.878-1.35L8.314,0.012L8.313,0.009
		c0-0.003,0-0.003,0-0.003s-0.003,0-0.006-0.001c0-0.002-0.003-0.002-0.004-0.003L8.298,0H8.297H8.294H8.292L8.287,0.001
		c0,0.001-0.001,0.001-0.001,0.003L8.283,0.006c0,0-0.002,0-0.002,0.003c0,0-0.002,0-0.002,0.003L6.893,6.712L0.015,8.063H0.013
		c0,0.004-0.003,0.004-0.003,0.004S0.006,8.069,0.006,8.071c-0.003,0-0.003,0.004-0.003,0.004H0.002c0,0,0,0.001,0,0.004L0,8.082
		l0.002,0.001c0,0,0,0,0,0.001c0,0.002,0,0.002,0,0.005c0.002,0.004,0.002,0.004,0.005,0.005l0.004,0.002c0,0.003,0,0.003,0,0.003
		L0.016,8.1l6.947,1.363l1.318,6.688c0,0.003,0,0.005,0,0.005c0.002,0.002,0.002,0.002,0.003,0.004l0.002,0.002
		c0.001,0,0.001,0,0.001,0c0.007,0.002,0.007,0.003,0.007,0.003c0.003,0,0.004,0,0.004,0s0.003,0,0.005,0l0.001-0.001
		c0.006-0.002,0.006-0.002,0.008-0.002V16.16c0,0,0.003-0.002,0.005-0.004v-0.002L9.702,9.45l6.878-1.35
		c0,0,0.003-0.001,0.003-0.002h0.004c0,0,0.002-0.003,0.005-0.003c0-0.001,0-0.002,0-0.006c0,0,0.003,0,0.003-0.002s0-0.002,0-0.002
		c0-0.001,0-0.001,0-0.001C16.596,8.081,16.593,8.078,16.593,8.078z"/>
</g>
<g id="Layer_2">
</g>
</svg>
