<?xml version="1.0" encoding="utf-8"?>
<!-- Generator: Adobe Illustrator 16.0.0, SVG Export Plug-In . SVG Version: 6.00 Build 0)  -->
<!DOCTYPE svg PUBLIC "-//W3C//DTD SVG 1.1//EN" "http://www.w3.org/Graphics/SVG/1.1/DTD/svg11.dtd">
<svg version="1.1" xmlns="http://www.w3.org/2000/svg" xmlns:xlink="http://www.w3.org/1999/xlink" x="0px" y="0px"
	 width="16.599px" height="16.17px" viewBox="0 0 16.599 16.17" enable-background="new 0 0 16.599 16.17" xml:space="preserve">
<g id="Layer_1">
	<path fill="#666666" d="M15.563,6.467h-4.15V3.233h4.15V6.467z M15.563,10.869h-4.15V7.545h4.15V10.869z M15.563,15.089h-4.15
		v-3.232h4.15V15.089z M10.375,6.467H6.228V3.233h4.147V6.467z M10.375,10.869H6.228V7.545h4.147V10.869z M10.375,15.089H6.228
		v-3.232h4.147V15.089z M5.189,6.467H1.038V3.233h4.151V6.467z M5.189,10.869H1.038V7.545h4.151V10.869z M5.189,15.089H1.038v-3.232
		h4.151V15.089z M16.58,1.023C16.538,0.465,16.105,0,15.563,0H1.038C0.495,0,0.064,0.465,0.018,1.023H0v14.068
		c0,0.593,0.465,1.079,1.037,1.079h14.524c0.573,0,1.037-0.485,1.037-1.079V1.023H16.58z"/>
</g>
<g id="Layer_2">
</g>
</svg>
