<?xml version="1.0" encoding="utf-8"?>
<!-- Generator: Adobe Illustrator 16.0.0, SVG Export Plug-In . SVG Version: 6.00 Build 0)  -->
<!DOCTYPE svg PUBLIC "-//W3C//DTD SVG 1.1//EN" "http://www.w3.org/Graphics/SVG/1.1/DTD/svg11.dtd">
<svg version="1.1" xmlns="http://www.w3.org/2000/svg" xmlns:xlink="http://www.w3.org/1999/xlink" x="0px" y="0px"
	 width="16.314px" height="16.17px" viewBox="0 0 16.314 16.17" enable-background="new 0 0 16.314 16.17" xml:space="preserve">
<g id="Layer_1">
	<g>
		<path fill="#666666" d="M15.602,16.17c-0.214,0-0.354-0.067-0.499-0.205l-3.987-3.886c-0.287-0.278-0.287-0.693,0-0.975
			c0.281-0.275,0.711-0.275,0.998,0l3.988,3.887c0.283,0.279,0.283,0.696,0,0.974C15.959,16.103,15.816,16.17,15.602,16.17z"/>
		<g>
			<path fill="#666666" d="M7.125,1.457c-3.135,0-5.701,2.501-5.701,5.554c0,3.055,2.566,5.554,5.701,5.554
				c3.132,0,5.699-2.499,5.699-5.554C12.824,3.958,10.257,1.457,7.125,1.457z M7.125,13.881C3.204,13.881,0,10.757,0,6.94
				C0,3.124,3.207,0,7.125,0c3.917,0,7.123,3.124,7.123,6.94C14.248,10.757,11.042,13.881,7.125,13.881z"/>
			<path fill="#666666" d="M7.125,10.341c-0.429,0-0.713-0.276-0.713-0.693V4.167c0-0.418,0.284-0.696,0.713-0.696
				c0.426,0,0.712,0.278,0.712,0.696v5.481C7.837,9.997,7.551,10.341,7.125,10.341z"/>
			<path fill="#666666" d="M9.975,7.565h-5.63c-0.426,0-0.711-0.277-0.711-0.693c0-0.417,0.286-0.693,0.711-0.693h5.63
				c0.43,0,0.711,0.276,0.711,0.693C10.686,7.289,10.329,7.565,9.975,7.565z"/>
		</g>
	</g>
</g>
<g id="Layer_2">
</g>
</svg>
